<?xml version="1.0" encoding="utf-8" standalone="no"?>
<!DOCTYPE svg PUBLIC "-//W3C//DTD SVG 1.1//EN"
  "http://www.w3.org/Graphics/SVG/1.1/DTD/svg11.dtd">
<svg xmlns:xlink="http://www.w3.org/1999/xlink" width="109.761171pt" height="310.839177pt" viewBox="0 0 109.761171 310.839177" xmlns="http://www.w3.org/2000/svg" version="1.1">
 <metadata>
  <rdf:RDF xmlns:dc="http://purl.org/dc/elements/1.1/" xmlns:cc="http://creativecommons.org/ns#" xmlns:rdf="http://www.w3.org/1999/02/22-rdf-syntax-ns#">
   <cc:Work>
    <dc:type rdf:resource="http://purl.org/dc/dcmitype/StillImage"/>
    <dc:date>2026-04-21T11:59:06.909631</dc:date>
    <dc:format>image/svg+xml</dc:format>
    <dc:creator>
     <cc:Agent>
      <dc:title>Matplotlib v3.10.7, https://matplotlib.org/</dc:title>
     </cc:Agent>
    </dc:creator>
   </cc:Work>
  </rdf:RDF>
 </metadata>
 <defs>
  <style type="text/css">*{stroke-linejoin: round; stroke-linecap: butt}</style>
 </defs>
 <g id="figure_1">
  <g id="patch_1">
   <path d="M -0 310.839177 
L 109.761171 310.839177 
L 109.761171 0 
L -0 0 
L -0 310.839177 
z
" style="fill: none"/>
  </g>
  <g id="axes_1">
   <g id="patch_2">
    <path d="M 33.720781 72.842326 
L 97.216844 72.842326 
L 97.216844 9.28957 
L 33.720781 9.28957 
L 33.720781 72.842326 
z
" style="fill: none"/>
   </g>
   <g id="FillBetweenPolyCollection_1">
    <path d="M 32.709163 -55.042147 
L 32.709163 -86.788425 
L 33.720781 -101.054536 
L 34.732399 -106.200878 
L 35.744017 -106.215835 
L 36.755635 -97.835502 
L 37.767253 -81.861891 
L 38.778871 -60.873738 
L 39.790489 -39.043022 
L 40.802107 -16.582849 
L 41.813725 4.783384 
L 42.825343 23.314947 
L 43.836961 37.635757 
L 44.848579 48.277302 
L 45.860197 55.873666 
L 46.871815 60.666977 
L 47.883433 62.31118 
L 48.895051 61.374739 
L 49.906669 58.805945 
L 50.918287 55.434964 
L 51.929905 51.794816 
L 52.941523 48.467545 
L 53.953141 44.698688 
L 54.964759 41.621501 
L 55.976377 38.89569 
L 56.987995 36.516632 
L 57.999613 34.989988 
L 59.011231 34.266574 
L 60.022849 33.961148 
L 61.034467 33.978778 
L 62.046085 34.412358 
L 63.057703 35.117542 
L 64.069321 36.222351 
L 65.080938 37.551288 
L 66.092556 38.966943 
L 67.104174 40.452535 
L 68.115792 41.653012 
L 69.12741 42.888166 
L 70.139028 44.218178 
L 71.150646 45.323291 
L 72.162264 46.35002 
L 73.173882 47.859664 
L 74.1855 49.27307 
L 75.197118 50.81537 
L 76.208736 52.483602 
L 77.220354 54.05519 
L 78.231972 55.678336 
L 79.24359 57.448088 
L 80.255208 59.318519 
L 81.266826 61.153651 
L 82.278444 62.718238 
L 83.290062 63.95752 
L 84.30168 64.71737 
L 85.313298 64.679112 
L 86.324916 63.662819 
L 87.336534 61.964432 
L 88.348152 60.017261 
L 89.35977 57.195048 
L 90.371388 53.708944 
L 91.383006 49.707219 
L 92.394624 45.958634 
L 93.406242 42.287796 
L 94.41786 38.505657 
L 95.429478 34.988779 
L 96.441096 31.732893 
L 96.441096 46.202662 
L 96.441096 46.202662 
L 95.429478 47.92848 
L 94.41786 50.048257 
L 93.406242 52.524474 
L 92.394624 55.385943 
L 91.383006 58.238302 
L 90.371388 60.665071 
L 89.35977 62.750131 
L 88.348152 64.452517 
L 87.336534 65.668158 
L 86.324916 66.416706 
L 85.313298 66.692486 
L 84.30168 66.483733 
L 83.290062 66.079734 
L 82.278444 65.521961 
L 81.266826 64.780734 
L 80.255208 63.815946 
L 79.24359 62.747583 
L 78.231972 61.687111 
L 77.220354 60.456514 
L 76.208736 59.162503 
L 75.197118 57.94522 
L 74.1855 56.501605 
L 73.173882 55.203049 
L 72.162264 54.199152 
L 71.150646 53.168153 
L 70.139028 51.966833 
L 69.12741 50.735959 
L 68.115792 49.90048 
L 67.104174 48.699816 
L 66.092556 47.579542 
L 65.080938 46.779847 
L 64.069321 45.927867 
L 63.057703 45.193933 
L 62.046085 44.438703 
L 61.034467 44.036591 
L 60.022849 43.863488 
L 59.011231 43.79337 
L 57.999613 44.069976 
L 56.987995 45.178248 
L 55.976377 46.927715 
L 54.964759 48.885341 
L 53.953141 51.322207 
L 52.941523 54.455866 
L 51.929905 57.737459 
L 50.918287 60.613331 
L 49.906669 62.790362 
L 48.895051 64.046225 
L 47.883433 64.052888 
L 46.871815 63.038619 
L 45.860197 60.254736 
L 44.848579 55.016984 
L 43.836961 46.856616 
L 42.825343 35.594461 
L 41.813725 21.177905 
L 40.802107 3.623191 
L 39.790489 -15.901662 
L 38.778871 -35.617123 
L 37.767253 -54.923902 
L 36.755635 -69.361631 
L 35.744017 -77.43347 
L 34.732399 -78.350038 
L 33.720781 -69.645334 
L 32.709163 -55.042147 
z
" clip-path="url(#pd32098897c)" style="fill: #d45b0c; fill-opacity: 0.5"/>
   </g>
   <g id="FillBetweenPolyCollection_2">
    <path d="M 32.709163 -49.052589 
L 32.709163 -86.281933 
L 33.720781 -103.613587 
L 34.732399 -113.563469 
L 35.744017 -115.673388 
L 36.755635 -106.715695 
L 37.767253 -90.009684 
L 38.778871 -68.444511 
L 39.790489 -44.108068 
L 40.802107 -19.130399 
L 41.813725 4.301259 
L 42.825343 23.638399 
L 43.836961 39.173536 
L 44.848579 50.562698 
L 45.860197 58.268771 
L 46.871815 63.246747 
L 47.883433 64.725853 
L 48.895051 63.188607 
L 49.906669 60.555375 
L 50.918287 56.905945 
L 51.929905 53.189916 
L 52.941523 49.809885 
L 53.953141 46.455297 
L 54.964759 44.403337 
L 55.976377 42.378475 
L 56.987995 41.600164 
L 57.999613 41.160453 
L 59.011231 40.986244 
L 60.022849 41.485295 
L 61.034467 42.448665 
L 62.046085 43.83852 
L 63.057703 45.000634 
L 64.069321 46.302564 
L 65.080938 47.776489 
L 66.092556 48.995774 
L 67.104174 50.221034 
L 68.115792 51.433155 
L 69.12741 52.335206 
L 70.139028 53.346447 
L 71.150646 54.285004 
L 72.162264 54.984454 
L 73.173882 55.836996 
L 74.1855 56.770171 
L 75.197118 57.788794 
L 76.208736 58.888884 
L 77.220354 59.800158 
L 78.231972 60.911534 
L 79.24359 62.588413 
L 80.255208 63.606781 
L 81.266826 65.108639 
L 82.278444 66.232178 
L 83.290062 67.291265 
L 84.30168 68.006768 
L 85.313298 67.940087 
L 86.324916 67.160359 
L 87.336534 65.867818 
L 88.348152 63.912886 
L 89.35977 61.444698 
L 90.371388 58.515589 
L 91.383006 55.023745 
L 92.394624 51.281124 
L 93.406242 47.367824 
L 94.41786 43.450067 
L 95.429478 39.769123 
L 96.441096 36.824798 
L 96.441096 52.263885 
L 96.441096 52.263885 
L 95.429478 54.236753 
L 94.41786 56.140089 
L 93.406242 58.143759 
L 92.394624 60.615509 
L 91.383006 62.852692 
L 90.371388 64.98229 
L 89.35977 66.640099 
L 88.348152 67.908802 
L 87.336534 68.682217 
L 86.324916 69.122845 
L 85.313298 69.214848 
L 84.30168 69.208692 
L 83.290062 69.032262 
L 82.278444 68.724882 
L 81.266826 68.204806 
L 80.255208 67.603645 
L 79.24359 66.81129 
L 78.231972 65.98041 
L 77.220354 65.182473 
L 76.208736 64.341857 
L 75.197118 63.585228 
L 74.1855 62.905611 
L 73.173882 61.943678 
L 72.162264 61.273042 
L 71.150646 60.588026 
L 70.139028 60.000591 
L 69.12741 59.2071 
L 68.115792 58.350795 
L 67.104174 57.291569 
L 66.092556 55.945069 
L 65.080938 54.871581 
L 64.069321 53.730903 
L 63.057703 52.472897 
L 62.046085 51.220987 
L 61.034467 50.021218 
L 60.022849 49.614706 
L 59.011231 49.243554 
L 57.999613 49.590662 
L 56.987995 49.703868 
L 55.976377 51.204439 
L 54.964759 53.310663 
L 53.953141 55.343951 
L 52.941523 57.838953 
L 51.929905 60.463675 
L 50.918287 63.074064 
L 49.906669 65.31033 
L 48.895051 66.499282 
L 47.883433 66.697518 
L 46.871815 65.937199 
L 45.860197 63.657283 
L 44.848579 58.984675 
L 43.836961 50.869375 
L 42.825343 39.475732 
L 41.813725 24.65315 
L 40.802107 6.696207 
L 39.790489 -14.733128 
L 38.778871 -35.478062 
L 37.767253 -55.033561 
L 36.755635 -68.955723 
L 35.744017 -77.325262 
L 34.732399 -75.314453 
L 33.720781 -65.27867 
L 32.709163 -49.052589 
z
" clip-path="url(#pd32098897c)" style="fill: #a9a9a9; fill-opacity: 0.5"/>
   </g>
   <g id="matplotlib.axis_1">
    <g id="xtick_1">
     <g id="line2d_1">
      <defs>
       <path id="ma8045d7314" d="M 0 0 
L 0 -3 
" style="stroke: #000000; stroke-width: 0.5"/>
      </defs>
      <g>
       <use xlink:href="#ma8045d7314" x="51.929905" y="72.842326" style="stroke: #000000; stroke-width: 0.5"/>
      </g>
     </g>
     <g id="text_1">
      <text style="font-size: 5.5px; font-family: 'DejaVu Sans', 'Bitstream Vera Sans', 'Computer Modern Sans Serif', 'Lucida Grande', 'Verdana', 'Geneva', 'Lucid', 'Arial', 'Helvetica', 'Avant Garde', sans-serif; text-anchor: middle" x="51.929905" y="80.521467" transform="rotate(-0 51.929905 80.521467)">10</text>
     </g>
    </g>
    <g id="xtick_2">
     <g id="line2d_2">
      <g>
       <use xlink:href="#ma8045d7314" x="72.162264" y="72.842326" style="stroke: #000000; stroke-width: 0.5"/>
      </g>
     </g>
     <g id="text_2">
      <text style="font-size: 5.5px; font-family: 'DejaVu Sans', 'Bitstream Vera Sans', 'Computer Modern Sans Serif', 'Lucida Grande', 'Verdana', 'Geneva', 'Lucid', 'Arial', 'Helvetica', 'Avant Garde', sans-serif; text-anchor: middle" x="72.162264" y="80.521467" transform="rotate(-0 72.162264 80.521467)">20</text>
     </g>
    </g>
    <g id="xtick_3">
     <g id="line2d_3">
      <g>
       <use xlink:href="#ma8045d7314" x="92.394624" y="72.842326" style="stroke: #000000; stroke-width: 0.5"/>
      </g>
     </g>
     <g id="text_3">
      <text style="font-size: 5.5px; font-family: 'DejaVu Sans', 'Bitstream Vera Sans', 'Computer Modern Sans Serif', 'Lucida Grande', 'Verdana', 'Geneva', 'Lucid', 'Arial', 'Helvetica', 'Avant Garde', sans-serif; text-anchor: middle" x="92.394624" y="80.521467" transform="rotate(-0 92.394624 80.521467)">30</text>
     </g>
    </g>
    <g id="text_4">
     <!-- $\tau$ (ms) -->
     <g transform="translate(54.268813 90.984201)">
      <text>
       <tspan x="0" y="-0.6875" style="font-style: oblique; font-size: 7px; font-family: 'DejaVu Sans'">τ</tspan>
       <tspan x="4.214355" y="-0.6875" style="font-size: 7px; font-family: 'DejaVu Sans'"> </tspan>
       <tspan x="6.439453" y="-0.6875" style="font-size: 7px; font-family: 'DejaVu Sans'">(</tspan>
       <tspan x="9.17041" y="-0.6875" style="font-size: 7px; font-family: 'DejaVu Sans'">m</tspan>
       <tspan x="15.989258" y="-0.6875" style="font-size: 7px; font-family: 'DejaVu Sans'">s</tspan>
       <tspan x="19.63623" y="-0.6875" style="font-size: 7px; font-family: 'DejaVu Sans'">)</tspan>
      </text>
     </g>
    </g>
   </g>
   <g id="matplotlib.axis_2">
    <g id="ytick_1">
     <g id="line2d_4">
      <defs>
       <path id="m1364810252" d="M 0 0 
L 3 0 
" style="stroke: #000000; stroke-width: 0.5"/>
      </defs>
      <g>
       <use xlink:href="#m1364810252" x="33.720781" y="72.057724" style="stroke: #000000; stroke-width: 0.5"/>
      </g>
     </g>
     <g id="text_5">
      <text style="font-size: 5.5px; font-family: 'DejaVu Sans', 'Bitstream Vera Sans', 'Computer Modern Sans Serif', 'Lucida Grande', 'Verdana', 'Geneva', 'Lucid', 'Arial', 'Helvetica', 'Avant Garde', sans-serif; text-anchor: end" x="30.220781" y="74.147295" transform="rotate(-0 30.220781 74.147295)">0.00</text>
     </g>
    </g>
    <g id="ytick_2">
     <g id="line2d_5">
      <g>
       <use xlink:href="#m1364810252" x="33.720781" y="56.365686" style="stroke: #000000; stroke-width: 0.5"/>
      </g>
     </g>
     <g id="text_6">
      <text style="font-size: 5.5px; font-family: 'DejaVu Sans', 'Bitstream Vera Sans', 'Computer Modern Sans Serif', 'Lucida Grande', 'Verdana', 'Geneva', 'Lucid', 'Arial', 'Helvetica', 'Avant Garde', sans-serif; text-anchor: end" x="30.220781" y="58.455256" transform="rotate(-0 30.220781 58.455256)">0.02</text>
     </g>
    </g>
    <g id="ytick_3">
     <g id="line2d_6">
      <g>
       <use xlink:href="#m1364810252" x="33.720781" y="40.673647" style="stroke: #000000; stroke-width: 0.5"/>
      </g>
     </g>
     <g id="text_7">
      <text style="font-size: 5.5px; font-family: 'DejaVu Sans', 'Bitstream Vera Sans', 'Computer Modern Sans Serif', 'Lucida Grande', 'Verdana', 'Geneva', 'Lucid', 'Arial', 'Helvetica', 'Avant Garde', sans-serif; text-anchor: end" x="30.220781" y="42.763218" transform="rotate(-0 30.220781 42.763218)">0.04</text>
     </g>
    </g>
    <g id="ytick_4">
     <g id="line2d_7">
      <g>
       <use xlink:href="#m1364810252" x="33.720781" y="24.981609" style="stroke: #000000; stroke-width: 0.5"/>
      </g>
     </g>
     <g id="text_8">
      <text style="font-size: 5.5px; font-family: 'DejaVu Sans', 'Bitstream Vera Sans', 'Computer Modern Sans Serif', 'Lucida Grande', 'Verdana', 'Geneva', 'Lucid', 'Arial', 'Helvetica', 'Avant Garde', sans-serif; text-anchor: end" x="30.220781" y="27.071179" transform="rotate(-0 30.220781 27.071179)">0.06</text>
     </g>
    </g>
    <g id="ytick_5">
     <g id="line2d_8">
      <g>
       <use xlink:href="#m1364810252" x="33.720781" y="9.28957" style="stroke: #000000; stroke-width: 0.5"/>
      </g>
     </g>
     <g id="text_9">
      <text style="font-size: 5.5px; font-family: 'DejaVu Sans', 'Bitstream Vera Sans', 'Computer Modern Sans Serif', 'Lucida Grande', 'Verdana', 'Geneva', 'Lucid', 'Arial', 'Helvetica', 'Avant Garde', sans-serif; text-anchor: end" x="30.220781" y="11.379141" transform="rotate(-0 30.220781 11.379141)">0.08</text>
     </g>
    </g>
    <g id="text_10">
     <!-- $TE_{F \rightarrow S}$ (bits) -->
     <g transform="translate(12.518906 61.750948) rotate(-90)">
      <text>
       <tspan x="0" y="-0.6875" style="font-style: oblique; font-size: 7px; font-family: 'DejaVu Sans'">T</tspan>
       <tspan x="4.275879" y="-0.6875" style="font-style: oblique; font-size: 7px; font-family: 'DejaVu Sans'">E</tspan>
       <tspan x="8.69873" y="0.460938" style="font-style: oblique; font-size: 4.9px; font-family: 'DejaVu Sans'">F</tspan>
       <tspan x="17.532129" y="0.460938" style="font-style: oblique; font-size: 4.9px; font-family: 'DejaVu Sans'">S</tspan>
       <tspan x="12.471826" y="0.460938" style="font-size: 4.9px; font-family: 'DejaVu Sans'">→</tspan>
       <tspan x="20.833887" y="-0.6875" style="font-size: 7px; font-family: 'DejaVu Sans'"> </tspan>
       <tspan x="23.058984" y="-0.6875" style="font-size: 7px; font-family: 'DejaVu Sans'">(</tspan>
       <tspan x="25.789941" y="-0.6875" style="font-size: 7px; font-family: 'DejaVu Sans'">b</tspan>
       <tspan x="30.233301" y="-0.6875" style="font-size: 7px; font-family: 'DejaVu Sans'">i</tspan>
       <tspan x="32.178125" y="-0.6875" style="font-size: 7px; font-family: 'DejaVu Sans'">t</tspan>
       <tspan x="34.922754" y="-0.6875" style="font-size: 7px; font-family: 'DejaVu Sans'">s</tspan>
       <tspan x="38.569727" y="-0.6875" style="font-size: 7px; font-family: 'DejaVu Sans'">)</tspan>
      </text>
     </g>
    </g>
   </g>
   <g id="line2d_9"/>
   <g id="line2d_10"/>
   <g id="line2d_11">
    <path d="M 41.103444 -1 
L 41.813725 12.512614 
L 42.825343 28.945792 
L 43.836961 41.870275 
L 44.848579 51.680421 
L 45.860197 58.215767 
L 46.871815 61.918082 
L 47.883433 63.178822 
L 48.895051 62.670621 
L 49.906669 60.831754 
L 50.918287 58.099318 
L 51.929905 54.736821 
L 52.941523 51.422296 
L 53.953141 48.274175 
L 54.964759 45.24643 
L 55.976377 43.010852 
L 56.987995 41.348602 
L 57.999613 40.043021 
L 59.011231 39.384015 
L 60.022849 39.169282 
L 61.034467 39.151421 
L 62.046085 39.946272 
L 63.057703 40.679544 
L 64.069321 41.338675 
L 65.080938 42.26157 
L 66.092556 43.297029 
L 67.104174 44.20991 
L 68.115792 45.145175 
L 69.12741 46.307113 
L 70.139028 47.431391 
L 71.150646 48.626846 
L 72.162264 49.804802 
L 73.173882 51.177313 
L 74.1855 52.761458 
L 75.197118 54.230033 
L 76.208736 55.764107 
L 77.220354 57.424788 
L 78.231972 59.122652 
L 79.24359 60.754436 
L 80.255208 62.208266 
L 81.266826 63.517836 
L 82.278444 64.634047 
L 83.290062 65.366453 
L 84.30168 65.700977 
L 85.313298 65.668923 
L 86.324916 65.222762 
L 87.336534 64.237348 
L 88.348152 62.709964 
L 89.35977 60.464815 
L 90.371388 57.800234 
L 91.383006 54.738991 
L 92.394624 51.72189 
L 93.406242 48.399512 
L 94.41786 45.099157 
L 95.429478 42.343944 
L 96.441096 39.966616 
" clip-path="url(#pd32098897c)" style="fill: none; stroke: #d45b0c; stroke-width: 0.5; stroke-linecap: square"/>
   </g>
   <g id="line2d_12">
    <path d="M 41.06756 -1 
L 41.813725 14.000933 
L 42.825343 31.30662 
L 43.836961 44.936112 
L 44.848579 54.805358 
L 45.860197 61.229555 
L 46.871815 64.72956 
L 47.883433 65.783804 
L 48.895051 65.102619 
L 49.906669 63.101413 
L 50.918287 60.331894 
L 51.929905 57.150764 
L 52.941523 54.041461 
L 53.953141 51.340544 
L 54.964759 49.116921 
L 55.976377 47.259891 
L 56.987995 46.091069 
L 57.999613 45.609941 
L 59.011231 45.635474 
L 60.022849 45.965733 
L 61.034467 46.655084 
L 62.046085 47.666958 
L 63.057703 48.646237 
L 64.069321 49.858596 
L 65.080938 51.149748 
L 66.092556 52.374754 
L 67.104174 53.613895 
L 68.115792 54.769571 
L 69.12741 55.835559 
L 70.139028 56.710559 
L 71.150646 57.640079 
L 72.162264 58.570806 
L 73.173882 59.365915 
L 74.1855 60.296989 
L 75.197118 61.116299 
L 76.208736 62.005496 
L 77.220354 63.072246 
L 78.231972 64.103103 
L 79.24359 65.182301 
L 80.255208 66.1274 
L 81.266826 67.008718 
L 82.278444 67.771686 
L 83.290062 68.376508 
L 84.30168 68.675856 
L 85.313298 68.697154 
L 86.324916 68.32828 
L 87.336534 67.536773 
L 88.348152 66.338861 
L 89.35977 64.59994 
L 90.371388 62.323936 
L 91.383006 59.666676 
L 92.394624 56.82781 
L 93.406242 53.713492 
L 94.41786 50.6659 
L 95.429478 47.775349 
L 96.441096 45.435684 
" clip-path="url(#pd32098897c)" style="fill: none; stroke: #a9a9a9; stroke-width: 0.5; stroke-linecap: square"/>
   </g>
   <g id="line2d_13">
    <path d="M 56.987995 21.058599 
L 65.080938 21.058599 
" clip-path="url(#pd32098897c)" style="fill: none; stroke: #000000; stroke-width: 0.5; stroke-linecap: square"/>
   </g>
   <g id="line2d_14">
    <path d="M 56.987995 41.348602 
L 65.080938 41.348602 
" clip-path="url(#pd32098897c)" style="fill: none; stroke-dasharray: 1.85,0.8; stroke-dashoffset: 0; stroke: #000000; stroke-width: 0.5"/>
   </g>
   <g id="line2d_15">
    <path d="M 56.987995 41.348602 
L 56.987995 21.058599 
" clip-path="url(#pd32098897c)" style="fill: none; stroke-dasharray: 1.85,0.8; stroke-dashoffset: 0; stroke: #000000; stroke-width: 0.5"/>
   </g>
   <g id="line2d_16">
    <path d="M 65.080938 41.348602 
L 65.080938 21.058599 
" clip-path="url(#pd32098897c)" style="fill: none; stroke-dasharray: 1.85,0.8; stroke-dashoffset: 0; stroke: #000000; stroke-width: 0.5"/>
   </g>
   <g id="line2d_17">
    <defs>
     <path id="mca17727430" d="M 0 -1.5 
L -0.336771 -0.463525 
L -1.426585 -0.463525 
L -0.544907 0.177051 
L -0.881678 1.213525 
L -0 0.572949 
L 0.881678 1.213525 
L 0.544907 0.177051 
L 1.426585 -0.463525 
L 0.336771 -0.463525 
z
" style="stroke: #000000; stroke-linejoin: bevel"/>
    </defs>
    <g clip-path="url(#pd32098897c)">
     <use xlink:href="#mca17727430" x="61.034467" y="21.058599" style="stroke: #000000; stroke-linejoin: bevel"/>
    </g>
   </g>
   <g id="line2d_18">
    <defs>
     <path id="m7ce4f860bd" d="M -1.5 1.5 
L 1.5 -1.5 
M -1.5 -1.5 
L 1.5 1.5 
" style="stroke: #000000"/>
    </defs>
    <g clip-path="url(#pd32098897c)">
     <use xlink:href="#m7ce4f860bd" x="56.987995" y="41.348602" style="stroke: #000000"/>
    </g>
   </g>
   <g id="patch_3">
    <path d="M 33.720781 72.842326 
L 33.720781 9.28957 
" style="fill: none; stroke: #000000; stroke-width: 0.8; stroke-linejoin: miter; stroke-linecap: square"/>
   </g>
   <g id="patch_4">
    <path d="M 33.720781 72.842326 
L 97.216844 72.842326 
" style="fill: none; stroke: #000000; stroke-width: 0.8; stroke-linejoin: miter; stroke-linecap: square"/>
   </g>
   <g id="legend_1">
    <g id="patch_5">
     <path d="M 75.866844 20.217695 
L 96.216844 20.217695 
Q 97.216844 20.217695 97.216844 19.217695 
L 97.216844 10.28957 
Q 97.216844 9.28957 96.216844 9.28957 
L 75.866844 9.28957 
Q 74.866844 9.28957 74.866844 10.28957 
L 74.866844 19.217695 
Q 74.866844 20.217695 75.866844 20.217695 
L 75.866844 20.217695 
z
" style="fill: none; opacity: 0.8"/>
    </g>
    <g id="line2d_19">
     <path d="M 74.866844 11.338789 
L 77.366844 11.338789 
L 79.866844 11.338789 
" style="fill: none; stroke: #d45b0c; stroke-width: 0.5; stroke-linecap: square"/>
    </g>
    <g id="text_11">
     <text style="font-size: 5px; font-family: 'DejaVu Sans', 'Bitstream Vera Sans', 'Computer Modern Sans Serif', 'Lucida Grande', 'Verdana', 'Geneva', 'Lucid', 'Arial', 'Helvetica', 'Avant Garde', sans-serif; text-anchor: start" x="83.866844" y="13.088789" transform="rotate(-0 83.866844 13.088789)">TE</text>
    </g>
    <g id="line2d_20">
     <path d="M 74.866844 17.427852 
L 77.366844 17.427852 
L 79.866844 17.427852 
" style="fill: none; stroke: #a9a9a9; stroke-width: 0.5; stroke-linecap: square"/>
    </g>
    <g id="text_12">
     <!-- TE$^{surr}$ -->
     <g transform="translate(83.866844 19.177852)">
      <text>
       <tspan x="0" y="-0.128125" style="font-size: 5px; font-family: 'DejaVu Sans'">T</tspan>
       <tspan x="3.054199" y="-0.128125" style="font-size: 5px; font-family: 'DejaVu Sans'">E</tspan>
       <tspan x="6.26123" y="-2.042187" style="font-style: oblique; font-size: 3.5px; font-family: 'DejaVu Sans'">s</tspan>
       <tspan x="8.084717" y="-2.042187" style="font-style: oblique; font-size: 3.5px; font-family: 'DejaVu Sans'">u</tspan>
       <tspan x="10.302979" y="-2.042187" style="font-style: oblique; font-size: 3.5px; font-family: 'DejaVu Sans'">r</tspan>
       <tspan x="11.741943" y="-2.042187" style="font-style: oblique; font-size: 3.5px; font-family: 'DejaVu Sans'">r</tspan>
      </text>
     </g>
    </g>
   </g>
  </g>
  <g id="axes_2">
   <g id="patch_6">
    <path d="M 33.720781 163.154137 
L 97.216844 163.154137 
L 97.216844 99.601381 
L 33.720781 99.601381 
L 33.720781 163.154137 
z
" style="fill: none"/>
   </g>
   <g id="FillBetweenPolyCollection_3">
    <path d="M 32.709163 68.283961 
L 32.709163 42.158823 
L 33.720781 66.679953 
L 34.732399 89.556945 
L 35.744017 109.605296 
L 36.755635 125.99546 
L 37.767253 138.567746 
L 38.778871 147.720865 
L 39.790489 153.538263 
L 40.802107 156.262737 
L 41.813725 154.882961 
L 42.825343 151.525552 
L 43.836961 147.279889 
L 44.848579 142.180181 
L 45.860197 136.615767 
L 46.871815 131.288716 
L 47.883433 126.35117 
L 48.895051 122.372452 
L 49.906669 119.192771 
L 50.918287 116.558678 
L 51.929905 114.395152 
L 52.941523 113.743172 
L 53.953141 114.02981 
L 54.964759 115.967776 
L 55.976377 119.00217 
L 56.987995 122.591618 
L 57.999613 126.447841 
L 59.011231 130.042247 
L 60.022849 134.094698 
L 61.034467 138.369088 
L 62.046085 142.336288 
L 63.057703 145.531088 
L 64.069321 148.308226 
L 65.080938 150.927297 
L 66.092556 153.205361 
L 67.104174 154.957312 
L 68.115792 156.331082 
L 69.12741 157.451529 
L 70.139028 158.325912 
L 71.150646 159.007673 
L 72.162264 159.544812 
L 73.173882 160.000224 
L 74.1855 160.343296 
L 75.197118 160.61085 
L 76.208736 160.763164 
L 77.220354 160.629884 
L 78.231972 160.354161 
L 79.24359 159.931624 
L 80.255208 159.307881 
L 81.266826 158.393344 
L 82.278444 157.298148 
L 83.290062 155.956675 
L 84.30168 154.048408 
L 85.313298 151.722535 
L 86.324916 149.225979 
L 87.336534 146.365754 
L 88.348152 143.173959 
L 89.35977 140.174644 
L 90.371388 136.871091 
L 91.383006 133.748791 
L 92.394624 130.644191 
L 93.406242 128.61216 
L 94.41786 127.588753 
L 95.429478 127.595461 
L 96.441096 127.59538 
L 96.441096 140.922922 
L 96.441096 140.922922 
L 95.429478 139.81441 
L 94.41786 139.521177 
L 93.406242 140.136485 
L 92.394624 141.548025 
L 91.383006 143.820399 
L 90.371388 146.320315 
L 89.35977 149.190028 
L 88.348152 151.875756 
L 87.336534 154.136857 
L 86.324916 156.106973 
L 85.313298 157.676117 
L 84.30168 158.913119 
L 83.290062 160.034272 
L 82.278444 160.767153 
L 81.266826 161.220524 
L 80.255208 161.38246 
L 79.24359 161.448251 
L 78.231972 161.464376 
L 77.220354 161.423378 
L 76.208736 161.382236 
L 75.197118 161.333008 
L 74.1855 161.24896 
L 73.173882 161.13251 
L 72.162264 161.052006 
L 71.150646 160.865644 
L 70.139028 160.596246 
L 69.12741 160.178779 
L 68.115792 159.58028 
L 67.104174 158.819321 
L 66.092556 157.788542 
L 65.080938 156.458831 
L 64.069321 154.840916 
L 63.057703 152.713183 
L 62.046085 149.976277 
L 61.034467 146.911461 
L 60.022849 143.569545 
L 59.011231 140.144324 
L 57.999613 137.161643 
L 56.987995 134.110176 
L 55.976377 130.89901 
L 54.964759 128.439863 
L 53.953141 126.365468 
L 52.941523 125.575013 
L 51.929905 125.698067 
L 50.918287 126.6157 
L 49.906669 128.704267 
L 48.895051 131.891833 
L 47.883433 135.751219 
L 46.871815 139.937984 
L 45.860197 144.351678 
L 44.848579 148.788562 
L 43.836961 152.52796 
L 42.825343 155.455428 
L 41.813725 157.161183 
L 40.802107 157.359887 
L 39.790489 156.364362 
L 38.778871 153.528153 
L 37.767253 147.602575 
L 36.755635 138.22704 
L 35.744017 125.124374 
L 34.732399 108.952032 
L 33.720781 89.229996 
L 32.709163 68.283961 
z
" clip-path="url(#pa7578e779a)" style="fill: #003f5c; fill-opacity: 0.5"/>
   </g>
   <g id="FillBetweenPolyCollection_4">
    <path d="M 32.709163 79.839519 
L 32.709163 51.491606 
L 33.720781 77.378835 
L 34.732399 99.631682 
L 35.744017 118.696608 
L 36.755635 133.66719 
L 37.767253 144.487932 
L 38.778871 151.487247 
L 39.790489 155.735598 
L 40.802107 156.643835 
L 41.813725 154.540014 
L 42.825343 151.25782 
L 43.836961 147.314832 
L 44.848579 143.101259 
L 45.860197 139.274379 
L 46.871815 135.219171 
L 47.883433 131.930437 
L 48.895051 129.260723 
L 49.906669 127.415595 
L 50.918287 126.674665 
L 51.929905 126.120107 
L 52.941523 126.747904 
L 53.953141 128.061779 
L 54.964759 129.543388 
L 55.976377 131.753701 
L 56.987995 134.255029 
L 57.999613 137.074634 
L 59.011231 139.686367 
L 60.022849 142.620387 
L 61.034467 145.448751 
L 62.046085 148.177642 
L 63.057703 150.644334 
L 64.069321 152.745469 
L 65.080938 154.427173 
L 66.092556 155.914384 
L 67.104174 157.039148 
L 68.115792 158.051136 
L 69.12741 158.656494 
L 70.139028 159.26961 
L 71.150646 159.766737 
L 72.162264 160.184514 
L 73.173882 160.430547 
L 74.1855 160.711232 
L 75.197118 160.974565 
L 76.208736 161.121602 
L 77.220354 161.133941 
L 78.231972 161.02691 
L 79.24359 160.77216 
L 80.255208 160.289067 
L 81.266826 159.700293 
L 82.278444 159.054231 
L 83.290062 157.987486 
L 84.30168 156.887878 
L 85.313298 155.223658 
L 86.324916 153.33408 
L 87.336534 151.04251 
L 88.348152 148.869921 
L 89.35977 146.312357 
L 90.371388 143.776131 
L 91.383006 141.47731 
L 92.394624 139.128083 
L 93.406242 137.497182 
L 94.41786 136.649755 
L 95.429478 136.594074 
L 96.441096 137.403713 
L 96.441096 149.507474 
L 96.441096 149.507474 
L 95.429478 148.840403 
L 94.41786 148.430357 
L 93.406242 148.633573 
L 92.394624 149.547492 
L 91.383006 150.751188 
L 90.371388 152.43148 
L 89.35977 153.943945 
L 88.348152 155.621836 
L 87.336534 157.163517 
L 86.324916 158.510676 
L 85.313298 159.56958 
L 84.30168 160.519691 
L 83.290062 161.117573 
L 82.278444 161.607034 
L 81.266826 161.820313 
L 80.255208 161.885881 
L 79.24359 161.884351 
L 78.231972 161.860242 
L 77.220354 161.843901 
L 76.208736 161.782976 
L 75.197118 161.707272 
L 74.1855 161.659229 
L 73.173882 161.600682 
L 72.162264 161.530262 
L 71.150646 161.422083 
L 70.139028 161.261504 
L 69.12741 161.056262 
L 68.115792 160.751811 
L 67.104174 160.304176 
L 66.092556 159.683287 
L 65.080938 158.884394 
L 64.069321 157.84623 
L 63.057703 156.525183 
L 62.046085 155.11677 
L 61.034467 153.370311 
L 60.022849 151.277076 
L 59.011231 149.240051 
L 57.999613 146.818881 
L 56.987995 144.599598 
L 55.976377 142.489488 
L 54.964759 140.730423 
L 53.953141 139.449797 
L 52.941523 137.74202 
L 51.929905 136.629837 
L 50.918287 136.607306 
L 49.906669 136.901676 
L 48.895051 138.745146 
L 47.883433 140.741069 
L 46.871815 143.422936 
L 45.860197 146.223608 
L 44.848579 149.551039 
L 43.836961 152.854524 
L 42.825343 155.505354 
L 41.813725 157.357431 
L 40.802107 158.047763 
L 39.790489 157.777023 
L 38.778871 155.804023 
L 37.767253 151.310874 
L 36.755635 143.683046 
L 35.744017 132.658578 
L 34.732399 118.16169 
L 33.720781 100.047756 
L 32.709163 79.839519 
z
" clip-path="url(#pa7578e779a)" style="fill: #a9a9a9; fill-opacity: 0.5"/>
   </g>
   <g id="matplotlib.axis_3">
    <g id="xtick_4">
     <g id="line2d_21">
      <g>
       <use xlink:href="#ma8045d7314" x="51.929905" y="163.154137" style="stroke: #000000; stroke-width: 0.5"/>
      </g>
     </g>
     <g id="text_13">
      <text style="font-size: 5.5px; font-family: 'DejaVu Sans', 'Bitstream Vera Sans', 'Computer Modern Sans Serif', 'Lucida Grande', 'Verdana', 'Geneva', 'Lucid', 'Arial', 'Helvetica', 'Avant Garde', sans-serif; text-anchor: middle" x="51.929905" y="170.833278" transform="rotate(-0 51.929905 170.833278)">10</text>
     </g>
    </g>
    <g id="xtick_5">
     <g id="line2d_22">
      <g>
       <use xlink:href="#ma8045d7314" x="72.162264" y="163.154137" style="stroke: #000000; stroke-width: 0.5"/>
      </g>
     </g>
     <g id="text_14">
      <text style="font-size: 5.5px; font-family: 'DejaVu Sans', 'Bitstream Vera Sans', 'Computer Modern Sans Serif', 'Lucida Grande', 'Verdana', 'Geneva', 'Lucid', 'Arial', 'Helvetica', 'Avant Garde', sans-serif; text-anchor: middle" x="72.162264" y="170.833278" transform="rotate(-0 72.162264 170.833278)">20</text>
     </g>
    </g>
    <g id="xtick_6">
     <g id="line2d_23">
      <g>
       <use xlink:href="#ma8045d7314" x="92.394624" y="163.154137" style="stroke: #000000; stroke-width: 0.5"/>
      </g>
     </g>
     <g id="text_15">
      <text style="font-size: 5.5px; font-family: 'DejaVu Sans', 'Bitstream Vera Sans', 'Computer Modern Sans Serif', 'Lucida Grande', 'Verdana', 'Geneva', 'Lucid', 'Arial', 'Helvetica', 'Avant Garde', sans-serif; text-anchor: middle" x="92.394624" y="170.833278" transform="rotate(-0 92.394624 170.833278)">30</text>
     </g>
    </g>
    <g id="text_16">
     <!-- $\tau$ (ms) -->
     <g transform="translate(54.268813 181.296012)">
      <text>
       <tspan x="0" y="-0.6875" style="font-style: oblique; font-size: 7px; font-family: 'DejaVu Sans'">τ</tspan>
       <tspan x="4.214355" y="-0.6875" style="font-size: 7px; font-family: 'DejaVu Sans'"> </tspan>
       <tspan x="6.439453" y="-0.6875" style="font-size: 7px; font-family: 'DejaVu Sans'">(</tspan>
       <tspan x="9.17041" y="-0.6875" style="font-size: 7px; font-family: 'DejaVu Sans'">m</tspan>
       <tspan x="15.989258" y="-0.6875" style="font-size: 7px; font-family: 'DejaVu Sans'">s</tspan>
       <tspan x="19.63623" y="-0.6875" style="font-size: 7px; font-family: 'DejaVu Sans'">)</tspan>
      </text>
     </g>
    </g>
   </g>
   <g id="matplotlib.axis_4">
    <g id="ytick_6">
     <g id="line2d_24">
      <g>
       <use xlink:href="#m1364810252" x="33.720781" y="162.369535" style="stroke: #000000; stroke-width: 0.5"/>
      </g>
     </g>
     <g id="text_17">
      <text style="font-size: 5.5px; font-family: 'DejaVu Sans', 'Bitstream Vera Sans', 'Computer Modern Sans Serif', 'Lucida Grande', 'Verdana', 'Geneva', 'Lucid', 'Arial', 'Helvetica', 'Avant Garde', sans-serif; text-anchor: end" x="30.220781" y="164.459106" transform="rotate(-0 30.220781 164.459106)">0.00</text>
     </g>
    </g>
    <g id="ytick_7">
     <g id="line2d_25">
      <g>
       <use xlink:href="#m1364810252" x="33.720781" y="146.677497" style="stroke: #000000; stroke-width: 0.5"/>
      </g>
     </g>
     <g id="text_18">
      <text style="font-size: 5.5px; font-family: 'DejaVu Sans', 'Bitstream Vera Sans', 'Computer Modern Sans Serif', 'Lucida Grande', 'Verdana', 'Geneva', 'Lucid', 'Arial', 'Helvetica', 'Avant Garde', sans-serif; text-anchor: end" x="30.220781" y="148.767067" transform="rotate(-0 30.220781 148.767067)">0.02</text>
     </g>
    </g>
    <g id="ytick_8">
     <g id="line2d_26">
      <g>
       <use xlink:href="#m1364810252" x="33.720781" y="130.985458" style="stroke: #000000; stroke-width: 0.5"/>
      </g>
     </g>
     <g id="text_19">
      <text style="font-size: 5.5px; font-family: 'DejaVu Sans', 'Bitstream Vera Sans', 'Computer Modern Sans Serif', 'Lucida Grande', 'Verdana', 'Geneva', 'Lucid', 'Arial', 'Helvetica', 'Avant Garde', sans-serif; text-anchor: end" x="30.220781" y="133.075029" transform="rotate(-0 30.220781 133.075029)">0.04</text>
     </g>
    </g>
    <g id="ytick_9">
     <g id="line2d_27">
      <g>
       <use xlink:href="#m1364810252" x="33.720781" y="115.29342" style="stroke: #000000; stroke-width: 0.5"/>
      </g>
     </g>
     <g id="text_20">
      <text style="font-size: 5.5px; font-family: 'DejaVu Sans', 'Bitstream Vera Sans', 'Computer Modern Sans Serif', 'Lucida Grande', 'Verdana', 'Geneva', 'Lucid', 'Arial', 'Helvetica', 'Avant Garde', sans-serif; text-anchor: end" x="30.220781" y="117.38299" transform="rotate(-0 30.220781 117.38299)">0.06</text>
     </g>
    </g>
    <g id="ytick_10">
     <g id="line2d_28">
      <g>
       <use xlink:href="#m1364810252" x="33.720781" y="99.601381" style="stroke: #000000; stroke-width: 0.5"/>
      </g>
     </g>
     <g id="text_21">
      <text style="font-size: 5.5px; font-family: 'DejaVu Sans', 'Bitstream Vera Sans', 'Computer Modern Sans Serif', 'Lucida Grande', 'Verdana', 'Geneva', 'Lucid', 'Arial', 'Helvetica', 'Avant Garde', sans-serif; text-anchor: end" x="30.220781" y="101.690952" transform="rotate(-0 30.220781 101.690952)">0.08</text>
     </g>
    </g>
    <g id="text_22">
     <!-- $TE_{S \rightarrow F}$ (bits) -->
     <g transform="translate(12.518906 152.062759) rotate(-90)">
      <text>
       <tspan x="0" y="-0.6875" style="font-style: oblique; font-size: 7px; font-family: 'DejaVu Sans'">T</tspan>
       <tspan x="4.275879" y="-0.6875" style="font-style: oblique; font-size: 7px; font-family: 'DejaVu Sans'">E</tspan>
       <tspan x="8.69873" y="0.460938" style="font-style: oblique; font-size: 4.9px; font-family: 'DejaVu Sans'">S</tspan>
       <tspan x="17.824023" y="0.460938" style="font-style: oblique; font-size: 4.9px; font-family: 'DejaVu Sans'">F</tspan>
       <tspan x="12.763721" y="0.460938" style="font-size: 4.9px; font-family: 'DejaVu Sans'">→</tspan>
       <tspan x="20.833887" y="-0.6875" style="font-size: 7px; font-family: 'DejaVu Sans'"> </tspan>
       <tspan x="23.058984" y="-0.6875" style="font-size: 7px; font-family: 'DejaVu Sans'">(</tspan>
       <tspan x="25.789941" y="-0.6875" style="font-size: 7px; font-family: 'DejaVu Sans'">b</tspan>
       <tspan x="30.233301" y="-0.6875" style="font-size: 7px; font-family: 'DejaVu Sans'">i</tspan>
       <tspan x="32.178125" y="-0.6875" style="font-size: 7px; font-family: 'DejaVu Sans'">t</tspan>
       <tspan x="34.922754" y="-0.6875" style="font-size: 7px; font-family: 'DejaVu Sans'">s</tspan>
       <tspan x="38.569727" y="-0.6875" style="font-size: 7px; font-family: 'DejaVu Sans'">)</tspan>
      </text>
     </g>
    </g>
   </g>
   <g id="line2d_29"/>
   <g id="line2d_30"/>
   <g id="line2d_31">
    <path d="M 32.709163 57.005781 
L 33.720781 79.874397 
L 34.732399 100.933811 
L 35.744017 118.554705 
L 36.755635 133.075845 
L 37.767253 143.868763 
L 38.778871 151.150908 
L 39.790489 155.371303 
L 40.802107 156.868334 
L 41.813725 156.249812 
L 42.825343 153.787213 
L 43.836961 150.09239 
L 44.848579 145.518364 
L 45.860197 140.445576 
L 46.871815 135.557435 
L 47.883433 130.866117 
L 48.895051 126.818456 
L 49.906669 123.791827 
L 50.918287 121.555687 
L 51.929905 120.308816 
L 52.941523 120.267326 
L 53.953141 121.340958 
L 54.964759 122.89997 
L 55.976377 125.536875 
L 56.987995 128.352252 
L 57.999613 131.884414 
L 59.011231 135.5911 
L 60.022849 139.377368 
L 61.034467 142.997707 
L 62.046085 146.289847 
L 63.057703 149.256782 
L 64.069321 151.915107 
L 65.080938 154.137995 
L 66.092556 155.981268 
L 67.104174 157.370674 
L 68.115792 158.532119 
L 69.12741 159.31495 
L 70.139028 159.8835 
L 71.150646 160.293592 
L 72.162264 160.595621 
L 73.173882 160.818955 
L 74.1855 160.976241 
L 75.197118 161.089427 
L 76.208736 161.158533 
L 77.220354 161.171938 
L 78.231972 161.121913 
L 79.24359 160.928602 
L 80.255208 160.616164 
L 81.266826 160.065326 
L 82.278444 159.280768 
L 83.290062 158.214774 
L 84.30168 156.742722 
L 85.313298 154.894913 
L 86.324916 152.710182 
L 87.336534 150.202654 
L 88.348152 147.429965 
L 89.35977 144.550261 
L 90.371388 141.812831 
L 91.383006 138.948509 
L 92.394624 136.63289 
L 93.406242 135.134941 
L 94.41786 134.498272 
L 95.429478 134.856363 
L 96.441096 136.020437 
" clip-path="url(#pa7578e779a)" style="fill: none; stroke: #003f5c; stroke-width: 0.5; stroke-linecap: square"/>
   </g>
   <g id="line2d_32">
    <path d="M 32.709163 65.213153 
L 33.720781 88.696115 
L 34.732399 109.112836 
L 35.744017 125.999569 
L 36.755635 139.168647 
L 37.767253 148.340808 
L 38.778871 154.090599 
L 39.790489 156.967701 
L 40.802107 157.440119 
L 41.813725 156.205618 
L 42.825343 153.655398 
L 43.836961 150.309785 
L 44.848579 146.657887 
L 45.860197 142.938719 
L 46.871815 139.528684 
L 47.883433 136.693796 
L 48.895051 134.446354 
L 49.906669 132.799865 
L 50.918287 132.147081 
L 51.929905 132.086809 
L 52.941523 132.647396 
L 53.953141 133.712767 
L 54.964759 135.402342 
L 55.976377 137.544892 
L 56.987995 139.833287 
L 57.999613 142.291235 
L 59.011231 144.786399 
L 60.022849 147.475517 
L 61.034467 149.948121 
L 62.046085 152.132462 
L 63.057703 154.066116 
L 64.069321 155.682557 
L 65.080938 157.042379 
L 66.092556 158.124494 
L 67.104174 159.017396 
L 68.115792 159.732867 
L 69.12741 160.253973 
L 70.139028 160.651704 
L 71.150646 160.928374 
L 72.162264 161.133882 
L 73.173882 161.284459 
L 74.1855 161.40139 
L 75.197118 161.493704 
L 76.208736 161.56339 
L 77.220354 161.620728 
L 78.231972 161.640171 
L 79.24359 161.595596 
L 80.255208 161.423818 
L 81.266826 161.114235 
L 82.278444 160.659736 
L 83.290062 159.987489 
L 84.30168 159.039667 
L 85.313298 157.892255 
L 86.324916 156.262614 
L 87.336534 154.391688 
L 88.348152 152.521835 
L 89.35977 150.605005 
L 90.371388 148.701665 
L 91.383006 146.794541 
L 92.394624 145.345127 
L 93.406242 144.149023 
L 94.41786 143.530195 
L 95.429478 143.663289 
L 96.441096 144.276784 
" clip-path="url(#pa7578e779a)" style="fill: none; stroke: #a9a9a9; stroke-width: 0.5; stroke-linecap: square"/>
   </g>
   <g id="line2d_33">
    <path d="M 47.883433 111.37041 
L 57.999613 111.37041 
" clip-path="url(#pa7578e779a)" style="fill: none; stroke: #000000; stroke-width: 0.5; stroke-linecap: square"/>
   </g>
   <g id="line2d_34">
    <path d="M 47.883433 130.866117 
L 57.999613 130.866117 
" clip-path="url(#pa7578e779a)" style="fill: none; stroke-dasharray: 1.85,0.8; stroke-dashoffset: 0; stroke: #000000; stroke-width: 0.5"/>
   </g>
   <g id="line2d_35">
    <path d="M 47.883433 130.866117 
L 47.883433 111.37041 
" clip-path="url(#pa7578e779a)" style="fill: none; stroke-dasharray: 1.85,0.8; stroke-dashoffset: 0; stroke: #000000; stroke-width: 0.5"/>
   </g>
   <g id="line2d_36">
    <path d="M 57.999613 130.866117 
L 57.999613 111.37041 
" clip-path="url(#pa7578e779a)" style="fill: none; stroke-dasharray: 1.85,0.8; stroke-dashoffset: 0; stroke: #000000; stroke-width: 0.5"/>
   </g>
   <g id="line2d_37">
    <g clip-path="url(#pa7578e779a)">
     <use xlink:href="#mca17727430" x="52.941523" y="111.37041" style="stroke: #000000; stroke-linejoin: bevel"/>
    </g>
   </g>
   <g id="line2d_38">
    <g clip-path="url(#pa7578e779a)">
     <use xlink:href="#m7ce4f860bd" x="47.883433" y="130.866117" style="stroke: #000000"/>
    </g>
   </g>
   <g id="line2d_39">
    <path d="M 92.394624 111.37041 
L 96.441096 111.37041 
" clip-path="url(#pa7578e779a)" style="fill: none; stroke: #000000; stroke-width: 0.5; stroke-linecap: square"/>
   </g>
   <g id="line2d_40">
    <path d="M 92.394624 136.020437 
L 96.441096 136.020437 
" clip-path="url(#pa7578e779a)" style="fill: none; stroke-dasharray: 1.85,0.8; stroke-dashoffset: 0; stroke: #000000; stroke-width: 0.5"/>
   </g>
   <g id="line2d_41">
    <path d="M 92.394624 136.020437 
L 92.394624 111.37041 
" clip-path="url(#pa7578e779a)" style="fill: none; stroke-dasharray: 1.85,0.8; stroke-dashoffset: 0; stroke: #000000; stroke-width: 0.5"/>
   </g>
   <g id="line2d_42">
    <path d="M 96.441096 136.020437 
L 96.441096 111.37041 
" clip-path="url(#pa7578e779a)" style="fill: none; stroke-dasharray: 1.85,0.8; stroke-dashoffset: 0; stroke: #000000; stroke-width: 0.5"/>
   </g>
   <g id="line2d_43">
    <g clip-path="url(#pa7578e779a)">
     <use xlink:href="#mca17727430" x="94.41786" y="111.37041" style="stroke: #000000; stroke-linejoin: bevel"/>
    </g>
   </g>
   <g id="line2d_44">
    <g clip-path="url(#pa7578e779a)">
     <use xlink:href="#m7ce4f860bd" x="96.441096" y="136.020437" style="stroke: #000000"/>
    </g>
   </g>
   <g id="patch_7">
    <path d="M 33.720781 163.154137 
L 33.720781 99.601381 
" style="fill: none; stroke: #000000; stroke-width: 0.8; stroke-linejoin: miter; stroke-linecap: square"/>
   </g>
   <g id="patch_8">
    <path d="M 33.720781 163.154137 
L 97.216844 163.154137 
" style="fill: none; stroke: #000000; stroke-width: 0.8; stroke-linejoin: miter; stroke-linecap: square"/>
   </g>
   <g id="legend_2">
    <g id="patch_9">
     <path d="M 75.866844 110.529506 
L 96.216844 110.529506 
Q 97.216844 110.529506 97.216844 109.529506 
L 97.216844 100.601381 
Q 97.216844 99.601381 96.216844 99.601381 
L 75.866844 99.601381 
Q 74.866844 99.601381 74.866844 100.601381 
L 74.866844 109.529506 
Q 74.866844 110.529506 75.866844 110.529506 
L 75.866844 110.529506 
z
" style="fill: none; opacity: 0.8"/>
    </g>
    <g id="line2d_45">
     <path d="M 74.866844 101.6506 
L 77.366844 101.6506 
L 79.866844 101.6506 
" style="fill: none; stroke: #003f5c; stroke-width: 0.5; stroke-linecap: square"/>
    </g>
    <g id="text_23">
     <text style="font-size: 5px; font-family: 'DejaVu Sans', 'Bitstream Vera Sans', 'Computer Modern Sans Serif', 'Lucida Grande', 'Verdana', 'Geneva', 'Lucid', 'Arial', 'Helvetica', 'Avant Garde', sans-serif; text-anchor: start" x="83.866844" y="103.4006" transform="rotate(-0 83.866844 103.4006)">TE</text>
    </g>
    <g id="line2d_46">
     <path d="M 74.866844 107.739663 
L 77.366844 107.739663 
L 79.866844 107.739663 
" style="fill: none; stroke: #a9a9a9; stroke-width: 0.5; stroke-linecap: square"/>
    </g>
    <g id="text_24">
     <!-- TE$^{surr}$ -->
     <g transform="translate(83.866844 109.489663)">
      <text>
       <tspan x="0" y="-0.128125" style="font-size: 5px; font-family: 'DejaVu Sans'">T</tspan>
       <tspan x="3.054199" y="-0.128125" style="font-size: 5px; font-family: 'DejaVu Sans'">E</tspan>
       <tspan x="6.26123" y="-2.042187" style="font-style: oblique; font-size: 3.5px; font-family: 'DejaVu Sans'">s</tspan>
       <tspan x="8.084717" y="-2.042187" style="font-style: oblique; font-size: 3.5px; font-family: 'DejaVu Sans'">u</tspan>
       <tspan x="10.302979" y="-2.042187" style="font-style: oblique; font-size: 3.5px; font-family: 'DejaVu Sans'">r</tspan>
       <tspan x="11.741943" y="-2.042187" style="font-style: oblique; font-size: 3.5px; font-family: 'DejaVu Sans'">r</tspan>
      </text>
     </g>
    </g>
   </g>
  </g>
  <g id="axes_3">
   <g id="patch_10">
    <path d="M 27.64551 242.595082 
L 31.491658 241.201381 
L 31.491658 242.246657 
L 103.108744 242.246657 
L 103.108744 242.943507 
L 31.491658 242.943507 
L 31.491658 243.988783 
z
" clip-path="url(#p61e9de4475)" style="stroke: #000000; stroke-linejoin: miter"/>
   </g>
   <g id="patch_11">
    <path d="M 27.64551 200.784059 
L 31.491658 199.390358 
L 31.491658 200.435633 
L 103.108744 200.435633 
L 103.108744 201.132484 
L 31.491658 201.132484 
L 31.491658 202.177759 
z
" clip-path="url(#p61e9de4475)" style="stroke: #000000; stroke-linejoin: miter"/>
   </g>
   <g id="patch_12">
    <path d="M 34.605445 242.595082 
L 36.654313 237.120943 
L 37.520032 237.42419 
L 62.057165 200.632435 
L 62.922884 200.935682 
L 38.385751 237.727438 
L 39.25147 238.030685 
z
" clip-path="url(#p61e9de4475)" style="fill: #676767; stroke: #000000; stroke-width: 0.2; stroke-linejoin: miter"/>
   </g>
   <g id="patch_13">
    <path d="M 34.605445 200.784059 
L 38.507931 205.700576 
L 37.600376 205.930781 
L 55.251504 242.47998 
L 54.343949 242.710185 
L 36.692821 206.160985 
L 35.785266 206.39119 
z
" clip-path="url(#p61e9de4475)" style="fill: #676767; stroke: #000000; stroke-width: 0.2; stroke-linejoin: miter"/>
   </g>
   <g id="patch_14">
    <path d="M 34.605445 200.784059 
L 41.136157 203.909759 
L 40.467483 204.410517 
L 94.555089 242.344703 
L 93.886416 242.845461 
L 39.79881 204.911275 
L 39.130136 205.412033 
z
" clip-path="url(#p61e9de4475)" style="fill: #676767; stroke: #000000; stroke-width: 0.2; stroke-linejoin: miter"/>
   </g>
   <g id="patch_15">
    <path d="M 58.643875 197.996657 
L 58.643875 203.57146 
L 66.336173 203.57146 
L 66.336173 197.996657 
z
" clip-path="url(#p61e9de4475)" style="fill: #676767; stroke: #676767; stroke-width: 0.5; stroke-linejoin: miter"/>
   </g>
   <g id="patch_16">
    <path d="M 49.99004 239.807681 
L 49.99004 245.382484 
L 59.605412 245.382484 
L 59.605412 239.807681 
z
" clip-path="url(#p61e9de4475)" style="fill: #676767; stroke: #676767; stroke-width: 0.5; stroke-linejoin: miter"/>
   </g>
   <g id="patch_17">
    <path d="M 92.297678 239.807681 
L 92.297678 245.382484 
L 96.143827 245.382484 
L 96.143827 239.807681 
z
" clip-path="url(#p61e9de4475)" style="fill: #676767; stroke: #676767; stroke-width: 0.5; stroke-linejoin: miter"/>
   </g>
   <g id="LineCollection_1">
    <path d="M 34.605445 245.382484 
L 34.605445 239.807681 
" clip-path="url(#p61e9de4475)" style="fill: none; stroke: #000000; stroke-width: 0.5"/>
   </g>
   <g id="LineCollection_2">
    <path d="M 34.605445 203.57146 
L 34.605445 197.996657 
" clip-path="url(#p61e9de4475)" style="fill: none; stroke: #000000; stroke-width: 0.5"/>
   </g>
   <g id="LineCollection_3">
    <path d="M 96.881171 245.382484 
L 96.881171 239.807681 
" clip-path="url(#p61e9de4475)" style="fill: none; stroke: #000000; stroke-width: 0.5"/>
   </g>
   <g id="LineCollection_4">
    <path d="M 96.881171 203.57146 
L 96.881171 197.996657 
" clip-path="url(#p61e9de4475)" style="fill: none; stroke: #000000; stroke-width: 0.5"/>
   </g>
   <g id="text_25">
    <!-- $\tau=0$ -->
    <g transform="translate(29.665445 197.164782)">
     <text>
      <tspan x="0" y="-0.03125" style="font-style: oblique; font-size: 4px; font-family: 'DejaVu Sans'">τ</tspan>
      <tspan x="3.1875" y="-0.03125" style="font-size: 4px; font-family: 'DejaVu Sans'">=</tspan>
      <tspan x="7.318359" y="-0.03125" style="font-size: 4px; font-family: 'DejaVu Sans'">0</tspan>
     </text>
    </g>
   </g>
   <g id="text_26">
    <!-- $\tau=T_{s}$ -->
    <g transform="translate(91.201171 197.164782)">
     <text>
      <tspan x="0" y="-0.078125" style="font-style: oblique; font-size: 4px; font-family: 'DejaVu Sans'">τ</tspan>
      <tspan x="7.318359" y="-0.078125" style="font-style: oblique; font-size: 4px; font-family: 'DejaVu Sans'">T</tspan>
      <tspan x="3.1875" y="-0.078125" style="font-size: 4px; font-family: 'DejaVu Sans'">=</tspan>
      <tspan x="9.761719" y="0.578125" style="font-style: oblique; font-size: 2.8px; font-family: 'DejaVu Sans'">s</tspan>
     </text>
    </g>
   </g>
  </g>
  <g id="axes_4">
   <g id="patch_18">
    <path d="M 59.80985 279.556027 
L 59.80985 271.52831 
L 67.180193 271.52831 
L 67.180193 279.556027 
L 63.495021 283.569885 
z
" clip-path="url(#pcc65f96095)" style="fill: #676767"/>
   </g>
   <g id="patch_19">
    <path d="M 51.518215 287.583744 
L 51.518215 295.61146 
L 60.731143 295.61146 
L 60.731143 287.583744 
L 56.124679 283.569885 
z
" clip-path="url(#pcc65f96095)" style="fill: #676767"/>
   </g>
   <g id="patch_20">
    <path d="M 92.0551 287.583744 
L 92.0551 295.61146 
L 95.740271 295.61146 
L 95.740271 287.583744 
L 93.897685 283.569885 
z
" clip-path="url(#pcc65f96095)" style="fill: #676767"/>
   </g>
   <g id="patch_21">
    <path d="M 33.241292 291.597602 
L 36.316883 287.583744 
L 96.446755 287.583744 
L 96.446755 295.61146 
L 36.316883 295.61146 
L 33.241292 291.597602 
z
" clip-path="url(#pcc65f96095)" style="fill: none; stroke: #000000; stroke-linejoin: miter"/>
   </g>
   <g id="patch_22">
    <path d="M 33.241292 275.542169 
L 36.316883 271.52831 
L 96.446755 271.52831 
L 96.446755 279.556027 
L 36.316883 279.556027 
L 33.241292 275.542169 
z
" clip-path="url(#pcc65f96095)" style="fill: none; stroke: #000000; stroke-linejoin: miter"/>
   </g>
   <g id="line2d_47">
    <path d="M 36.777529 295.61146 
L 36.777529 287.583744 
" clip-path="url(#pcc65f96095)" style="fill: none; stroke: #000000; stroke-linecap: square"/>
   </g>
   <g id="line2d_48">
    <path d="M 36.777529 279.556027 
L 36.777529 271.52831 
" clip-path="url(#pcc65f96095)" style="fill: none; stroke: #000000; stroke-linecap: square"/>
   </g>
   <g id="text_27">
    <text style="font-size: 4px; font-family: 'DejaVu Sans', 'Bitstream Vera Sans', 'Computer Modern Sans Serif', 'Lucida Grande', 'Verdana', 'Geneva', 'Lucid', 'Arial', 'Helvetica', 'Avant Garde', sans-serif; text-anchor: end" x="91.84029" y="276.645919" transform="rotate(-0 91.84029 276.645919)">F</text>
   </g>
   <g id="text_28">
    <text style="font-size: 4px; font-family: 'DejaVu Sans', 'Bitstream Vera Sans', 'Computer Modern Sans Serif', 'Lucida Grande', 'Verdana', 'Geneva', 'Lucid', 'Arial', 'Helvetica', 'Avant Garde', sans-serif; text-anchor: end" x="91.84029" y="292.701352" transform="rotate(-0 91.84029 292.701352)">S</text>
   </g>
  </g>
 </g>
 <defs>
  <clipPath id="pd32098897c">
   <rect x="33.720781" y="9.28957" width="63.496063" height="63.552756"/>
  </clipPath>
  <clipPath id="pa7578e779a">
   <rect x="33.720781" y="99.601381" width="63.496063" height="63.552756"/>
  </clipPath>
  <clipPath id="p61e9de4475">
   <rect x="24.990073" y="196.602956" width="73.814173" height="50.173228"/>
  </clipPath>
  <clipPath id="pcc65f96095">
   <rect x="24.990073" y="263.500594" width="73.814173" height="40.138583"/>
  </clipPath>
 </defs>
</svg>
