<?xml version="1.0" encoding="utf-8" standalone="no"?>
<!DOCTYPE svg PUBLIC "-//W3C//DTD SVG 1.1//EN"
  "http://www.w3.org/Graphics/SVG/1.1/DTD/svg11.dtd">
<svg xmlns:xlink="http://www.w3.org/1999/xlink" width="109.761171pt" height="310.839177pt" viewBox="0 0 109.761171 310.839177" xmlns="http://www.w3.org/2000/svg" version="1.1">
 <metadata>
  <rdf:RDF xmlns:dc="http://purl.org/dc/elements/1.1/" xmlns:cc="http://creativecommons.org/ns#" xmlns:rdf="http://www.w3.org/1999/02/22-rdf-syntax-ns#">
   <cc:Work>
    <dc:type rdf:resource="http://purl.org/dc/dcmitype/StillImage"/>
    <dc:date>2026-04-21T11:59:06.331104</dc:date>
    <dc:format>image/svg+xml</dc:format>
    <dc:creator>
     <cc:Agent>
      <dc:title>Matplotlib v3.10.7, https://matplotlib.org/</dc:title>
     </cc:Agent>
    </dc:creator>
   </cc:Work>
  </rdf:RDF>
 </metadata>
 <defs>
  <style type="text/css">*{stroke-linejoin: round; stroke-linecap: butt}</style>
 </defs>
 <g id="figure_1">
  <g id="patch_1">
   <path d="M -0 310.839177 
L 109.761171 310.839177 
L 109.761171 0 
L -0 0 
L -0 310.839177 
z
" style="fill: none"/>
  </g>
  <g id="axes_1">
   <g id="patch_2">
    <path d="M 33.720781 72.842326 
L 97.216844 72.842326 
L 97.216844 9.28957 
L 33.720781 9.28957 
L 33.720781 72.842326 
z
" style="fill: none"/>
   </g>
   <g id="FillBetweenPolyCollection_1">
    <path d="M 32.709163 -29.439072 
L 32.709163 -53.322512 
L 33.720781 -73.607441 
L 34.732399 -89.584821 
L 35.744017 -95.573034 
L 36.755635 -94.439772 
L 37.767253 -84.1933 
L 38.778871 -69.047652 
L 39.790489 -46.998344 
L 40.802107 -24.532755 
L 41.813725 -2.889319 
L 42.825343 16.88238 
L 43.836961 33.782745 
L 44.848579 46.905485 
L 45.860197 56.128486 
L 46.871815 61.646913 
L 47.883433 63.226858 
L 48.895051 61.461945 
L 49.906669 57.728342 
L 50.918287 53.030532 
L 51.929905 47.831458 
L 52.941523 42.652392 
L 53.953141 38.077061 
L 54.964759 34.447522 
L 55.976377 31.938498 
L 56.987995 29.995313 
L 57.999613 29.285409 
L 59.011231 30.201757 
L 60.022849 32.022822 
L 61.034467 34.239147 
L 62.046085 37.435034 
L 63.057703 41.181558 
L 64.069321 44.524819 
L 65.080938 47.969748 
L 66.092556 51.323057 
L 67.104174 54.020663 
L 68.115792 56.522195 
L 69.12741 58.503347 
L 70.139028 60.193386 
L 71.150646 61.620037 
L 72.162264 62.785656 
L 73.173882 63.616846 
L 74.1855 64.300333 
L 75.197118 64.924534 
L 76.208736 65.524921 
L 77.220354 65.934403 
L 78.231972 66.315339 
L 79.24359 66.687649 
L 80.255208 67.072127 
L 81.266826 67.40399 
L 82.278444 67.726087 
L 83.290062 68.092061 
L 84.30168 68.47345 
L 85.313298 68.623106 
L 86.324916 68.633764 
L 87.336534 68.430554 
L 88.348152 68.011315 
L 89.35977 67.314861 
L 90.371388 66.415395 
L 91.383006 65.329737 
L 92.394624 64.071491 
L 93.406242 62.67462 
L 94.41786 60.906212 
L 95.429478 59.027335 
L 96.441096 57.505308 
L 96.441096 66.039171 
L 96.441096 66.039171 
L 95.429478 67.009929 
L 94.41786 67.875509 
L 93.406242 68.64339 
L 92.394624 69.225057 
L 91.383006 69.651476 
L 90.371388 69.890906 
L 89.35977 69.993571 
L 88.348152 69.972504 
L 87.336534 69.92159 
L 86.324916 69.796021 
L 85.313298 69.649945 
L 84.30168 69.502582 
L 83.290062 69.33075 
L 82.278444 69.172729 
L 81.266826 69.051661 
L 80.255208 68.940398 
L 79.24359 68.816417 
L 78.231972 68.679264 
L 77.220354 68.515551 
L 76.208736 68.391319 
L 75.197118 68.290763 
L 74.1855 68.126208 
L 73.173882 67.837879 
L 72.162264 67.453496 
L 71.150646 66.82674 
L 70.139028 65.823991 
L 69.12741 64.645972 
L 68.115792 63.109668 
L 67.104174 60.966535 
L 66.092556 58.461441 
L 65.080938 56.126389 
L 64.069321 53.54505 
L 63.057703 50.489002 
L 62.046085 47.727375 
L 61.034467 45.06376 
L 60.022849 42.627143 
L 59.011231 40.477325 
L 57.999613 39.46154 
L 56.987995 40.291936 
L 55.976377 42.165236 
L 54.964759 44.530228 
L 53.953141 47.565596 
L 52.941523 51.016527 
L 51.929905 54.883947 
L 50.918287 58.779667 
L 49.906669 62.019278 
L 48.895051 64.380659 
L 47.883433 65.122696 
L 46.871815 64.205937 
L 45.860197 61.145845 
L 44.848579 55.0392 
L 43.836961 45.119991 
L 42.825343 31.837644 
L 41.813725 15.320391 
L 40.802107 -3.897241 
L 39.790489 -23.575218 
L 38.778871 -42.411133 
L 37.767253 -58.376509 
L 36.755635 -68.80175 
L 35.744017 -70.129624 
L 34.732399 -62.39158 
L 33.720781 -49.113483 
L 32.709163 -29.439072 
z
" clip-path="url(#p35f1e5575c)" style="fill: #d45b0c; fill-opacity: 0.5"/>
   </g>
   <g id="FillBetweenPolyCollection_2">
    <path d="M 32.709163 -25.757927 
L 32.709163 -48.949504 
L 33.720781 -70.298292 
L 34.732399 -85.530991 
L 35.744017 -92.987246 
L 36.755635 -93.349861 
L 37.767253 -84.761689 
L 38.778871 -68.211731 
L 39.790489 -46.222151 
L 40.802107 -23.071217 
L 41.813725 -0.655019 
L 42.825343 19.900043 
L 43.836961 36.954882 
L 44.848579 49.543853 
L 45.860197 58.511367 
L 46.871815 63.713185 
L 47.883433 65.316339 
L 48.895051 63.578528 
L 49.906669 60.351678 
L 50.918287 56.418693 
L 51.929905 52.351999 
L 52.941523 48.103839 
L 53.953141 44.211377 
L 54.964759 41.281555 
L 55.976377 39.266479 
L 56.987995 37.880384 
L 57.999613 37.801203 
L 59.011231 39.051818 
L 60.022849 41.302449 
L 61.034467 43.230073 
L 62.046085 45.545515 
L 63.057703 48.103993 
L 64.069321 51.166519 
L 65.080938 53.908616 
L 66.092556 56.315383 
L 67.104174 58.294176 
L 68.115792 60.122369 
L 69.12741 61.698757 
L 70.139028 62.886041 
L 71.150646 63.944992 
L 72.162264 64.754165 
L 73.173882 65.564271 
L 74.1855 66.180082 
L 75.197118 66.786759 
L 76.208736 67.297481 
L 77.220354 67.576283 
L 78.231972 67.834924 
L 79.24359 68.119833 
L 80.255208 68.397458 
L 81.266826 68.787015 
L 82.278444 69.072244 
L 83.290062 69.390105 
L 84.30168 69.667025 
L 85.313298 69.909 
L 86.324916 69.940863 
L 87.336534 69.693944 
L 88.348152 69.311799 
L 89.35977 68.681775 
L 90.371388 67.795195 
L 91.383006 66.802322 
L 92.394624 65.462931 
L 93.406242 63.80796 
L 94.41786 62.196444 
L 95.429478 60.569823 
L 96.441096 59.220143 
L 96.441096 66.525773 
L 96.441096 66.525773 
L 95.429478 67.241326 
L 94.41786 68.139784 
L 93.406242 68.876813 
L 92.394624 69.717388 
L 91.383006 70.185234 
L 90.371388 70.600239 
L 89.35977 70.744869 
L 88.348152 70.78998 
L 87.336534 70.766021 
L 86.324916 70.695513 
L 85.313298 70.618817 
L 84.30168 70.488599 
L 83.290062 70.40256 
L 82.278444 70.292967 
L 81.266826 70.203 
L 80.255208 70.069848 
L 79.24359 69.95006 
L 78.231972 69.854689 
L 77.220354 69.732143 
L 76.208736 69.592178 
L 75.197118 69.431755 
L 74.1855 69.225094 
L 73.173882 68.897241 
L 72.162264 68.453357 
L 71.150646 67.914071 
L 70.139028 67.21231 
L 69.12741 66.315091 
L 68.115792 65.09875 
L 67.104174 63.617319 
L 66.092556 61.953029 
L 65.080938 60.031267 
L 64.069321 57.98605 
L 63.057703 55.566983 
L 62.046085 53.243511 
L 61.034467 51.096477 
L 60.022849 49.424017 
L 59.011231 48.231348 
L 57.999613 47.669883 
L 56.987995 48.011379 
L 55.976377 48.842729 
L 54.964759 50.360082 
L 53.953141 52.580782 
L 52.941523 55.359653 
L 51.929905 58.514573 
L 50.918287 61.866326 
L 49.906669 64.500745 
L 48.895051 66.368069 
L 47.883433 67.04466 
L 46.871815 66.261197 
L 45.860197 63.511559 
L 44.848579 57.518375 
L 43.836961 48.001536 
L 42.825343 34.619414 
L 41.813725 18.74038 
L 40.802107 -0.615848 
L 39.790489 -19.877023 
L 38.778871 -38.101341 
L 37.767253 -52.472393 
L 36.755635 -61.733144 
L 35.744017 -63.363573 
L 34.732399 -58.927537 
L 33.720781 -45.067752 
L 32.709163 -25.757927 
z
" clip-path="url(#p35f1e5575c)" style="fill: #a9a9a9; fill-opacity: 0.5"/>
   </g>
   <g id="matplotlib.axis_1">
    <g id="xtick_1">
     <g id="line2d_1">
      <defs>
       <path id="m0c13260ae3" d="M 0 0 
L 0 -3 
" style="stroke: #000000; stroke-width: 0.5"/>
      </defs>
      <g>
       <use xlink:href="#m0c13260ae3" x="51.929905" y="72.842326" style="stroke: #000000; stroke-width: 0.5"/>
      </g>
     </g>
     <g id="text_1">
      <text style="font-size: 5.5px; font-family: 'DejaVu Sans', 'Bitstream Vera Sans', 'Computer Modern Sans Serif', 'Lucida Grande', 'Verdana', 'Geneva', 'Lucid', 'Arial', 'Helvetica', 'Avant Garde', sans-serif; text-anchor: middle" x="51.929905" y="80.521467" transform="rotate(-0 51.929905 80.521467)">10</text>
     </g>
    </g>
    <g id="xtick_2">
     <g id="line2d_2">
      <g>
       <use xlink:href="#m0c13260ae3" x="72.162264" y="72.842326" style="stroke: #000000; stroke-width: 0.5"/>
      </g>
     </g>
     <g id="text_2">
      <text style="font-size: 5.5px; font-family: 'DejaVu Sans', 'Bitstream Vera Sans', 'Computer Modern Sans Serif', 'Lucida Grande', 'Verdana', 'Geneva', 'Lucid', 'Arial', 'Helvetica', 'Avant Garde', sans-serif; text-anchor: middle" x="72.162264" y="80.521467" transform="rotate(-0 72.162264 80.521467)">20</text>
     </g>
    </g>
    <g id="xtick_3">
     <g id="line2d_3">
      <g>
       <use xlink:href="#m0c13260ae3" x="92.394624" y="72.842326" style="stroke: #000000; stroke-width: 0.5"/>
      </g>
     </g>
     <g id="text_3">
      <text style="font-size: 5.5px; font-family: 'DejaVu Sans', 'Bitstream Vera Sans', 'Computer Modern Sans Serif', 'Lucida Grande', 'Verdana', 'Geneva', 'Lucid', 'Arial', 'Helvetica', 'Avant Garde', sans-serif; text-anchor: middle" x="92.394624" y="80.521467" transform="rotate(-0 92.394624 80.521467)">30</text>
     </g>
    </g>
    <g id="text_4">
     <!-- $\tau$ (ms) -->
     <g transform="translate(54.268813 90.984201)">
      <text>
       <tspan x="0" y="-0.6875" style="font-style: oblique; font-size: 7px; font-family: 'DejaVu Sans'">τ</tspan>
       <tspan x="4.214355" y="-0.6875" style="font-size: 7px; font-family: 'DejaVu Sans'"> </tspan>
       <tspan x="6.439453" y="-0.6875" style="font-size: 7px; font-family: 'DejaVu Sans'">(</tspan>
       <tspan x="9.17041" y="-0.6875" style="font-size: 7px; font-family: 'DejaVu Sans'">m</tspan>
       <tspan x="15.989258" y="-0.6875" style="font-size: 7px; font-family: 'DejaVu Sans'">s</tspan>
       <tspan x="19.63623" y="-0.6875" style="font-size: 7px; font-family: 'DejaVu Sans'">)</tspan>
      </text>
     </g>
    </g>
   </g>
   <g id="matplotlib.axis_2">
    <g id="ytick_1">
     <g id="line2d_4">
      <defs>
       <path id="m1b3982b8f5" d="M 0 0 
L 3 0 
" style="stroke: #000000; stroke-width: 0.5"/>
      </defs>
      <g>
       <use xlink:href="#m1b3982b8f5" x="33.720781" y="72.057724" style="stroke: #000000; stroke-width: 0.5"/>
      </g>
     </g>
     <g id="text_5">
      <text style="font-size: 5.5px; font-family: 'DejaVu Sans', 'Bitstream Vera Sans', 'Computer Modern Sans Serif', 'Lucida Grande', 'Verdana', 'Geneva', 'Lucid', 'Arial', 'Helvetica', 'Avant Garde', sans-serif; text-anchor: end" x="30.220781" y="74.147295" transform="rotate(-0 30.220781 74.147295)">0.00</text>
     </g>
    </g>
    <g id="ytick_2">
     <g id="line2d_5">
      <g>
       <use xlink:href="#m1b3982b8f5" x="33.720781" y="56.365686" style="stroke: #000000; stroke-width: 0.5"/>
      </g>
     </g>
     <g id="text_6">
      <text style="font-size: 5.5px; font-family: 'DejaVu Sans', 'Bitstream Vera Sans', 'Computer Modern Sans Serif', 'Lucida Grande', 'Verdana', 'Geneva', 'Lucid', 'Arial', 'Helvetica', 'Avant Garde', sans-serif; text-anchor: end" x="30.220781" y="58.455256" transform="rotate(-0 30.220781 58.455256)">0.02</text>
     </g>
    </g>
    <g id="ytick_3">
     <g id="line2d_6">
      <g>
       <use xlink:href="#m1b3982b8f5" x="33.720781" y="40.673647" style="stroke: #000000; stroke-width: 0.5"/>
      </g>
     </g>
     <g id="text_7">
      <text style="font-size: 5.5px; font-family: 'DejaVu Sans', 'Bitstream Vera Sans', 'Computer Modern Sans Serif', 'Lucida Grande', 'Verdana', 'Geneva', 'Lucid', 'Arial', 'Helvetica', 'Avant Garde', sans-serif; text-anchor: end" x="30.220781" y="42.763218" transform="rotate(-0 30.220781 42.763218)">0.04</text>
     </g>
    </g>
    <g id="ytick_4">
     <g id="line2d_7">
      <g>
       <use xlink:href="#m1b3982b8f5" x="33.720781" y="24.981609" style="stroke: #000000; stroke-width: 0.5"/>
      </g>
     </g>
     <g id="text_8">
      <text style="font-size: 5.5px; font-family: 'DejaVu Sans', 'Bitstream Vera Sans', 'Computer Modern Sans Serif', 'Lucida Grande', 'Verdana', 'Geneva', 'Lucid', 'Arial', 'Helvetica', 'Avant Garde', sans-serif; text-anchor: end" x="30.220781" y="27.071179" transform="rotate(-0 30.220781 27.071179)">0.06</text>
     </g>
    </g>
    <g id="ytick_5">
     <g id="line2d_8">
      <g>
       <use xlink:href="#m1b3982b8f5" x="33.720781" y="9.28957" style="stroke: #000000; stroke-width: 0.5"/>
      </g>
     </g>
     <g id="text_9">
      <text style="font-size: 5.5px; font-family: 'DejaVu Sans', 'Bitstream Vera Sans', 'Computer Modern Sans Serif', 'Lucida Grande', 'Verdana', 'Geneva', 'Lucid', 'Arial', 'Helvetica', 'Avant Garde', sans-serif; text-anchor: end" x="30.220781" y="11.379141" transform="rotate(-0 30.220781 11.379141)">0.08</text>
     </g>
    </g>
    <g id="text_10">
     <!-- $TE_{F \rightarrow S}$ (bits) -->
     <g transform="translate(12.518906 61.750948) rotate(-90)">
      <text>
       <tspan x="0" y="-0.6875" style="font-style: oblique; font-size: 7px; font-family: 'DejaVu Sans'">T</tspan>
       <tspan x="4.275879" y="-0.6875" style="font-style: oblique; font-size: 7px; font-family: 'DejaVu Sans'">E</tspan>
       <tspan x="8.69873" y="0.460938" style="font-style: oblique; font-size: 4.9px; font-family: 'DejaVu Sans'">F</tspan>
       <tspan x="17.532129" y="0.460938" style="font-style: oblique; font-size: 4.9px; font-family: 'DejaVu Sans'">S</tspan>
       <tspan x="12.471826" y="0.460938" style="font-size: 4.9px; font-family: 'DejaVu Sans'">→</tspan>
       <tspan x="20.833887" y="-0.6875" style="font-size: 7px; font-family: 'DejaVu Sans'"> </tspan>
       <tspan x="23.058984" y="-0.6875" style="font-size: 7px; font-family: 'DejaVu Sans'">(</tspan>
       <tspan x="25.789941" y="-0.6875" style="font-size: 7px; font-family: 'DejaVu Sans'">b</tspan>
       <tspan x="30.233301" y="-0.6875" style="font-size: 7px; font-family: 'DejaVu Sans'">i</tspan>
       <tspan x="32.178125" y="-0.6875" style="font-size: 7px; font-family: 'DejaVu Sans'">t</tspan>
       <tspan x="34.922754" y="-0.6875" style="font-size: 7px; font-family: 'DejaVu Sans'">s</tspan>
       <tspan x="38.569727" y="-0.6875" style="font-size: 7px; font-family: 'DejaVu Sans'">)</tspan>
      </text>
     </g>
    </g>
   </g>
   <g id="line2d_9"/>
   <g id="line2d_10"/>
   <g id="line2d_11">
    <path d="M 41.458649 -1 
L 41.813725 6.093239 
L 42.825343 24.825739 
L 43.836961 40.117002 
L 44.848579 51.569536 
L 45.860197 59.196612 
L 46.871815 63.155279 
L 47.883433 64.264805 
L 48.895051 63.249206 
L 49.906669 60.317944 
L 50.918287 56.288749 
L 51.929905 51.54192 
L 52.941523 46.800128 
L 53.953141 42.647452 
L 54.964759 39.433198 
L 55.976377 37.014773 
L 56.987995 35.385106 
L 57.999613 35.132974 
L 59.011231 35.750136 
L 60.022849 37.499715 
L 61.034467 39.869516 
L 62.046085 42.889708 
L 63.057703 45.872254 
L 64.069321 49.097016 
L 65.080938 52.278087 
L 66.092556 55.169752 
L 67.104174 57.949442 
L 68.115792 60.286583 
L 69.12741 62.159439 
L 70.139028 63.606484 
L 71.150646 64.77154 
L 72.162264 65.683677 
L 73.173882 66.367877 
L 74.1855 66.870529 
L 75.197118 67.259278 
L 76.208736 67.524754 
L 77.220354 67.743046 
L 78.231972 67.94457 
L 79.24359 68.073821 
L 80.255208 68.254306 
L 81.266826 68.4509 
L 82.278444 68.639434 
L 83.290062 68.888405 
L 84.30168 69.099611 
L 85.313298 69.293633 
L 86.324916 69.417116 
L 87.336534 69.444784 
L 88.348152 69.364168 
L 89.35977 69.068801 
L 90.371388 68.599491 
L 91.383006 67.982159 
L 92.394624 67.075755 
L 93.406242 66.034367 
L 94.41786 64.838322 
L 95.429478 63.435589 
L 96.441096 61.995893 
" clip-path="url(#p35f1e5575c)" style="fill: none; stroke: #d45b0c; stroke-width: 0.5; stroke-linecap: square"/>
   </g>
   <g id="line2d_12">
    <path d="M 41.290936 -1 
L 41.813725 9.508251 
L 42.825343 28.407433 
L 43.836961 43.003298 
L 44.848579 53.972638 
L 45.860197 61.108171 
L 46.871815 65.090634 
L 47.883433 66.203577 
L 48.895051 65.205236 
L 49.906669 62.701699 
L 50.918287 59.211208 
L 51.929905 55.207804 
L 52.941523 51.589503 
L 53.953141 48.211804 
L 54.964759 45.581815 
L 55.976377 43.735826 
L 56.987995 42.862913 
L 57.999613 42.878581 
L 59.011231 43.9253 
L 60.022849 45.364813 
L 61.034467 47.281153 
L 62.046085 49.572622 
L 63.057703 51.967543 
L 64.069321 54.341313 
L 65.080938 56.742491 
L 66.092556 58.934947 
L 67.104174 60.953159 
L 68.115792 62.748835 
L 69.12741 64.173738 
L 70.139028 65.338867 
L 71.150646 66.297572 
L 72.162264 67.074718 
L 73.173882 67.683269 
L 74.1855 68.087385 
L 75.197118 68.444949 
L 76.208736 68.704148 
L 77.220354 68.911083 
L 78.231972 69.12506 
L 79.24359 69.339424 
L 80.255208 69.509428 
L 81.266826 69.691202 
L 82.278444 69.886264 
L 83.290062 70.067012 
L 84.30168 70.212785 
L 85.313298 70.337251 
L 86.324916 70.384067 
L 87.336534 70.357252 
L 88.348152 70.213465 
L 89.35977 69.894915 
L 90.371388 69.414937 
L 91.383006 68.776168 
L 92.394624 67.899776 
L 93.406242 66.904963 
L 94.41786 65.795676 
L 95.429478 64.651067 
L 96.441096 63.438858 
" clip-path="url(#p35f1e5575c)" style="fill: none; stroke: #a9a9a9; stroke-width: 0.5; stroke-linecap: square"/>
   </g>
   <g id="line2d_13">
    <path d="M 50.918287 21.058599 
L 67.104174 21.058599 
" clip-path="url(#p35f1e5575c)" style="fill: none; stroke: #000000; stroke-width: 0.5; stroke-linecap: square"/>
   </g>
   <g id="line2d_14">
    <path d="M 50.918287 56.288749 
L 67.104174 56.288749 
" clip-path="url(#p35f1e5575c)" style="fill: none; stroke-dasharray: 1.85,0.8; stroke-dashoffset: 0; stroke: #000000; stroke-width: 0.5"/>
   </g>
   <g id="line2d_15">
    <path d="M 50.918287 56.288749 
L 50.918287 21.058599 
" clip-path="url(#p35f1e5575c)" style="fill: none; stroke-dasharray: 1.85,0.8; stroke-dashoffset: 0; stroke: #000000; stroke-width: 0.5"/>
   </g>
   <g id="line2d_16">
    <path d="M 67.104174 56.288749 
L 67.104174 21.058599 
" clip-path="url(#p35f1e5575c)" style="fill: none; stroke-dasharray: 1.85,0.8; stroke-dashoffset: 0; stroke: #000000; stroke-width: 0.5"/>
   </g>
   <g id="line2d_17">
    <defs>
     <path id="mce96d9956c" d="M 0 -1.5 
L -0.336771 -0.463525 
L -1.426585 -0.463525 
L -0.544907 0.177051 
L -0.881678 1.213525 
L -0 0.572949 
L 0.881678 1.213525 
L 0.544907 0.177051 
L 1.426585 -0.463525 
L 0.336771 -0.463525 
z
" style="stroke: #000000; stroke-linejoin: bevel"/>
    </defs>
    <g clip-path="url(#p35f1e5575c)">
     <use xlink:href="#mce96d9956c" x="57.999613" y="21.058599" style="stroke: #000000; stroke-linejoin: bevel"/>
    </g>
   </g>
   <g id="line2d_18">
    <defs>
     <path id="m15ed363327" d="M -1.5 1.5 
L 1.5 -1.5 
M -1.5 -1.5 
L 1.5 1.5 
" style="stroke: #000000"/>
    </defs>
    <g clip-path="url(#p35f1e5575c)">
     <use xlink:href="#m15ed363327" x="50.918287" y="56.288749" style="stroke: #000000"/>
    </g>
   </g>
   <g id="patch_3">
    <path d="M 33.720781 72.842326 
L 33.720781 9.28957 
" style="fill: none; stroke: #000000; stroke-width: 0.8; stroke-linejoin: miter; stroke-linecap: square"/>
   </g>
   <g id="patch_4">
    <path d="M 33.720781 72.842326 
L 97.216844 72.842326 
" style="fill: none; stroke: #000000; stroke-width: 0.8; stroke-linejoin: miter; stroke-linecap: square"/>
   </g>
   <g id="legend_1">
    <g id="patch_5">
     <path d="M 75.866844 20.217695 
L 96.216844 20.217695 
Q 97.216844 20.217695 97.216844 19.217695 
L 97.216844 10.28957 
Q 97.216844 9.28957 96.216844 9.28957 
L 75.866844 9.28957 
Q 74.866844 9.28957 74.866844 10.28957 
L 74.866844 19.217695 
Q 74.866844 20.217695 75.866844 20.217695 
L 75.866844 20.217695 
z
" style="fill: none; opacity: 0.8"/>
    </g>
    <g id="line2d_19">
     <path d="M 74.866844 11.338789 
L 77.366844 11.338789 
L 79.866844 11.338789 
" style="fill: none; stroke: #d45b0c; stroke-width: 0.5; stroke-linecap: square"/>
    </g>
    <g id="text_11">
     <text style="font-size: 5px; font-family: 'DejaVu Sans', 'Bitstream Vera Sans', 'Computer Modern Sans Serif', 'Lucida Grande', 'Verdana', 'Geneva', 'Lucid', 'Arial', 'Helvetica', 'Avant Garde', sans-serif; text-anchor: start" x="83.866844" y="13.088789" transform="rotate(-0 83.866844 13.088789)">TE</text>
    </g>
    <g id="line2d_20">
     <path d="M 74.866844 17.427852 
L 77.366844 17.427852 
L 79.866844 17.427852 
" style="fill: none; stroke: #a9a9a9; stroke-width: 0.5; stroke-linecap: square"/>
    </g>
    <g id="text_12">
     <!-- TE$^{surr}$ -->
     <g transform="translate(83.866844 19.177852)">
      <text>
       <tspan x="0" y="-0.128125" style="font-size: 5px; font-family: 'DejaVu Sans'">T</tspan>
       <tspan x="3.054199" y="-0.128125" style="font-size: 5px; font-family: 'DejaVu Sans'">E</tspan>
       <tspan x="6.26123" y="-2.042187" style="font-style: oblique; font-size: 3.5px; font-family: 'DejaVu Sans'">s</tspan>
       <tspan x="8.084717" y="-2.042187" style="font-style: oblique; font-size: 3.5px; font-family: 'DejaVu Sans'">u</tspan>
       <tspan x="10.302979" y="-2.042187" style="font-style: oblique; font-size: 3.5px; font-family: 'DejaVu Sans'">r</tspan>
       <tspan x="11.741943" y="-2.042187" style="font-style: oblique; font-size: 3.5px; font-family: 'DejaVu Sans'">r</tspan>
      </text>
     </g>
    </g>
   </g>
  </g>
  <g id="axes_2">
   <g id="patch_6">
    <path d="M 33.720781 163.154137 
L 97.216844 163.154137 
L 97.216844 99.601381 
L 33.720781 99.601381 
L 33.720781 163.154137 
z
" style="fill: none"/>
   </g>
   <g id="FillBetweenPolyCollection_3">
    <path d="M 32.709163 104.600282 
L 32.709163 84.982549 
L 33.720781 104.500446 
L 34.732399 121.298351 
L 35.744017 134.74683 
L 36.755635 144.867001 
L 37.767253 151.736823 
L 38.778871 155.702066 
L 39.790489 156.100803 
L 40.802107 153.690015 
L 41.813725 150.353968 
L 42.825343 146.791984 
L 43.836961 143.242023 
L 44.848579 140.212542 
L 45.860197 137.713628 
L 46.871815 135.943525 
L 47.883433 134.785408 
L 48.895051 134.261205 
L 49.906669 134.520239 
L 50.918287 135.746778 
L 51.929905 137.249881 
L 52.941523 139.21336 
L 53.953141 141.748166 
L 54.964759 144.691167 
L 55.976377 147.338776 
L 56.987995 150.025174 
L 57.999613 152.537092 
L 59.011231 154.739261 
L 60.022849 156.463619 
L 61.034467 157.717133 
L 62.046085 158.794588 
L 63.057703 159.627922 
L 64.069321 160.209182 
L 65.080938 160.399389 
L 66.092556 160.386359 
L 67.104174 160.468912 
L 68.115792 160.642063 
L 69.12741 160.743 
L 70.139028 160.652834 
L 71.150646 160.419137 
L 72.162264 160.166696 
L 73.173882 159.824116 
L 74.1855 159.49388 
L 75.197118 159.308618 
L 76.208736 159.085291 
L 77.220354 159.062877 
L 78.231972 159.185914 
L 79.24359 159.465963 
L 80.255208 159.885704 
L 81.266826 160.444036 
L 82.278444 161.009769 
L 83.290062 161.337357 
L 84.30168 161.18252 
L 85.313298 160.493643 
L 86.324916 159.544728 
L 87.336534 158.45559 
L 88.348152 157.255837 
L 89.35977 156.069552 
L 90.371388 154.990887 
L 91.383006 153.944997 
L 92.394624 152.788514 
L 93.406242 151.875897 
L 94.41786 151.34829 
L 95.429478 150.92872 
L 96.441096 151.351066 
L 96.441096 157.614689 
L 96.441096 157.614689 
L 95.429478 157.428681 
L 94.41786 157.523668 
L 93.406242 157.966742 
L 92.394624 158.810139 
L 91.383006 159.422084 
L 90.371388 160.142147 
L 89.35977 160.849443 
L 88.348152 161.420464 
L 87.336534 161.797176 
L 86.324916 161.96239 
L 85.313298 161.991834 
L 84.30168 162.010222 
L 83.290062 162.002711 
L 82.278444 161.971365 
L 81.266826 161.929858 
L 80.255208 161.873082 
L 79.24359 161.771782 
L 78.231972 161.671515 
L 77.220354 161.587944 
L 76.208736 161.519857 
L 75.197118 161.483382 
L 74.1855 161.454227 
L 73.173882 161.446277 
L 72.162264 161.421931 
L 71.150646 161.433622 
L 70.139028 161.423823 
L 69.12741 161.427154 
L 68.115792 161.40367 
L 67.104174 161.364513 
L 66.092556 161.319029 
L 65.080938 161.2686 
L 64.069321 161.199426 
L 63.057703 161.059107 
L 62.046085 160.854506 
L 61.034467 160.609342 
L 60.022849 160.194371 
L 59.011231 159.469675 
L 57.999613 158.413451 
L 56.987995 156.955996 
L 55.976377 155.146074 
L 54.964759 152.993323 
L 53.953141 150.795995 
L 52.941523 148.5394 
L 51.929905 146.33167 
L 50.918287 144.370222 
L 49.906669 143.067275 
L 48.895051 142.438903 
L 47.883433 142.648984 
L 46.871815 143.353634 
L 45.860197 145.055381 
L 44.848579 147.44849 
L 43.836961 150.170899 
L 42.825343 152.91309 
L 41.813725 155.45695 
L 40.802107 157.152334 
L 39.790489 157.738986 
L 38.778871 157.508343 
L 37.767253 156.319925 
L 36.755635 152.657233 
L 35.744017 145.908436 
L 34.732399 135.73977 
L 33.720781 122.027931 
L 32.709163 104.600282 
z
" clip-path="url(#p98a9cd5144)" style="fill: #003f5c; fill-opacity: 0.5"/>
   </g>
   <g id="FillBetweenPolyCollection_4">
    <path d="M 32.709163 109.101681 
L 32.709163 87.788712 
L 33.720781 107.912253 
L 34.732399 124.360326 
L 35.744017 137.001347 
L 36.755635 147.43831 
L 37.767253 153.592392 
L 38.778871 156.869928 
L 39.790489 156.486779 
L 40.802107 154.111378 
L 41.813725 150.849865 
L 42.825343 147.446736 
L 43.836961 144.193176 
L 44.848579 141.542561 
L 45.860197 139.624781 
L 46.871815 138.791288 
L 47.883433 138.258213 
L 48.895051 138.629842 
L 49.906669 139.490347 
L 50.918287 140.582215 
L 51.929905 141.976894 
L 52.941523 143.678139 
L 53.953141 146.232784 
L 54.964759 148.588206 
L 55.976377 151.02819 
L 56.987995 153.201898 
L 57.999613 155.025542 
L 59.011231 156.706788 
L 60.022849 158.062456 
L 61.034467 159.090219 
L 62.046085 159.8601 
L 63.057703 160.365511 
L 64.069321 160.689145 
L 65.080938 160.928462 
L 66.092556 161.050263 
L 67.104174 161.064432 
L 68.115792 161.058987 
L 69.12741 161.016393 
L 70.139028 160.981346 
L 71.150646 160.751875 
L 72.162264 160.462857 
L 73.173882 160.302859 
L 74.1855 160.300983 
L 75.197118 160.216186 
L 76.208736 160.148647 
L 77.220354 160.156107 
L 78.231972 160.292254 
L 79.24359 160.393334 
L 80.255208 160.620776 
L 81.266826 160.94643 
L 82.278444 161.266611 
L 83.290062 161.597171 
L 84.30168 161.417611 
L 85.313298 160.985295 
L 86.324916 160.384928 
L 87.336534 159.655336 
L 88.348152 158.626227 
L 89.35977 157.768952 
L 90.371388 156.594347 
L 91.383006 155.426437 
L 92.394624 154.519221 
L 93.406242 153.877883 
L 94.41786 153.48781 
L 95.429478 153.399994 
L 96.441096 153.672518 
L 96.441096 159.769655 
L 96.441096 159.769655 
L 95.429478 159.663485 
L 94.41786 159.530786 
L 93.406242 159.595405 
L 92.394624 160.101555 
L 91.383006 160.602141 
L 90.371388 161.164764 
L 89.35977 161.572547 
L 88.348152 161.870475 
L 87.336534 162.056832 
L 86.324916 162.161473 
L 85.313298 162.17397 
L 84.30168 162.173839 
L 83.290062 162.150089 
L 82.278444 162.135442 
L 81.266826 162.104004 
L 80.255208 162.07441 
L 79.24359 162.006084 
L 78.231972 161.939435 
L 77.220354 161.890128 
L 76.208736 161.830805 
L 75.197118 161.787325 
L 74.1855 161.769296 
L 73.173882 161.768071 
L 72.162264 161.757108 
L 71.150646 161.756658 
L 70.139028 161.745957 
L 69.12741 161.721547 
L 68.115792 161.709057 
L 67.104174 161.665 
L 66.092556 161.616193 
L 65.080938 161.556536 
L 64.069321 161.475538 
L 63.057703 161.400955 
L 62.046085 161.31085 
L 61.034467 161.149951 
L 60.022849 160.800771 
L 59.011231 160.243435 
L 57.999613 159.427737 
L 56.987995 158.251133 
L 55.976377 156.916355 
L 54.964759 155.20562 
L 53.953141 153.242001 
L 52.941523 151.372712 
L 51.929905 149.568601 
L 50.918287 147.91244 
L 49.906669 146.404402 
L 48.895051 145.681111 
L 47.883433 145.916347 
L 46.871815 146.370641 
L 45.860197 147.467674 
L 44.848579 149.505818 
L 43.836961 151.55324 
L 42.825343 154.121384 
L 41.813725 156.074709 
L 40.802107 157.730488 
L 39.790489 158.340384 
L 38.778871 158.259797 
L 37.767253 157.31309 
L 36.755635 154.121399 
L 35.744017 148.176133 
L 34.732399 138.782023 
L 33.720781 125.785882 
L 32.709163 109.101681 
z
" clip-path="url(#p98a9cd5144)" style="fill: #a9a9a9; fill-opacity: 0.5"/>
   </g>
   <g id="matplotlib.axis_3">
    <g id="xtick_4">
     <g id="line2d_21">
      <g>
       <use xlink:href="#m0c13260ae3" x="51.929905" y="163.154137" style="stroke: #000000; stroke-width: 0.5"/>
      </g>
     </g>
     <g id="text_13">
      <text style="font-size: 5.5px; font-family: 'DejaVu Sans', 'Bitstream Vera Sans', 'Computer Modern Sans Serif', 'Lucida Grande', 'Verdana', 'Geneva', 'Lucid', 'Arial', 'Helvetica', 'Avant Garde', sans-serif; text-anchor: middle" x="51.929905" y="170.833278" transform="rotate(-0 51.929905 170.833278)">10</text>
     </g>
    </g>
    <g id="xtick_5">
     <g id="line2d_22">
      <g>
       <use xlink:href="#m0c13260ae3" x="72.162264" y="163.154137" style="stroke: #000000; stroke-width: 0.5"/>
      </g>
     </g>
     <g id="text_14">
      <text style="font-size: 5.5px; font-family: 'DejaVu Sans', 'Bitstream Vera Sans', 'Computer Modern Sans Serif', 'Lucida Grande', 'Verdana', 'Geneva', 'Lucid', 'Arial', 'Helvetica', 'Avant Garde', sans-serif; text-anchor: middle" x="72.162264" y="170.833278" transform="rotate(-0 72.162264 170.833278)">20</text>
     </g>
    </g>
    <g id="xtick_6">
     <g id="line2d_23">
      <g>
       <use xlink:href="#m0c13260ae3" x="92.394624" y="163.154137" style="stroke: #000000; stroke-width: 0.5"/>
      </g>
     </g>
     <g id="text_15">
      <text style="font-size: 5.5px; font-family: 'DejaVu Sans', 'Bitstream Vera Sans', 'Computer Modern Sans Serif', 'Lucida Grande', 'Verdana', 'Geneva', 'Lucid', 'Arial', 'Helvetica', 'Avant Garde', sans-serif; text-anchor: middle" x="92.394624" y="170.833278" transform="rotate(-0 92.394624 170.833278)">30</text>
     </g>
    </g>
    <g id="text_16">
     <!-- $\tau$ (ms) -->
     <g transform="translate(54.268813 181.296012)">
      <text>
       <tspan x="0" y="-0.6875" style="font-style: oblique; font-size: 7px; font-family: 'DejaVu Sans'">τ</tspan>
       <tspan x="4.214355" y="-0.6875" style="font-size: 7px; font-family: 'DejaVu Sans'"> </tspan>
       <tspan x="6.439453" y="-0.6875" style="font-size: 7px; font-family: 'DejaVu Sans'">(</tspan>
       <tspan x="9.17041" y="-0.6875" style="font-size: 7px; font-family: 'DejaVu Sans'">m</tspan>
       <tspan x="15.989258" y="-0.6875" style="font-size: 7px; font-family: 'DejaVu Sans'">s</tspan>
       <tspan x="19.63623" y="-0.6875" style="font-size: 7px; font-family: 'DejaVu Sans'">)</tspan>
      </text>
     </g>
    </g>
   </g>
   <g id="matplotlib.axis_4">
    <g id="ytick_6">
     <g id="line2d_24">
      <g>
       <use xlink:href="#m1b3982b8f5" x="33.720781" y="162.369535" style="stroke: #000000; stroke-width: 0.5"/>
      </g>
     </g>
     <g id="text_17">
      <text style="font-size: 5.5px; font-family: 'DejaVu Sans', 'Bitstream Vera Sans', 'Computer Modern Sans Serif', 'Lucida Grande', 'Verdana', 'Geneva', 'Lucid', 'Arial', 'Helvetica', 'Avant Garde', sans-serif; text-anchor: end" x="30.220781" y="164.459106" transform="rotate(-0 30.220781 164.459106)">0.00</text>
     </g>
    </g>
    <g id="ytick_7">
     <g id="line2d_25">
      <g>
       <use xlink:href="#m1b3982b8f5" x="33.720781" y="146.677497" style="stroke: #000000; stroke-width: 0.5"/>
      </g>
     </g>
     <g id="text_18">
      <text style="font-size: 5.5px; font-family: 'DejaVu Sans', 'Bitstream Vera Sans', 'Computer Modern Sans Serif', 'Lucida Grande', 'Verdana', 'Geneva', 'Lucid', 'Arial', 'Helvetica', 'Avant Garde', sans-serif; text-anchor: end" x="30.220781" y="148.767067" transform="rotate(-0 30.220781 148.767067)">0.02</text>
     </g>
    </g>
    <g id="ytick_8">
     <g id="line2d_26">
      <g>
       <use xlink:href="#m1b3982b8f5" x="33.720781" y="130.985458" style="stroke: #000000; stroke-width: 0.5"/>
      </g>
     </g>
     <g id="text_19">
      <text style="font-size: 5.5px; font-family: 'DejaVu Sans', 'Bitstream Vera Sans', 'Computer Modern Sans Serif', 'Lucida Grande', 'Verdana', 'Geneva', 'Lucid', 'Arial', 'Helvetica', 'Avant Garde', sans-serif; text-anchor: end" x="30.220781" y="133.075029" transform="rotate(-0 30.220781 133.075029)">0.04</text>
     </g>
    </g>
    <g id="ytick_9">
     <g id="line2d_27">
      <g>
       <use xlink:href="#m1b3982b8f5" x="33.720781" y="115.29342" style="stroke: #000000; stroke-width: 0.5"/>
      </g>
     </g>
     <g id="text_20">
      <text style="font-size: 5.5px; font-family: 'DejaVu Sans', 'Bitstream Vera Sans', 'Computer Modern Sans Serif', 'Lucida Grande', 'Verdana', 'Geneva', 'Lucid', 'Arial', 'Helvetica', 'Avant Garde', sans-serif; text-anchor: end" x="30.220781" y="117.38299" transform="rotate(-0 30.220781 117.38299)">0.06</text>
     </g>
    </g>
    <g id="ytick_10">
     <g id="line2d_28">
      <g>
       <use xlink:href="#m1b3982b8f5" x="33.720781" y="99.601381" style="stroke: #000000; stroke-width: 0.5"/>
      </g>
     </g>
     <g id="text_21">
      <text style="font-size: 5.5px; font-family: 'DejaVu Sans', 'Bitstream Vera Sans', 'Computer Modern Sans Serif', 'Lucida Grande', 'Verdana', 'Geneva', 'Lucid', 'Arial', 'Helvetica', 'Avant Garde', sans-serif; text-anchor: end" x="30.220781" y="101.690952" transform="rotate(-0 30.220781 101.690952)">0.08</text>
     </g>
    </g>
    <g id="text_22">
     <!-- $TE_{S \rightarrow F}$ (bits) -->
     <g transform="translate(12.518906 152.062759) rotate(-90)">
      <text>
       <tspan x="0" y="-0.6875" style="font-style: oblique; font-size: 7px; font-family: 'DejaVu Sans'">T</tspan>
       <tspan x="4.275879" y="-0.6875" style="font-style: oblique; font-size: 7px; font-family: 'DejaVu Sans'">E</tspan>
       <tspan x="8.69873" y="0.460938" style="font-style: oblique; font-size: 4.9px; font-family: 'DejaVu Sans'">S</tspan>
       <tspan x="17.824023" y="0.460938" style="font-style: oblique; font-size: 4.9px; font-family: 'DejaVu Sans'">F</tspan>
       <tspan x="12.763721" y="0.460938" style="font-size: 4.9px; font-family: 'DejaVu Sans'">→</tspan>
       <tspan x="20.833887" y="-0.6875" style="font-size: 7px; font-family: 'DejaVu Sans'"> </tspan>
       <tspan x="23.058984" y="-0.6875" style="font-size: 7px; font-family: 'DejaVu Sans'">(</tspan>
       <tspan x="25.789941" y="-0.6875" style="font-size: 7px; font-family: 'DejaVu Sans'">b</tspan>
       <tspan x="30.233301" y="-0.6875" style="font-size: 7px; font-family: 'DejaVu Sans'">i</tspan>
       <tspan x="32.178125" y="-0.6875" style="font-size: 7px; font-family: 'DejaVu Sans'">t</tspan>
       <tspan x="34.922754" y="-0.6875" style="font-size: 7px; font-family: 'DejaVu Sans'">s</tspan>
       <tspan x="38.569727" y="-0.6875" style="font-size: 7px; font-family: 'DejaVu Sans'">)</tspan>
      </text>
     </g>
    </g>
   </g>
   <g id="line2d_29"/>
   <g id="line2d_30"/>
   <g id="line2d_31">
    <path d="M 32.709163 95.047255 
L 33.720781 113.356388 
L 34.732399 128.897508 
L 35.744017 140.742165 
L 36.755635 149.266468 
L 37.767253 154.532976 
L 38.778871 156.977694 
L 39.790489 157.218113 
L 40.802107 155.773486 
L 41.813725 153.286773 
L 42.825343 150.226953 
L 43.836961 146.835426 
L 44.848579 143.876158 
L 45.860197 141.40808 
L 46.871815 139.72372 
L 47.883433 138.746225 
L 48.895051 138.392022 
L 49.906669 138.99611 
L 50.918287 140.218503 
L 51.929905 142.240979 
L 52.941523 144.462673 
L 53.953141 147.014632 
L 54.964759 149.659795 
L 55.976377 152.118918 
L 56.987995 154.38888 
L 57.999613 156.303609 
L 59.011231 157.931857 
L 60.022849 159.089645 
L 61.034467 159.872128 
L 62.046085 160.415798 
L 63.057703 160.730528 
L 64.069321 160.914786 
L 65.080938 161.007443 
L 66.092556 161.096164 
L 67.104174 161.159595 
L 68.115792 161.199643 
L 69.12741 161.205199 
L 70.139028 161.194578 
L 71.150646 161.174707 
L 72.162264 161.1335 
L 73.173882 161.005255 
L 74.1855 160.883748 
L 75.197118 160.820012 
L 76.208736 160.821812 
L 77.220354 160.857396 
L 78.231972 160.976953 
L 79.24359 161.142334 
L 80.255208 161.394046 
L 81.266826 161.586307 
L 82.278444 161.761166 
L 83.290062 161.855435 
L 84.30168 161.873629 
L 85.313298 161.729786 
L 86.324916 161.390969 
L 87.336534 160.799976 
L 88.348152 160.017713 
L 89.35977 159.058933 
L 90.371388 158.106882 
L 91.383006 157.098709 
L 92.394624 156.239183 
L 93.406242 155.393792 
L 94.41786 154.808976 
L 95.429478 154.511502 
L 96.441096 154.634999 
" clip-path="url(#p98a9cd5144)" style="fill: none; stroke: #003f5c; stroke-width: 0.5; stroke-linecap: square"/>
   </g>
   <g id="line2d_32">
    <path d="M 32.709163 98.674159 
L 33.720781 117.138185 
L 34.732399 132.086293 
L 35.744017 143.481091 
L 36.755635 151.25976 
L 37.767253 155.856007 
L 38.778871 157.71757 
L 39.790489 157.724576 
L 40.802107 156.284764 
L 41.813725 153.986298 
L 42.825343 151.285792 
L 43.836961 148.50257 
L 44.848579 145.976317 
L 45.860197 144.048397 
L 46.871815 142.836447 
L 47.883433 141.998709 
L 48.895051 142.038025 
L 49.906669 142.812226 
L 50.918287 144.118565 
L 51.929905 145.828157 
L 52.941523 147.862586 
L 53.953141 150.086454 
L 54.964759 152.239867 
L 55.976377 154.206934 
L 56.987995 156.041317 
L 57.999613 157.436928 
L 59.011231 158.73887 
L 60.022849 159.698959 
L 61.034467 160.375634 
L 62.046085 160.840537 
L 63.057703 161.110899 
L 64.069321 161.260755 
L 65.080938 161.35565 
L 66.092556 161.433856 
L 67.104174 161.478488 
L 68.115792 161.528889 
L 69.12741 161.557034 
L 70.139028 161.545043 
L 71.150646 161.539459 
L 72.162264 161.4877 
L 73.173882 161.417324 
L 74.1855 161.344473 
L 75.197118 161.306781 
L 76.208736 161.290333 
L 77.220354 161.310197 
L 78.231972 161.403394 
L 79.24359 161.524689 
L 80.255208 161.697875 
L 81.266826 161.846698 
L 82.278444 161.972737 
L 83.290062 162.020649 
L 84.30168 162.015538 
L 85.313298 161.937107 
L 86.324916 161.663712 
L 87.336534 161.262578 
L 88.348152 160.735209 
L 89.35977 160.073156 
L 90.371388 159.39839 
L 91.383006 158.67801 
L 92.394624 157.996977 
L 93.406242 157.416323 
L 94.41786 157.043879 
L 95.429478 156.829348 
L 96.441096 156.963386 
" clip-path="url(#p98a9cd5144)" style="fill: none; stroke: #a9a9a9; stroke-width: 0.5; stroke-linecap: square"/>
   </g>
   <g id="patch_7">
    <path d="M 33.720781 163.154137 
L 33.720781 99.601381 
" style="fill: none; stroke: #000000; stroke-width: 0.8; stroke-linejoin: miter; stroke-linecap: square"/>
   </g>
   <g id="patch_8">
    <path d="M 33.720781 163.154137 
L 97.216844 163.154137 
" style="fill: none; stroke: #000000; stroke-width: 0.8; stroke-linejoin: miter; stroke-linecap: square"/>
   </g>
   <g id="legend_2">
    <g id="patch_9">
     <path d="M 75.866844 110.529506 
L 96.216844 110.529506 
Q 97.216844 110.529506 97.216844 109.529506 
L 97.216844 100.601381 
Q 97.216844 99.601381 96.216844 99.601381 
L 75.866844 99.601381 
Q 74.866844 99.601381 74.866844 100.601381 
L 74.866844 109.529506 
Q 74.866844 110.529506 75.866844 110.529506 
L 75.866844 110.529506 
z
" style="fill: none; opacity: 0.8"/>
    </g>
    <g id="line2d_33">
     <path d="M 74.866844 101.6506 
L 77.366844 101.6506 
L 79.866844 101.6506 
" style="fill: none; stroke: #003f5c; stroke-width: 0.5; stroke-linecap: square"/>
    </g>
    <g id="text_23">
     <text style="font-size: 5px; font-family: 'DejaVu Sans', 'Bitstream Vera Sans', 'Computer Modern Sans Serif', 'Lucida Grande', 'Verdana', 'Geneva', 'Lucid', 'Arial', 'Helvetica', 'Avant Garde', sans-serif; text-anchor: start" x="83.866844" y="103.4006" transform="rotate(-0 83.866844 103.4006)">TE</text>
    </g>
    <g id="line2d_34">
     <path d="M 74.866844 107.739663 
L 77.366844 107.739663 
L 79.866844 107.739663 
" style="fill: none; stroke: #a9a9a9; stroke-width: 0.5; stroke-linecap: square"/>
    </g>
    <g id="text_24">
     <!-- TE$^{surr}$ -->
     <g transform="translate(83.866844 109.489663)">
      <text>
       <tspan x="0" y="-0.128125" style="font-size: 5px; font-family: 'DejaVu Sans'">T</tspan>
       <tspan x="3.054199" y="-0.128125" style="font-size: 5px; font-family: 'DejaVu Sans'">E</tspan>
       <tspan x="6.26123" y="-2.042187" style="font-style: oblique; font-size: 3.5px; font-family: 'DejaVu Sans'">s</tspan>
       <tspan x="8.084717" y="-2.042187" style="font-style: oblique; font-size: 3.5px; font-family: 'DejaVu Sans'">u</tspan>
       <tspan x="10.302979" y="-2.042187" style="font-style: oblique; font-size: 3.5px; font-family: 'DejaVu Sans'">r</tspan>
       <tspan x="11.741943" y="-2.042187" style="font-style: oblique; font-size: 3.5px; font-family: 'DejaVu Sans'">r</tspan>
      </text>
     </g>
    </g>
   </g>
  </g>
  <g id="axes_3">
   <g id="patch_10">
    <path d="M 27.64551 242.595082 
L 31.491658 241.201381 
L 31.491658 242.246657 
L 103.108744 242.246657 
L 103.108744 242.943507 
L 31.491658 242.943507 
L 31.491658 243.988783 
z
" clip-path="url(#pec04cb00e0)" style="stroke: #000000; stroke-linejoin: miter"/>
   </g>
   <g id="patch_11">
    <path d="M 27.64551 200.784059 
L 31.491658 199.390358 
L 31.491658 200.435633 
L 103.108744 200.435633 
L 103.108744 201.132484 
L 31.491658 201.132484 
L 31.491658 202.177759 
z
" clip-path="url(#pec04cb00e0)" style="stroke: #000000; stroke-linejoin: miter"/>
   </g>
   <g id="patch_12">
    <path d="M 34.605445 242.595082 
L 36.446822 237.082355 
L 37.323669 237.368318 
L 60.128526 200.641077 
L 61.005373 200.92704 
L 38.200515 237.654281 
L 39.077362 237.940243 
z
" clip-path="url(#pec04cb00e0)" style="fill: #676767; stroke: #000000; stroke-width: 0.2; stroke-linejoin: miter"/>
   </g>
   <g id="patch_13">
    <path d="M 52.874652 197.996657 
L 52.874652 203.57146 
L 68.259247 203.57146 
L 68.259247 197.996657 
z
" clip-path="url(#pec04cb00e0)" style="fill: #676767; stroke: #676767; stroke-width: 0.5; stroke-linejoin: miter"/>
   </g>
   <g id="LineCollection_1">
    <path d="M 34.605445 245.382484 
L 34.605445 239.807681 
" clip-path="url(#pec04cb00e0)" style="fill: none; stroke: #000000; stroke-width: 0.5"/>
   </g>
   <g id="LineCollection_2">
    <path d="M 34.605445 203.57146 
L 34.605445 197.996657 
" clip-path="url(#pec04cb00e0)" style="fill: none; stroke: #000000; stroke-width: 0.5"/>
   </g>
   <g id="LineCollection_3">
    <path d="M 96.881171 245.382484 
L 96.881171 239.807681 
" clip-path="url(#pec04cb00e0)" style="fill: none; stroke: #000000; stroke-width: 0.5"/>
   </g>
   <g id="LineCollection_4">
    <path d="M 96.881171 203.57146 
L 96.881171 197.996657 
" clip-path="url(#pec04cb00e0)" style="fill: none; stroke: #000000; stroke-width: 0.5"/>
   </g>
   <g id="text_25">
    <!-- $\tau=0$ -->
    <g transform="translate(29.665445 197.164782)">
     <text>
      <tspan x="0" y="-0.03125" style="font-style: oblique; font-size: 4px; font-family: 'DejaVu Sans'">τ</tspan>
      <tspan x="3.1875" y="-0.03125" style="font-size: 4px; font-family: 'DejaVu Sans'">=</tspan>
      <tspan x="7.318359" y="-0.03125" style="font-size: 4px; font-family: 'DejaVu Sans'">0</tspan>
     </text>
    </g>
   </g>
   <g id="text_26">
    <!-- $\tau=T_{s}$ -->
    <g transform="translate(91.201171 197.164782)">
     <text>
      <tspan x="0" y="-0.078125" style="font-style: oblique; font-size: 4px; font-family: 'DejaVu Sans'">τ</tspan>
      <tspan x="7.318359" y="-0.078125" style="font-style: oblique; font-size: 4px; font-family: 'DejaVu Sans'">T</tspan>
      <tspan x="3.1875" y="-0.078125" style="font-size: 4px; font-family: 'DejaVu Sans'">=</tspan>
      <tspan x="9.761719" y="0.578125" style="font-style: oblique; font-size: 2.8px; font-family: 'DejaVu Sans'">s</tspan>
     </text>
    </g>
   </g>
  </g>
  <g id="axes_4">
   <g id="patch_14">
    <path d="M 54.282093 279.556027 
L 54.282093 271.52831 
L 69.022779 271.52831 
L 69.022779 279.556027 
L 61.652436 283.569885 
z
" clip-path="url(#pd64315e905)" style="fill: #676767"/>
   </g>
   <g id="patch_15">
    <path d="M 33.241292 291.597602 
L 36.316883 287.583744 
L 96.446755 287.583744 
L 96.446755 295.61146 
L 36.316883 295.61146 
L 33.241292 291.597602 
z
" clip-path="url(#pd64315e905)" style="fill: none; stroke: #000000; stroke-linejoin: miter"/>
   </g>
   <g id="patch_16">
    <path d="M 33.241292 275.542169 
L 36.316883 271.52831 
L 96.446755 271.52831 
L 96.446755 279.556027 
L 36.316883 279.556027 
L 33.241292 275.542169 
z
" clip-path="url(#pd64315e905)" style="fill: none; stroke: #000000; stroke-linejoin: miter"/>
   </g>
   <g id="line2d_35">
    <path d="M 36.777529 295.61146 
L 36.777529 287.583744 
" clip-path="url(#pd64315e905)" style="fill: none; stroke: #000000; stroke-linecap: square"/>
   </g>
   <g id="line2d_36">
    <path d="M 36.777529 279.556027 
L 36.777529 271.52831 
" clip-path="url(#pd64315e905)" style="fill: none; stroke: #000000; stroke-linecap: square"/>
   </g>
   <g id="text_27">
    <text style="font-size: 4px; font-family: 'DejaVu Sans', 'Bitstream Vera Sans', 'Computer Modern Sans Serif', 'Lucida Grande', 'Verdana', 'Geneva', 'Lucid', 'Arial', 'Helvetica', 'Avant Garde', sans-serif; text-anchor: end" x="91.84029" y="276.645919" transform="rotate(-0 91.84029 276.645919)">F</text>
   </g>
   <g id="text_28">
    <text style="font-size: 4px; font-family: 'DejaVu Sans', 'Bitstream Vera Sans', 'Computer Modern Sans Serif', 'Lucida Grande', 'Verdana', 'Geneva', 'Lucid', 'Arial', 'Helvetica', 'Avant Garde', sans-serif; text-anchor: end" x="91.84029" y="292.701352" transform="rotate(-0 91.84029 292.701352)">S</text>
   </g>
  </g>
 </g>
 <defs>
  <clipPath id="p35f1e5575c">
   <rect x="33.720781" y="9.28957" width="63.496063" height="63.552756"/>
  </clipPath>
  <clipPath id="p98a9cd5144">
   <rect x="33.720781" y="99.601381" width="63.496063" height="63.552756"/>
  </clipPath>
  <clipPath id="pec04cb00e0">
   <rect x="24.990073" y="196.602956" width="73.814173" height="50.173228"/>
  </clipPath>
  <clipPath id="pd64315e905">
   <rect x="24.990073" y="263.500594" width="73.814173" height="40.138583"/>
  </clipPath>
 </defs>
</svg>
