<?xml version="1.0" encoding="utf-8" standalone="no"?>
<!DOCTYPE svg PUBLIC "-//W3C//DTD SVG 1.1//EN"
  "http://www.w3.org/Graphics/SVG/1.1/DTD/svg11.dtd">
<svg xmlns:xlink="http://www.w3.org/1999/xlink" width="106.71198pt" height="91.944593pt" viewBox="0 0 106.71198 91.944593" xmlns="http://www.w3.org/2000/svg" version="1.1">
 <metadata>
  <rdf:RDF xmlns:dc="http://purl.org/dc/elements/1.1/" xmlns:cc="http://creativecommons.org/ns#" xmlns:rdf="http://www.w3.org/1999/02/22-rdf-syntax-ns#">
   <cc:Work>
    <dc:type rdf:resource="http://purl.org/dc/dcmitype/StillImage"/>
    <dc:date>2026-04-21T12:15:04.848783</dc:date>
    <dc:format>image/svg+xml</dc:format>
    <dc:creator>
     <cc:Agent>
      <dc:title>Matplotlib v3.10.7, https://matplotlib.org/</dc:title>
     </cc:Agent>
    </dc:creator>
   </cc:Work>
  </rdf:RDF>
 </metadata>
 <defs>
  <style type="text/css">*{stroke-linejoin: round; stroke-linecap: butt}</style>
 </defs>
 <g id="figure_1">
  <g id="patch_1">
   <path d="M 0 91.944593 
L 106.71198 91.944593 
L 106.71198 0 
L 0 0 
L 0 91.944593 
z
" style="fill: none"/>
  </g>
  <g id="axes_1">
   <g id="patch_2">
    <path d="M 35.346094 57.308468 
L 96.857905 57.308468 
L 96.857905 9.28957 
L 35.346094 9.28957 
L 35.346094 57.308468 
z
" style="fill: none"/>
   </g>
   <g id="FillBetweenPolyCollection_1">
    <path d="M 38.142085 51.418967 
L 38.142085 53.748128 
L 39.442546 53.915785 
L 40.743007 53.898501 
L 42.043469 53.431162 
L 43.34393 51.801562 
L 44.644391 47.213124 
L 45.944852 40.392828 
L 47.245313 32.560679 
L 48.545774 27.007618 
L 49.846235 24.591476 
L 51.146696 25.106276 
L 52.447157 27.720328 
L 53.747619 31.035658 
L 55.04808 34.498977 
L 56.348541 37.932792 
L 57.649002 40.552043 
L 58.949463 43.216128 
L 60.249924 45.265794 
L 61.550385 47.043178 
L 62.850846 48.235281 
L 64.151308 49.004562 
L 65.451769 49.675275 
L 66.75223 50.726877 
L 68.052691 51.547544 
L 69.353152 52.379992 
L 70.653613 52.780782 
L 71.954074 53.249785 
L 73.254535 53.203743 
L 74.554997 53.020574 
L 75.855458 52.639256 
L 77.155919 52.430812 
L 78.45638 51.855425 
L 79.756841 51.633261 
L 81.057302 51.421339 
L 82.357763 50.867834 
L 83.658224 50.696204 
L 84.958686 49.908516 
L 86.259147 49.324513 
L 87.559608 48.9147 
L 88.860069 48.55319 
L 90.16053 49.020173 
L 91.460991 48.959832 
L 92.761452 49.182554 
L 94.061913 49.201225 
L 94.061913 45.976464 
L 94.061913 45.976464 
L 92.761452 45.712772 
L 91.460991 45.647495 
L 90.16053 45.390629 
L 88.860069 45.760346 
L 87.559608 45.692701 
L 86.259147 46.224082 
L 84.958686 46.969443 
L 83.658224 47.440129 
L 82.357763 48.166421 
L 81.057302 48.151348 
L 79.756841 48.481896 
L 78.45638 49.120176 
L 77.155919 49.555566 
L 75.855458 50.167514 
L 74.554997 50.444687 
L 73.254535 50.802113 
L 71.954074 50.68131 
L 70.653613 50.197562 
L 69.353152 49.314171 
L 68.052691 48.823891 
L 66.75223 47.979857 
L 65.451769 47.148268 
L 64.151308 46.137541 
L 62.850846 45.240409 
L 61.550385 44.048879 
L 60.249924 42.176736 
L 58.949463 39.549379 
L 57.649002 37.116868 
L 56.348541 34.162858 
L 55.04808 30.974772 
L 53.747619 26.885634 
L 52.447157 23.012685 
L 51.146696 20.582472 
L 49.846235 19.978712 
L 48.545774 22.376221 
L 47.245313 28.453997 
L 45.944852 36.431559 
L 44.644391 44.222707 
L 43.34393 48.913055 
L 42.043469 50.950014 
L 40.743007 51.061598 
L 39.442546 51.050331 
L 38.142085 51.418967 
z
" clip-path="url(#pf9eb7d3ff5)" style="fill: #30123b; fill-opacity: 0.3"/>
   </g>
   <g id="FillBetweenPolyCollection_2">
    <path d="M 38.142085 49.222097 
L 38.142085 52.121249 
L 39.442546 52.320092 
L 40.743007 52.8813 
L 42.043469 53.466696 
L 43.34393 54.321243 
L 44.644391 54.52208 
L 45.944852 52.280933 
L 47.245313 47.524662 
L 48.545774 40.502767 
L 49.846235 33.030754 
L 51.146696 27.824995 
L 52.447157 25.554379 
L 53.747619 26.33569 
L 55.04808 29.200281 
L 56.348541 32.924374 
L 57.649002 36.459592 
L 58.949463 39.21939 
L 60.249924 41.956806 
L 61.550385 44.430131 
L 62.850846 46.310152 
L 64.151308 48.130542 
L 65.451769 49.224293 
L 66.75223 50.767302 
L 68.052691 52.022038 
L 69.353152 52.618357 
L 70.653613 53.030202 
L 71.954074 53.359786 
L 73.254535 53.810736 
L 74.554997 54.030133 
L 75.855458 53.692183 
L 77.155919 52.940327 
L 78.45638 52.122282 
L 79.756841 51.757589 
L 81.057302 51.715229 
L 82.357763 51.637795 
L 83.658224 51.120892 
L 84.958686 50.33354 
L 86.259147 49.562887 
L 87.559608 49.087733 
L 88.860069 48.740846 
L 90.16053 48.85767 
L 91.460991 49.089092 
L 92.761452 49.489385 
L 94.061913 49.474712 
L 94.061913 46.389486 
L 94.061913 46.389486 
L 92.761452 46.166651 
L 91.460991 46.185299 
L 90.16053 45.975075 
L 88.860069 45.837239 
L 87.559608 45.810851 
L 86.259147 46.47465 
L 84.958686 47.420462 
L 83.658224 48.27835 
L 82.357763 48.736467 
L 81.057302 48.936767 
L 79.756841 49.071563 
L 78.45638 49.472118 
L 77.155919 50.15592 
L 75.855458 51.029177 
L 74.554997 51.445459 
L 73.254535 51.108077 
L 71.954074 50.458531 
L 70.653613 50.169048 
L 69.353152 50.115924 
L 68.052691 49.218529 
L 66.75223 47.874973 
L 65.451769 46.633406 
L 64.151308 44.954529 
L 62.850846 43.367993 
L 61.550385 40.957821 
L 60.249924 38.58145 
L 58.949463 35.973405 
L 57.649002 32.545008 
L 56.348541 28.813294 
L 55.04808 24.939414 
L 53.747619 21.97554 
L 52.447157 21.118881 
L 51.146696 23.211516 
L 49.846235 28.913878 
L 48.545774 36.711736 
L 47.245313 44.518913 
L 45.944852 49.760297 
L 44.644391 51.439963 
L 43.34393 51.362479 
L 42.043469 50.682701 
L 40.743007 50.133723 
L 39.442546 49.807763 
L 38.142085 49.222097 
z
" clip-path="url(#pf9eb7d3ff5)" style="fill: #4143a7; fill-opacity: 0.3"/>
   </g>
   <g id="FillBetweenPolyCollection_3">
    <path d="M 38.142085 48.793273 
L 38.142085 51.701236 
L 39.442546 51.938951 
L 40.743007 52.740919 
L 42.043469 53.852195 
L 43.34393 55.322022 
L 44.644391 56.066283 
L 45.944852 56.207286 
L 47.245313 55.447076 
L 48.545774 52.12351 
L 49.846235 46.250422 
L 51.146696 38.553385 
L 52.447157 30.98704 
L 53.747619 25.748192 
L 55.04808 24.528464 
L 56.348541 25.885196 
L 57.649002 28.216388 
L 58.949463 31.088277 
L 60.249924 33.835165 
L 61.550385 36.753597 
L 62.850846 39.448482 
L 64.151308 42.008953 
L 65.451769 44.219334 
L 66.75223 46.230385 
L 68.052691 48.387289 
L 69.353152 50.212487 
L 70.653613 51.493184 
L 71.954074 52.026097 
L 73.254535 52.099731 
L 74.554997 52.025622 
L 75.855458 52.151688 
L 77.155919 52.447309 
L 78.45638 52.496649 
L 79.756841 52.275358 
L 81.057302 51.869249 
L 82.357763 51.772869 
L 83.658224 51.562153 
L 84.958686 50.907622 
L 86.259147 51.006814 
L 87.559608 51.121427 
L 88.860069 50.7999 
L 90.16053 50.438762 
L 91.460991 49.861898 
L 92.761452 49.466317 
L 94.061913 49.431295 
L 94.061913 46.44289 
L 94.061913 46.44289 
L 92.761452 46.550903 
L 91.460991 46.898138 
L 90.16053 47.544123 
L 88.860069 48.091003 
L 87.559608 47.912819 
L 86.259147 47.803465 
L 84.958686 48.05889 
L 83.658224 48.21038 
L 82.357763 48.92429 
L 81.057302 49.439691 
L 79.756841 49.571401 
L 78.45638 49.781471 
L 77.155919 49.661647 
L 75.855458 49.351317 
L 74.554997 49.189079 
L 73.254535 49.314564 
L 71.954074 49.353222 
L 70.653613 48.711496 
L 69.353152 47.365259 
L 68.052691 45.519924 
L 66.75223 43.55902 
L 65.451769 41.212361 
L 64.151308 38.684066 
L 62.850846 36.092714 
L 61.550385 33.287431 
L 60.249924 30.356715 
L 58.949463 27.146323 
L 57.649002 24.299205 
L 56.348541 21.554183 
L 55.04808 20.130289 
L 53.747619 21.511284 
L 52.447157 26.286093 
L 51.146696 34.556487 
L 49.846235 43.403434 
L 48.545774 49.582001 
L 47.245313 52.400471 
L 45.944852 53.660471 
L 44.644391 53.445538 
L 43.34393 52.358507 
L 42.043469 51.339214 
L 40.743007 50.076659 
L 39.442546 49.243604 
L 38.142085 48.793273 
z
" clip-path="url(#pf9eb7d3ff5)" style="fill: #4771e9; fill-opacity: 0.3"/>
   </g>
   <g id="FillBetweenPolyCollection_4">
    <path d="M 38.142085 50.837493 
L 38.142085 53.741982 
L 39.442546 53.630253 
L 40.743007 53.645343 
L 42.043469 53.858593 
L 43.34393 54.444675 
L 44.644391 55.022275 
L 45.944852 55.928447 
L 47.245313 56.776991 
L 48.545774 57.034086 
L 49.846235 55.987171 
L 51.146696 52.566859 
L 52.447157 46.805611 
L 53.747619 39.231689 
L 55.04808 32.138704 
L 56.348541 26.768041 
L 57.649002 24.199217 
L 58.949463 24.984923 
L 60.249924 27.978835 
L 61.550385 32.398409 
L 62.850846 36.352529 
L 64.151308 39.67434 
L 65.451769 41.641103 
L 66.75223 43.523657 
L 68.052691 45.446565 
L 69.353152 47.448894 
L 70.653613 49.196523 
L 71.954074 50.616733 
L 73.254535 51.56045 
L 74.554997 51.990449 
L 75.855458 52.362848 
L 77.155919 52.473423 
L 78.45638 52.361595 
L 79.756841 52.417921 
L 81.057302 52.286549 
L 82.357763 52.49835 
L 83.658224 52.431955 
L 84.958686 52.075081 
L 86.259147 51.737065 
L 87.559608 51.140653 
L 88.860069 50.630484 
L 90.16053 50.240859 
L 91.460991 50.575174 
L 92.761452 50.343673 
L 94.061913 50.303749 
L 94.061913 47.326704 
L 94.061913 47.326704 
L 92.761452 47.646541 
L 91.460991 47.371107 
L 90.16053 47.473168 
L 88.860069 47.587271 
L 87.559608 48.330588 
L 86.259147 48.950046 
L 84.958686 49.443081 
L 83.658224 49.585901 
L 82.357763 49.601614 
L 81.057302 49.641503 
L 79.756841 49.535552 
L 78.45638 49.781784 
L 77.155919 49.673699 
L 75.855458 49.599055 
L 74.554997 49.598428 
L 73.254535 49.044455 
L 71.954074 47.973422 
L 70.653613 46.367314 
L 69.353152 44.363227 
L 68.052691 42.235466 
L 66.75223 40.124102 
L 65.451769 38.282297 
L 64.151308 35.982929 
L 62.850846 33.032976 
L 61.550385 28.505104 
L 60.249924 24.07825 
L 58.949463 20.65854 
L 57.649002 19.933861 
L 56.348541 22.176146 
L 55.04808 27.872373 
L 53.747619 36.042225 
L 52.447157 44.00558 
L 51.146696 50.154717 
L 49.846235 53.306737 
L 48.545774 54.338635 
L 47.245313 54.123495 
L 45.944852 53.457278 
L 44.644391 52.659492 
L 43.34393 51.779784 
L 42.043469 51.283189 
L 40.743007 50.887648 
L 39.442546 50.808449 
L 38.142085 50.837493 
z
" clip-path="url(#pf9eb7d3ff5)" style="fill: #3e9bfe; fill-opacity: 0.3"/>
   </g>
   <g id="FillBetweenPolyCollection_5">
    <path d="M 38.142085 48.028133 
L 38.142085 50.772821 
L 39.442546 51.103088 
L 40.743007 52.016263 
L 42.043469 53.078893 
L 43.34393 53.731853 
L 44.644391 54.082884 
L 45.944852 54.35994 
L 47.245313 54.563206 
L 48.545774 54.458888 
L 49.846235 54.167657 
L 51.146696 53.6885 
L 52.447157 52.576092 
L 53.747619 50.159776 
L 55.04808 44.995748 
L 56.348541 37.724196 
L 57.649002 30.2517 
L 58.949463 24.846821 
L 60.249924 23.110012 
L 61.550385 24.093828 
L 62.850846 27.331169 
L 64.151308 31.218696 
L 65.451769 35.416262 
L 66.75223 38.793693 
L 68.052691 41.672886 
L 69.353152 43.709745 
L 70.653613 45.191864 
L 71.954074 46.883191 
L 73.254535 48.71179 
L 74.554997 49.919719 
L 75.855458 51.020904 
L 77.155919 51.044931 
L 78.45638 51.528658 
L 79.756841 51.987393 
L 81.057302 52.209404 
L 82.357763 52.064037 
L 83.658224 51.590459 
L 84.958686 51.382171 
L 86.259147 51.080146 
L 87.559608 51.085026 
L 88.860069 51.235886 
L 90.16053 50.873624 
L 91.460991 50.762615 
L 92.761452 51.308309 
L 94.061913 51.614851 
L 94.061913 48.746992 
L 94.061913 48.746992 
L 92.761452 48.286547 
L 91.460991 48.324197 
L 90.16053 48.146868 
L 88.860069 47.884775 
L 87.559608 48.344721 
L 86.259147 48.606963 
L 84.958686 48.483484 
L 83.658224 48.913153 
L 82.357763 49.280806 
L 81.057302 49.357309 
L 79.756841 49.149803 
L 78.45638 48.899156 
L 77.155919 48.571987 
L 75.855458 47.721494 
L 74.554997 47.354466 
L 73.254535 45.740847 
L 71.954074 43.782975 
L 70.653613 41.913444 
L 69.353152 40.233615 
L 68.052691 38.380381 
L 66.75223 35.619077 
L 65.451769 31.644794 
L 64.151308 27.495109 
L 62.850846 23.120883 
L 61.550385 19.926246 
L 60.249924 18.500936 
L 58.949463 20.549669 
L 57.649002 26.095558 
L 56.348541 34.348639 
L 55.04808 42.252481 
L 53.747619 47.501675 
L 52.447157 50.217774 
L 51.146696 50.945981 
L 49.846235 51.237975 
L 48.545774 51.612421 
L 47.245313 51.812878 
L 45.944852 51.80717 
L 44.644391 51.602636 
L 43.34393 51.024424 
L 42.043469 50.035164 
L 40.743007 49.138076 
L 39.442546 48.488717 
L 38.142085 48.028133 
z
" clip-path="url(#pf9eb7d3ff5)" style="fill: #22c5e2; fill-opacity: 0.3"/>
   </g>
   <g id="FillBetweenPolyCollection_6">
    <path d="M 38.142085 48.160443 
L 38.142085 50.979117 
L 39.442546 51.203388 
L 40.743007 51.574363 
L 42.043469 52.028533 
L 43.34393 52.785212 
L 44.644391 53.51496 
L 45.944852 54.308681 
L 47.245313 54.952809 
L 48.545774 55.414421 
L 49.846235 55.698478 
L 51.146696 55.591043 
L 52.447157 55.424175 
L 53.747619 55.195999 
L 55.04808 54.391913 
L 56.348541 51.914305 
L 57.649002 47.643706 
L 58.949463 41.347091 
L 60.249924 33.866766 
L 61.550385 27.545512 
L 62.850846 24.536948 
L 64.151308 24.878487 
L 65.451769 27.714744 
L 66.75223 30.979577 
L 68.052691 34.060261 
L 69.353152 36.952816 
L 70.653613 39.749224 
L 71.954074 42.56659 
L 73.254535 44.94929 
L 74.554997 46.896054 
L 75.855458 48.474332 
L 77.155919 49.563493 
L 78.45638 50.527249 
L 79.756841 51.319238 
L 81.057302 52.219505 
L 82.357763 52.979199 
L 83.658224 53.553609 
L 84.958686 53.759319 
L 86.259147 53.549685 
L 87.559608 53.375624 
L 88.860069 53.419674 
L 90.16053 53.153751 
L 91.460991 52.375175 
L 92.761452 51.584239 
L 94.061913 51.258996 
L 94.061913 48.295774 
L 94.061913 48.295774 
L 92.761452 48.792737 
L 91.460991 49.59763 
L 90.16053 50.42635 
L 88.860069 50.786979 
L 87.559608 50.581266 
L 86.259147 50.474899 
L 84.958686 50.871825 
L 83.658224 50.931152 
L 82.357763 50.104742 
L 81.057302 49.1143 
L 79.756841 48.430584 
L 78.45638 47.509594 
L 77.155919 46.47675 
L 75.855458 45.245929 
L 74.554997 43.767571 
L 73.254535 41.612218 
L 71.954074 39.044466 
L 70.653613 36.363668 
L 69.353152 33.35442 
L 68.052691 30.27942 
L 66.75223 27.039034 
L 65.451769 23.637127 
L 64.151308 20.944452 
L 62.850846 20.169251 
L 61.550385 23.37425 
L 60.249924 30.059997 
L 58.949463 38.134622 
L 57.649002 45.115122 
L 56.348541 49.477634 
L 55.04808 51.370695 
L 53.747619 52.327544 
L 52.447157 52.798895 
L 51.146696 52.985286 
L 49.846235 52.876559 
L 48.545774 52.683513 
L 47.245313 52.1818 
L 45.944852 51.382828 
L 44.644391 50.488384 
L 43.34393 49.746785 
L 42.043469 49.268653 
L 40.743007 48.509848 
L 39.442546 48.083425 
L 38.142085 48.160443 
z
" clip-path="url(#pf9eb7d3ff5)" style="fill: #1ae4b6; fill-opacity: 0.3"/>
   </g>
   <g id="FillBetweenPolyCollection_7">
    <path d="M 38.142085 47.158539 
L 38.142085 49.828657 
L 39.442546 50.364944 
L 40.743007 50.985734 
L 42.043469 51.543552 
L 43.34393 51.994098 
L 44.644391 52.616458 
L 45.944852 53.466771 
L 47.245313 54.407434 
L 48.545774 54.604045 
L 49.846235 54.510919 
L 51.146696 53.916409 
L 52.447157 53.892687 
L 53.747619 53.808972 
L 55.04808 53.485146 
L 56.348541 52.969521 
L 57.649002 51.975256 
L 58.949463 49.849508 
L 60.249924 45.34097 
L 61.550385 39.008716 
L 62.850846 32.223697 
L 64.151308 27.526456 
L 65.451769 26.215304 
L 66.75223 26.893252 
L 68.052691 29.490815 
L 69.353152 31.913924 
L 70.653613 34.37779 
L 71.954074 36.684995 
L 73.254535 38.836079 
L 74.554997 40.917576 
L 75.855458 42.852615 
L 77.155919 45.289853 
L 78.45638 47.255813 
L 79.756841 48.428218 
L 81.057302 48.968172 
L 82.357763 49.711338 
L 83.658224 50.556976 
L 84.958686 51.521108 
L 86.259147 52.395084 
L 87.559608 53.135841 
L 88.860069 53.099145 
L 90.16053 53.405036 
L 91.460991 53.193779 
L 92.761452 52.986162 
L 94.061913 52.474965 
L 94.061913 50.058991 
L 94.061913 50.058991 
L 92.761452 50.096287 
L 91.460991 50.483113 
L 90.16053 50.44576 
L 88.860069 50.505037 
L 87.559608 49.965817 
L 86.259147 49.676972 
L 84.958686 48.692156 
L 83.658224 47.488971 
L 82.357763 46.671563 
L 81.057302 46.241661 
L 79.756841 45.3691 
L 78.45638 44.092854 
L 77.155919 42.21561 
L 75.855458 39.999537 
L 74.554997 37.432286 
L 73.254535 35.332981 
L 71.954074 33.189392 
L 70.653613 30.811848 
L 69.353152 28.09121 
L 68.052691 25.045072 
L 66.75223 22.92707 
L 65.451769 21.613188 
L 64.151308 23.402293 
L 62.850846 28.191009 
L 61.550385 35.422468 
L 60.249924 42.628677 
L 58.949463 47.082185 
L 57.649002 49.385668 
L 56.348541 50.441553 
L 55.04808 50.917744 
L 53.747619 50.982917 
L 52.447157 51.118989 
L 51.146696 51.550512 
L 49.846235 51.676726 
L 48.545774 51.964999 
L 47.245313 51.463734 
L 45.944852 50.790049 
L 44.644391 49.991676 
L 43.34393 49.382828 
L 42.043469 48.75513 
L 40.743007 48.108877 
L 39.442546 47.488246 
L 38.142085 47.158539 
z
" clip-path="url(#pf9eb7d3ff5)" style="fill: #46f884; fill-opacity: 0.3"/>
   </g>
   <g id="FillBetweenPolyCollection_8">
    <path d="M 38.142085 44.961921 
L 38.142085 47.72595 
L 39.442546 47.88722 
L 40.743007 48.904726 
L 42.043469 49.913305 
L 43.34393 51.184886 
L 44.644391 52.454107 
L 45.944852 53.078388 
L 47.245313 53.642375 
L 48.545774 54.107536 
L 49.846235 54.745021 
L 51.146696 54.537108 
L 52.447157 54.056278 
L 53.747619 53.295754 
L 55.04808 53.359963 
L 56.348541 53.730517 
L 57.649002 53.945982 
L 58.949463 53.372129 
L 60.249924 52.263647 
L 61.550385 49.827118 
L 62.850846 45.043072 
L 64.151308 38.762863 
L 65.451769 31.560373 
L 66.75223 26.850425 
L 68.052691 25.09948 
L 69.353152 25.958095 
L 70.653613 27.84621 
L 71.954074 30.5606 
L 73.254535 33.324183 
L 74.554997 35.875196 
L 75.855458 37.76395 
L 77.155919 40.088194 
L 78.45638 42.894511 
L 79.756841 46.10684 
L 81.057302 48.367036 
L 82.357763 49.992292 
L 83.658224 50.759336 
L 84.958686 51.321157 
L 86.259147 51.525417 
L 87.559608 51.96762 
L 88.860069 52.340733 
L 90.16053 52.897233 
L 91.460991 52.6993 
L 92.761452 52.250588 
L 94.061913 51.702939 
L 94.061913 48.776753 
L 94.061913 48.776753 
L 92.761452 49.348293 
L 91.460991 50.081401 
L 90.16053 50.056857 
L 88.860069 49.733846 
L 87.559608 49.027678 
L 86.259147 48.747746 
L 84.958686 48.259295 
L 83.658224 47.746024 
L 82.357763 46.797947 
L 81.057302 45.354897 
L 79.756841 42.627943 
L 78.45638 39.645756 
L 77.155919 36.6118 
L 75.855458 34.316914 
L 74.554997 32.159987 
L 73.254535 29.945033 
L 71.954074 26.926691 
L 70.653613 23.953982 
L 69.353152 21.600209 
L 68.052691 20.86465 
L 66.75223 22.292813 
L 65.451769 27.464637 
L 64.151308 34.964044 
L 62.850846 42.738487 
L 61.550385 47.336946 
L 60.249924 49.750585 
L 58.949463 50.942651 
L 57.649002 51.232831 
L 56.348541 51.10291 
L 55.04808 50.543698 
L 53.747619 50.450957 
L 52.447157 50.945269 
L 51.146696 51.948279 
L 49.846235 51.923814 
L 48.545774 51.486868 
L 47.245313 50.70972 
L 45.944852 50.255794 
L 44.644391 49.482425 
L 43.34393 48.496297 
L 42.043469 46.942496 
L 40.743007 45.459255 
L 39.442546 45.134404 
L 38.142085 44.961921 
z
" clip-path="url(#pf9eb7d3ff5)" style="fill: #88ff4e; fill-opacity: 0.3"/>
   </g>
   <g id="FillBetweenPolyCollection_9">
    <path d="M 38.142085 48.46165 
L 38.142085 51.254687 
L 39.442546 51.816536 
L 40.743007 52.294967 
L 42.043469 53.102403 
L 43.34393 53.385295 
L 44.644391 53.923569 
L 45.944852 54.257244 
L 47.245313 54.374542 
L 48.545774 54.269164 
L 49.846235 53.693699 
L 51.146696 53.291432 
L 52.447157 52.950601 
L 53.747619 52.934711 
L 55.04808 52.947928 
L 56.348541 53.513699 
L 57.649002 53.546546 
L 58.949463 53.427823 
L 60.249924 53.411044 
L 61.550385 53.586084 
L 62.850846 53.371 
L 64.151308 51.246872 
L 65.451769 46.526084 
L 66.75223 39.531681 
L 68.052691 32.889273 
L 69.353152 27.570327 
L 70.653613 25.125502 
L 71.954074 25.470713 
L 73.254535 27.555295 
L 74.554997 30.598658 
L 75.855458 33.736038 
L 77.155919 36.243428 
L 78.45638 38.394607 
L 79.756841 40.417417 
L 81.057302 42.339658 
L 82.357763 43.965616 
L 83.658224 45.992642 
L 84.958686 47.787936 
L 86.259147 49.273053 
L 87.559608 50.73475 
L 88.860069 52.079432 
L 90.16053 53.147688 
L 91.460991 53.674784 
L 92.761452 54.056262 
L 94.061913 54.215488 
L 94.061913 51.507387 
L 94.061913 51.507387 
L 92.761452 51.226414 
L 91.460991 50.910574 
L 90.16053 50.266088 
L 88.860069 49.172675 
L 87.559608 47.60011 
L 86.259147 46.165734 
L 84.958686 44.76543 
L 83.658224 43.126744 
L 82.357763 41.230559 
L 81.057302 38.93469 
L 79.756841 36.985653 
L 78.45638 34.923457 
L 77.155919 32.622386 
L 75.855458 29.884461 
L 74.554997 26.670066 
L 73.254535 23.356527 
L 71.954074 21.114391 
L 70.653613 20.827362 
L 69.353152 22.97499 
L 68.052691 28.332493 
L 66.75223 36.504999 
L 65.451769 43.809532 
L 64.151308 48.728268 
L 62.850846 50.655513 
L 61.550385 50.964908 
L 60.249924 50.781296 
L 58.949463 50.693335 
L 57.649002 50.610966 
L 56.348541 50.414123 
L 55.04808 50.451871 
L 53.747619 50.013003 
L 52.447157 50.115793 
L 51.146696 50.391007 
L 49.846235 50.703904 
L 48.545774 50.909805 
L 47.245313 51.422846 
L 45.944852 51.482801 
L 44.644391 51.13654 
L 43.34393 50.698547 
L 42.043469 49.869111 
L 40.743007 49.532334 
L 39.442546 48.822245 
L 38.142085 48.46165 
z
" clip-path="url(#pf9eb7d3ff5)" style="fill: #b9f635; fill-opacity: 0.3"/>
   </g>
   <g id="FillBetweenPolyCollection_10">
    <path d="M 38.142085 48.95177 
L 38.142085 51.614921 
L 39.442546 51.257669 
L 40.743007 50.991268 
L 42.043469 50.843342 
L 43.34393 51.350765 
L 44.644391 52.161464 
L 45.944852 53.244065 
L 47.245313 53.848797 
L 48.545774 54.119936 
L 49.846235 53.707627 
L 51.146696 52.566275 
L 52.447157 52.003496 
L 53.747619 51.609578 
L 55.04808 51.821411 
L 56.348541 52.027969 
L 57.649002 52.211457 
L 58.949463 52.5516 
L 60.249924 53.137602 
L 61.550385 53.674444 
L 62.850846 54.397233 
L 64.151308 54.590771 
L 65.451769 53.848419 
L 66.75223 51.123353 
L 68.052691 46.527924 
L 69.353152 39.997497 
L 70.653613 32.661643 
L 71.954074 27.117613 
L 73.254535 23.864503 
L 74.554997 23.635761 
L 75.855458 25.140504 
L 77.155919 28.053238 
L 78.45638 31.615705 
L 79.756841 34.906807 
L 81.057302 38.462973 
L 82.357763 41.287445 
L 83.658224 43.960091 
L 84.958686 46.343465 
L 86.259147 48.584885 
L 87.559608 50.111069 
L 88.860069 51.335988 
L 90.16053 52.312618 
L 91.460991 52.726412 
L 92.761452 53.205059 
L 94.061913 53.295351 
L 94.061913 50.711108 
L 94.061913 50.711108 
L 92.761452 50.430485 
L 91.460991 50.186537 
L 90.16053 49.336881 
L 88.860069 48.418139 
L 87.559608 47.149975 
L 86.259147 45.386247 
L 84.958686 43.368072 
L 83.658224 40.737684 
L 82.357763 37.824114 
L 81.057302 34.459391 
L 79.756841 31.340714 
L 78.45638 27.644153 
L 77.155919 24.122201 
L 75.855458 20.760025 
L 74.554997 18.677173 
L 73.254535 19.38238 
L 71.954074 22.534651 
L 70.653613 28.759348 
L 69.353152 36.332078 
L 68.052691 43.73035 
L 66.75223 48.915884 
L 65.451769 51.40491 
L 64.151308 52.487872 
L 62.850846 52.265376 
L 61.550385 51.455443 
L 60.249924 50.503217 
L 58.949463 50.051483 
L 57.649002 49.611882 
L 56.348541 49.223877 
L 55.04808 48.984788 
L 53.747619 48.802078 
L 52.447157 48.720801 
L 51.146696 49.785241 
L 49.846235 50.716239 
L 48.545774 51.358959 
L 47.245313 51.241152 
L 45.944852 50.3974 
L 44.644391 49.436065 
L 43.34393 48.361079 
L 42.043469 47.970781 
L 40.743007 48.04492 
L 39.442546 48.602136 
L 38.142085 48.95177 
z
" clip-path="url(#pf9eb7d3ff5)" style="fill: #e1dd37; fill-opacity: 0.3"/>
   </g>
   <g id="FillBetweenPolyCollection_11">
    <path d="M 38.142085 47.246432 
L 38.142085 50.530776 
L 39.442546 50.001538 
L 40.743007 50.083389 
L 42.043469 50.489104 
L 43.34393 50.848618 
L 44.644391 51.108073 
L 45.944852 51.381199 
L 47.245313 51.294942 
L 48.545774 51.591141 
L 49.846235 51.98678 
L 51.146696 52.64877 
L 52.447157 52.656439 
L 53.747619 52.559504 
L 55.04808 52.299416 
L 56.348541 52.167713 
L 57.649002 52.353465 
L 58.949463 52.688516 
L 60.249924 52.623822 
L 61.550385 52.936811 
L 62.850846 52.558988 
L 64.151308 52.813238 
L 65.451769 53.465301 
L 66.75223 53.634894 
L 68.052691 53.04622 
L 69.353152 50.645875 
L 70.653613 46.128729 
L 71.954074 40.1279 
L 73.254535 33.515631 
L 74.554997 28.463732 
L 75.855458 25.085225 
L 77.155919 24.319989 
L 78.45638 26.07413 
L 79.756841 29.068827 
L 81.057302 32.750573 
L 82.357763 36.235548 
L 83.658224 39.203953 
L 84.958686 42.339482 
L 86.259147 44.914952 
L 87.559608 47.425496 
L 88.860069 49.020387 
L 90.16053 50.116396 
L 91.460991 50.73103 
L 92.761452 51.823763 
L 94.061913 52.279304 
L 94.061913 49.462029 
L 94.061913 49.462029 
L 92.761452 48.85929 
L 91.460991 48.123646 
L 90.16053 46.747795 
L 88.860069 45.74838 
L 87.559608 44.163521 
L 86.259147 41.791502 
L 84.958686 38.441305 
L 83.658224 35.472747 
L 82.357763 32.160323 
L 81.057302 28.687701 
L 79.756841 24.890944 
L 78.45638 21.364883 
L 77.155919 19.774438 
L 75.855458 20.444295 
L 74.554997 23.640865 
L 73.254535 29.567422 
L 71.954074 36.399607 
L 70.653613 43.259305 
L 69.353152 48.067872 
L 68.052691 50.349791 
L 66.75223 50.873271 
L 65.451769 50.553827 
L 64.151308 50.528664 
L 62.850846 50.319239 
L 61.550385 49.71763 
L 60.249924 49.976608 
L 58.949463 49.704055 
L 57.649002 49.543402 
L 56.348541 49.33025 
L 55.04808 49.386075 
L 53.747619 49.780509 
L 52.447157 50.028283 
L 51.146696 49.571491 
L 49.846235 49.256529 
L 48.545774 48.72718 
L 47.245313 48.478282 
L 45.944852 48.221071 
L 44.644391 48.273388 
L 43.34393 47.758098 
L 42.043469 47.07622 
L 40.743007 47.008794 
L 39.442546 47.361292 
L 38.142085 47.246432 
z
" clip-path="url(#pf9eb7d3ff5)" style="fill: #faba39; fill-opacity: 0.3"/>
   </g>
   <g id="FillBetweenPolyCollection_12">
    <path d="M 38.142085 45.821958 
L 38.142085 48.748585 
L 39.442546 48.806783 
L 40.743007 49.257369 
L 42.043469 49.540322 
L 43.34393 50.032486 
L 44.644391 50.477303 
L 45.944852 50.859786 
L 47.245313 50.898478 
L 48.545774 50.574172 
L 49.846235 50.117303 
L 51.146696 50.210524 
L 52.447157 50.84514 
L 53.747619 51.745356 
L 55.04808 52.512949 
L 56.348541 53.00624 
L 57.649002 53.308371 
L 58.949463 53.555079 
L 60.249924 53.365174 
L 61.550385 53.144872 
L 62.850846 52.867434 
L 64.151308 52.876298 
L 65.451769 53.090832 
L 66.75223 53.602296 
L 68.052691 53.865134 
L 69.353152 54.368747 
L 70.653613 54.094337 
L 71.954074 52.078238 
L 73.254535 47.072406 
L 74.554997 39.163499 
L 75.855458 30.445951 
L 77.155919 23.735536 
L 78.45638 20.421432 
L 79.756841 20.906239 
L 81.057302 23.000783 
L 82.357763 26.55803 
L 83.658224 30.3431 
L 84.958686 34.167311 
L 86.259147 38.018242 
L 87.559608 41.318162 
L 88.860069 44.248424 
L 90.16053 46.34001 
L 91.460991 48.007357 
L 92.761452 49.304062 
L 94.061913 49.713641 
L 94.061913 47.08652 
L 94.061913 47.08652 
L 92.761452 46.329343 
L 91.460991 45.335244 
L 90.16053 43.419286 
L 88.860069 40.674922 
L 87.559608 37.812494 
L 86.259147 34.404765 
L 84.958686 30.585409 
L 83.658224 26.278373 
L 82.357763 22.276231 
L 81.057302 18.92528 
L 79.756841 16.09455 
L 78.45638 16.042412 
L 77.155919 19.045354 
L 75.855458 26.058807 
L 74.554997 35.524385 
L 73.254535 44.357688 
L 71.954074 49.83775 
L 70.653613 51.745309 
L 69.353152 51.768065 
L 68.052691 51.578115 
L 66.75223 51.009676 
L 65.451769 50.692449 
L 64.151308 50.415145 
L 62.850846 50.494434 
L 61.550385 50.647241 
L 60.249924 50.813116 
L 58.949463 50.690924 
L 57.649002 50.585056 
L 56.348541 50.196092 
L 55.04808 49.774364 
L 53.747619 49.174594 
L 52.447157 48.145873 
L 51.146696 47.126971 
L 49.846235 46.948296 
L 48.545774 47.423722 
L 47.245313 47.977378 
L 45.944852 48.042437 
L 44.644391 47.634867 
L 43.34393 46.897299 
L 42.043469 46.417464 
L 40.743007 46.195829 
L 39.442546 46.227232 
L 38.142085 45.821958 
z
" clip-path="url(#pf9eb7d3ff5)" style="fill: #fd8d27; fill-opacity: 0.3"/>
   </g>
   <g id="FillBetweenPolyCollection_13">
    <path d="M 38.142085 46.172104 
L 38.142085 49.156267 
L 39.442546 49.733469 
L 40.743007 50.568033 
L 42.043469 51.180595 
L 43.34393 52.09699 
L 44.644391 52.90086 
L 45.944852 53.522926 
L 47.245313 53.871116 
L 48.545774 53.67202 
L 49.846235 53.033526 
L 51.146696 52.306711 
L 52.447157 51.271477 
L 53.747619 51.070913 
L 55.04808 51.27281 
L 56.348541 51.5802 
L 57.649002 51.519488 
L 58.949463 51.66653 
L 60.249924 52.072354 
L 61.550385 52.606017 
L 62.850846 52.868918 
L 64.151308 53.156176 
L 65.451769 53.653866 
L 66.75223 54.007544 
L 68.052691 54.400641 
L 69.353152 54.580542 
L 70.653613 54.429859 
L 71.954074 54.095225 
L 73.254535 53.099325 
L 74.554997 50.180688 
L 75.855458 44.676268 
L 77.155919 37.540406 
L 78.45638 29.622627 
L 79.756841 23.514725 
L 81.057302 20.78289 
L 82.357763 21.107426 
L 83.658224 24.180893 
L 84.958686 27.958285 
L 86.259147 32.084271 
L 87.559608 36.426189 
L 88.860069 40.36358 
L 90.16053 43.573735 
L 91.460991 46.097768 
L 92.761452 47.923727 
L 94.061913 49.12165 
L 94.061913 46.252761 
L 94.061913 46.252761 
L 92.761452 44.863609 
L 91.460991 42.71283 
L 90.16053 40.242519 
L 88.860069 36.918369 
L 87.559608 32.710889 
L 86.259147 28.139777 
L 84.958686 23.612354 
L 83.658224 19.50261 
L 82.357763 16.598421 
L 81.057302 15.725791 
L 79.756841 19.033762 
L 78.45638 25.59659 
L 77.155919 33.796034 
L 75.855458 42.069921 
L 74.554997 47.622357 
L 73.254535 50.372465 
L 71.954074 51.462717 
L 70.653613 51.82041 
L 69.353152 51.885426 
L 68.052691 51.811935 
L 66.75223 51.448643 
L 65.451769 50.862969 
L 64.151308 50.581987 
L 62.850846 50.27022 
L 61.550385 49.892375 
L 60.249924 49.530643 
L 58.949463 48.977323 
L 57.649002 48.619773 
L 56.348541 48.446194 
L 55.04808 48.420181 
L 53.747619 48.250787 
L 52.447157 48.582931 
L 51.146696 49.163395 
L 49.846235 50.270237 
L 48.545774 50.810863 
L 47.245313 50.823821 
L 45.944852 50.479912 
L 44.644391 49.748878 
L 43.34393 48.920447 
L 42.043469 48.231639 
L 40.743007 47.264414 
L 39.442546 46.58755 
L 38.142085 46.172104 
z
" clip-path="url(#pf9eb7d3ff5)" style="fill: #f05b12; fill-opacity: 0.3"/>
   </g>
   <g id="FillBetweenPolyCollection_14">
    <path d="M 38.142085 48.693112 
L 38.142085 51.53489 
L 39.442546 51.90827 
L 40.743007 52.053532 
L 42.043469 52.193051 
L 43.34393 52.123095 
L 44.644391 51.705614 
L 45.944852 51.478234 
L 47.245313 51.4929 
L 48.545774 52.506666 
L 49.846235 53.171889 
L 51.146696 53.870142 
L 52.447157 53.265732 
L 53.747619 52.402018 
L 55.04808 51.720311 
L 56.348541 51.849102 
L 57.649002 52.290295 
L 58.949463 52.771104 
L 60.249924 52.830649 
L 61.550385 52.735131 
L 62.850846 53.040238 
L 64.151308 53.457167 
L 65.451769 53.709687 
L 66.75223 53.728289 
L 68.052691 53.654564 
L 69.353152 53.336201 
L 70.653613 53.6351 
L 71.954074 53.915309 
L 73.254535 54.179665 
L 74.554997 53.785157 
L 75.855458 52.677452 
L 77.155919 49.86578 
L 78.45638 44.882994 
L 79.756841 37.255436 
L 81.057302 28.712481 
L 82.357763 22.339889 
L 83.658224 20.04203 
L 84.958686 21.070935 
L 86.259147 24.493139 
L 87.559608 29.178144 
L 88.860069 33.564675 
L 90.16053 37.506847 
L 91.460991 40.37189 
L 92.761452 42.496179 
L 94.061913 43.567709 
L 94.061913 40.784436 
L 94.061913 40.784436 
L 92.761452 39.323913 
L 91.460991 37.013541 
L 90.16053 33.717082 
L 88.860069 29.596854 
L 87.559608 24.767181 
L 86.259147 20.547177 
L 84.958686 16.822127 
L 83.658224 14.95948 
L 82.357763 17.495485 
L 81.057302 24.565253 
L 79.756841 33.847118 
L 78.45638 42.010663 
L 77.155919 47.218773 
L 75.855458 49.670191 
L 74.554997 51.147701 
L 73.254535 51.759294 
L 71.954074 51.657699 
L 70.653613 50.952906 
L 69.353152 50.730128 
L 68.052691 50.7418 
L 66.75223 51.291125 
L 65.451769 51.336435 
L 64.151308 50.797974 
L 62.850846 50.276906 
L 61.550385 50.128708 
L 60.249924 49.965508 
L 58.949463 49.793132 
L 57.649002 49.498625 
L 56.348541 48.995855 
L 55.04808 49.046111 
L 53.747619 49.662713 
L 52.447157 50.632542 
L 51.146696 50.9075 
L 49.846235 50.730067 
L 48.545774 49.350382 
L 47.245313 48.588734 
L 45.944852 48.127123 
L 44.644391 48.585031 
L 43.34393 49.057688 
L 42.043469 49.347791 
L 40.743007 49.270629 
L 39.442546 48.850949 
L 38.142085 48.693112 
z
" clip-path="url(#pf9eb7d3ff5)" style="fill: #d63506; fill-opacity: 0.3"/>
   </g>
   <g id="FillBetweenPolyCollection_15">
    <path d="M 38.142085 47.885761 
L 38.142085 50.684004 
L 39.442546 50.837317 
L 40.743007 50.683919 
L 42.043469 50.970899 
L 43.34393 51.346272 
L 44.644391 51.507538 
L 45.944852 51.945202 
L 47.245313 52.068426 
L 48.545774 52.216347 
L 49.846235 52.327644 
L 51.146696 52.663547 
L 52.447157 52.542612 
L 53.747619 52.155713 
L 55.04808 52.031371 
L 56.348541 51.738758 
L 57.649002 51.206373 
L 58.949463 51.185202 
L 60.249924 51.339842 
L 61.550385 51.533657 
L 62.850846 51.648586 
L 64.151308 52.125719 
L 65.451769 52.714269 
L 66.75223 53.304639 
L 68.052691 53.29411 
L 69.353152 53.2969 
L 70.653613 52.992337 
L 71.954074 52.866664 
L 73.254535 52.847195 
L 74.554997 52.569235 
L 75.855458 52.514538 
L 77.155919 52.503162 
L 78.45638 52.287668 
L 79.756841 50.472986 
L 81.057302 45.880865 
L 82.357763 38.689621 
L 83.658224 30.459919 
L 84.958686 23.798775 
L 86.259147 21.010237 
L 87.559608 20.613083 
L 88.860069 22.449316 
L 90.16053 25.752486 
L 91.460991 30.074844 
L 92.761452 34.069814 
L 94.061913 36.583971 
L 94.061913 33.040324 
L 94.061913 33.040324 
L 92.761452 30.338162 
L 91.460991 25.893526 
L 90.16053 21.531534 
L 88.860069 18.09974 
L 87.559608 15.966504 
L 86.259147 15.546074 
L 84.958686 19.207105 
L 83.658224 26.21281 
L 82.357763 35.124299 
L 81.057302 42.91364 
L 79.756841 47.667894 
L 78.45638 49.556183 
L 77.155919 49.793399 
L 75.855458 49.65537 
L 74.554997 50.017738 
L 73.254535 50.234982 
L 71.954074 50.298593 
L 70.653613 50.255275 
L 69.353152 50.426248 
L 68.052691 50.860426 
L 66.75223 50.611456 
L 65.451769 50.189524 
L 64.151308 49.463923 
L 62.850846 48.992591 
L 61.550385 48.700672 
L 60.249924 48.608583 
L 58.949463 48.400139 
L 57.649002 48.343722 
L 56.348541 48.39827 
L 55.04808 49.024852 
L 53.747619 49.680945 
L 52.447157 49.688969 
L 51.146696 49.565472 
L 49.846235 49.577631 
L 48.545774 49.168773 
L 47.245313 48.807145 
L 45.944852 48.557657 
L 44.644391 48.616255 
L 43.34393 48.222661 
L 42.043469 47.985645 
L 40.743007 47.869682 
L 39.442546 47.642271 
L 38.142085 47.885761 
z
" clip-path="url(#pf9eb7d3ff5)" style="fill: #af1801; fill-opacity: 0.3"/>
   </g>
   <g id="FillBetweenPolyCollection_16">
    <path d="M 38.142085 44.752123 
L 38.142085 47.844667 
L 39.442546 48.147752 
L 40.743007 48.423289 
L 42.043469 48.972468 
L 43.34393 49.493658 
L 44.644391 50.012538 
L 45.944852 50.545621 
L 47.245313 50.858535 
L 48.545774 51.442128 
L 49.846235 51.128471 
L 51.146696 50.83091 
L 52.447157 50.369741 
L 53.747619 50.548688 
L 55.04808 50.806285 
L 56.348541 50.936763 
L 57.649002 51.086026 
L 58.949463 50.905391 
L 60.249924 50.840685 
L 61.550385 50.678311 
L 62.850846 50.83002 
L 64.151308 50.392195 
L 65.451769 50.45336 
L 66.75223 50.94094 
L 68.052691 51.937179 
L 69.353152 52.905287 
L 70.653613 53.294346 
L 71.954074 53.323035 
L 73.254535 53.14043 
L 74.554997 53.159852 
L 75.855458 53.111457 
L 77.155919 52.970016 
L 78.45638 52.797805 
L 79.756841 52.323756 
L 81.057302 51.312433 
L 82.357763 48.9665 
L 83.658224 43.563658 
L 84.958686 35.942418 
L 86.259147 27.968179 
L 87.559608 22.31857 
L 88.860069 20.605694 
L 90.16053 21.928931 
L 91.460991 25.114998 
L 92.761452 28.615437 
L 94.061913 30.942215 
L 94.061913 27.158994 
L 94.061913 27.158994 
L 92.761452 24.773505 
L 91.460991 20.893042 
L 90.16053 17.346232 
L 88.860069 15.925654 
L 87.559608 18.000024 
L 86.259147 23.672853 
L 84.958686 32.341723 
L 83.658224 40.887494 
L 82.357763 46.06099 
L 81.057302 48.544715 
L 79.756841 49.516787 
L 78.45638 50.087004 
L 77.155919 50.432211 
L 75.855458 50.458558 
L 74.554997 50.441728 
L 73.254535 50.54948 
L 71.954074 50.659177 
L 70.653613 50.832063 
L 69.353152 50.396455 
L 68.052691 49.406285 
L 66.75223 48.353358 
L 65.451769 47.80901 
L 64.151308 47.800348 
L 62.850846 47.595607 
L 61.550385 48.055377 
L 60.249924 48.217711 
L 58.949463 48.273327 
L 57.649002 48.051565 
L 56.348541 48.15941 
L 55.04808 48.009563 
L 53.747619 47.633315 
L 52.447157 47.471607 
L 51.146696 47.597497 
L 49.846235 48.299272 
L 48.545774 48.2582 
L 47.245313 48.110946 
L 45.944852 47.345556 
L 44.644391 46.911482 
L 43.34393 46.486545 
L 42.043469 45.954471 
L 40.743007 45.412347 
L 39.442546 44.835558 
L 38.142085 44.752123 
z
" clip-path="url(#pf9eb7d3ff5)" style="fill: #7a0403; fill-opacity: 0.3"/>
   </g>
   <g id="matplotlib.axis_1">
    <g id="xtick_1">
     <g id="line2d_1">
      <defs>
       <path id="m2c3504ea85" d="M 0 0 
L 0 -3 
" style="stroke: #000000; stroke-width: 0.5"/>
      </defs>
      <g>
       <use xlink:href="#m2c3504ea85" x="43.99416" y="57.308468" style="stroke: #000000; stroke-width: 0.5"/>
      </g>
     </g>
     <g id="text_1">
      <text style="font-size: 5.5px; font-family: 'DejaVu Sans', 'Bitstream Vera Sans', 'Computer Modern Sans Serif', 'Lucida Grande', 'Verdana', 'Geneva', 'Lucid', 'Arial', 'Helvetica', 'Avant Garde', sans-serif; text-anchor: middle" x="43.99416" y="64.987609" transform="rotate(-0 43.99416 64.987609)">0</text>
     </g>
    </g>
    <g id="xtick_2">
     <g id="line2d_2">
      <g>
       <use xlink:href="#m2c3504ea85" x="70.003383" y="57.308468" style="stroke: #000000; stroke-width: 0.5"/>
      </g>
     </g>
     <g id="text_2">
      <text style="font-size: 5.5px; font-family: 'DejaVu Sans', 'Bitstream Vera Sans', 'Computer Modern Sans Serif', 'Lucida Grande', 'Verdana', 'Geneva', 'Lucid', 'Arial', 'Helvetica', 'Avant Garde', sans-serif; text-anchor: middle" x="70.003383" y="64.987609" transform="rotate(-0 70.003383 64.987609)">20</text>
     </g>
    </g>
    <g id="xtick_3">
     <g id="line2d_3">
      <g>
       <use xlink:href="#m2c3504ea85" x="96.012605" y="57.308468" style="stroke: #000000; stroke-width: 0.5"/>
      </g>
     </g>
     <g id="text_3">
      <text style="font-size: 5.5px; font-family: 'DejaVu Sans', 'Bitstream Vera Sans', 'Computer Modern Sans Serif', 'Lucida Grande', 'Verdana', 'Geneva', 'Lucid', 'Arial', 'Helvetica', 'Avant Garde', sans-serif; text-anchor: middle" x="96.012605" y="64.987609" transform="rotate(-0 96.012605 64.987609)">40</text>
     </g>
    </g>
    <g id="text_4">
     <text style="font-size: 7px; font-family: 'DejaVu Sans', 'Bitstream Vera Sans', 'Computer Modern Sans Serif', 'Lucida Grande', 'Verdana', 'Geneva', 'Lucid', 'Arial', 'Helvetica', 'Avant Garde', sans-serif" transform="translate(48.283171 75.450343)">Time from</text>
     <text style="font-size: 7px; font-family: 'DejaVu Sans', 'Bitstream Vera Sans', 'Computer Modern Sans Serif', 'Lucida Grande', 'Verdana', 'Geneva', 'Lucid', 'Arial', 'Helvetica', 'Avant Garde', sans-serif" transform="translate(27.142624 83.288812)">transmitter firing (ms)</text>
    </g>
   </g>
   <g id="matplotlib.axis_2">
    <g id="ytick_1">
     <g id="line2d_4">
      <defs>
       <path id="m30aaac8c29" d="M 0 0 
L 3 0 
" style="stroke: #000000; stroke-width: 0.5"/>
      </defs>
      <g>
       <use xlink:href="#m30aaac8c29" x="35.346094" y="55.021854" style="stroke: #000000; stroke-width: 0.5"/>
      </g>
     </g>
     <g id="text_5">
      <text style="font-size: 5.5px; font-family: 'DejaVu Sans', 'Bitstream Vera Sans', 'Computer Modern Sans Serif', 'Lucida Grande', 'Verdana', 'Geneva', 'Lucid', 'Arial', 'Helvetica', 'Avant Garde', sans-serif; text-anchor: end" x="31.846094" y="57.111424" transform="rotate(-0 31.846094 57.111424)">0.00</text>
     </g>
    </g>
    <g id="ytick_2">
     <g id="line2d_5">
      <g>
       <use xlink:href="#m30aaac8c29" x="35.346094" y="32.155712" style="stroke: #000000; stroke-width: 0.5"/>
      </g>
     </g>
     <g id="text_6">
      <text style="font-size: 5.5px; font-family: 'DejaVu Sans', 'Bitstream Vera Sans', 'Computer Modern Sans Serif', 'Lucida Grande', 'Verdana', 'Geneva', 'Lucid', 'Arial', 'Helvetica', 'Avant Garde', sans-serif; text-anchor: end" x="31.846094" y="34.245282" transform="rotate(-0 31.846094 34.245282)">0.01</text>
     </g>
    </g>
    <g id="ytick_3">
     <g id="line2d_6">
      <g>
       <use xlink:href="#m30aaac8c29" x="35.346094" y="9.28957" style="stroke: #000000; stroke-width: 0.5"/>
      </g>
     </g>
     <g id="text_7">
      <text style="font-size: 5.5px; font-family: 'DejaVu Sans', 'Bitstream Vera Sans', 'Computer Modern Sans Serif', 'Lucida Grande', 'Verdana', 'Geneva', 'Lucid', 'Arial', 'Helvetica', 'Avant Garde', sans-serif; text-anchor: end" x="31.846094" y="11.379141" transform="rotate(-0 31.846094 11.379141)">0.02</text>
     </g>
    </g>
    <g id="text_8">
     <!-- $\Delta p_{F} = p_{F} - p_{F}^{base}$ -->
     <g transform="translate(13.64 60.074019) rotate(-90)">
      <text>
       <tspan x="0" y="-0.601562" style="font-size: 7px; font-family: 'DejaVu Sans'">Δ</tspan>
       <tspan x="13.605566" y="-0.601562" style="font-size: 7px; font-family: 'DejaVu Sans'">=</tspan>
       <tspan x="29.651562" y="-0.601562" style="font-size: 7px; font-family: 'DejaVu Sans'">−</tspan>
       <tspan x="4.788574" y="-0.601562" style="font-style: oblique; font-size: 7px; font-family: 'DejaVu Sans'">p</tspan>
       <tspan x="20.83457" y="-0.601562" style="font-style: oblique; font-size: 7px; font-family: 'DejaVu Sans'">p</tspan>
       <tspan x="36.880566" y="-0.601562" style="font-style: oblique; font-size: 7px; font-family: 'DejaVu Sans'">p</tspan>
       <tspan x="9.231934" y="0.546875" style="font-style: oblique; font-size: 4.9px; font-family: 'DejaVu Sans'">F</tspan>
       <tspan x="25.27793" y="0.546875" style="font-style: oblique; font-size: 4.9px; font-family: 'DejaVu Sans'">F</tspan>
       <tspan x="41.323926" y="1.3125" style="font-style: oblique; font-size: 4.9px; font-family: 'DejaVu Sans'">F</tspan>
       <tspan x="41.649681" y="-3.28125" style="font-style: oblique; font-size: 4.9px; font-family: 'DejaVu Sans'">b</tspan>
       <tspan x="44.760033" y="-3.28125" style="font-style: oblique; font-size: 4.9px; font-family: 'DejaVu Sans'">a</tspan>
       <tspan x="47.762718" y="-3.28125" style="font-style: oblique; font-size: 4.9px; font-family: 'DejaVu Sans'">s</tspan>
       <tspan x="50.315599" y="-3.28125" style="font-style: oblique; font-size: 4.9px; font-family: 'DejaVu Sans'">e</tspan>
      </text>
     </g>
    </g>
   </g>
   <g id="line2d_7">
    <path d="M 38.142085 52.583548 
L 39.442546 52.483058 
L 40.743007 52.48005 
L 42.043469 52.190588 
L 43.34393 50.357309 
L 44.644391 45.717915 
L 45.944852 38.412193 
L 47.245313 30.507338 
L 48.545774 24.691919 
L 49.846235 22.285094 
L 51.146696 22.844374 
L 52.447157 25.366506 
L 53.747619 28.960646 
L 55.04808 32.736874 
L 56.348541 36.047825 
L 57.649002 38.834455 
L 58.949463 41.382754 
L 60.249924 43.721265 
L 61.550385 45.546029 
L 62.850846 46.737845 
L 64.151308 47.571051 
L 65.451769 48.411772 
L 66.75223 49.353367 
L 68.052691 50.185718 
L 69.353152 50.847081 
L 70.653613 51.489172 
L 71.954074 51.965548 
L 73.254535 52.002928 
L 74.554997 51.73263 
L 75.855458 51.403385 
L 77.155919 50.993189 
L 78.45638 50.4878 
L 79.756841 50.057579 
L 81.057302 49.786343 
L 82.357763 49.517128 
L 83.658224 49.068167 
L 84.958686 48.438979 
L 86.259147 47.774297 
L 87.559608 47.3037 
L 88.860069 47.156768 
L 90.16053 47.205401 
L 91.460991 47.303663 
L 92.761452 47.447663 
L 94.061913 47.588844 
" clip-path="url(#pf9eb7d3ff5)" style="fill: none; stroke: #30123b; stroke-width: 1.2; stroke-linecap: square"/>
   </g>
   <g id="line2d_8">
    <path d="M 38.142085 50.671673 
L 39.442546 51.063927 
L 40.743007 51.507511 
L 42.043469 52.074699 
L 43.34393 52.841861 
L 44.644391 52.981021 
L 45.944852 51.020615 
L 47.245313 46.021788 
L 48.545774 38.607252 
L 49.846235 30.972316 
L 51.146696 25.518255 
L 52.447157 23.33663 
L 53.747619 24.155615 
L 55.04808 27.069848 
L 56.348541 30.868834 
L 57.649002 34.5023 
L 58.949463 37.596397 
L 60.249924 40.269128 
L 61.550385 42.693976 
L 62.850846 44.839072 
L 64.151308 46.542535 
L 65.451769 47.928849 
L 66.75223 49.321137 
L 68.052691 50.620283 
L 69.353152 51.36714 
L 70.653613 51.599625 
L 71.954074 51.909159 
L 73.254535 52.459406 
L 74.554997 52.737796 
L 75.855458 52.36068 
L 77.155919 51.548124 
L 78.45638 50.7972 
L 79.756841 50.414576 
L 81.057302 50.325998 
L 82.357763 50.187131 
L 83.658224 49.699621 
L 84.958686 48.877001 
L 86.259147 48.018768 
L 87.559608 47.449292 
L 88.860069 47.289042 
L 90.16053 47.416372 
L 91.460991 47.637195 
L 92.761452 47.828018 
L 94.061913 47.932099 
" clip-path="url(#pf9eb7d3ff5)" style="fill: none; stroke: #4143a7; stroke-width: 1.2; stroke-linecap: square"/>
   </g>
   <g id="line2d_9">
    <path d="M 38.142085 50.247254 
L 39.442546 50.591277 
L 40.743007 51.408789 
L 42.043469 52.595704 
L 43.34393 53.840265 
L 44.644391 54.755911 
L 45.944852 54.933879 
L 47.245313 53.923774 
L 48.545774 50.852755 
L 49.846235 44.826928 
L 51.146696 36.554936 
L 52.447157 28.636567 
L 53.747619 23.629738 
L 55.04808 22.329377 
L 56.348541 23.71969 
L 57.649002 26.257796 
L 58.949463 29.1173 
L 60.249924 32.09594 
L 61.550385 35.020514 
L 62.850846 37.770598 
L 64.151308 40.346509 
L 65.451769 42.715847 
L 66.75223 44.894702 
L 68.052691 46.953607 
L 69.353152 48.788873 
L 70.653613 50.10234 
L 71.954074 50.68966 
L 73.254535 50.707147 
L 74.554997 50.607351 
L 75.855458 50.751502 
L 77.155919 51.054478 
L 78.45638 51.13906 
L 79.756841 50.923379 
L 81.057302 50.65447 
L 82.357763 50.348579 
L 83.658224 49.886266 
L 84.958686 49.483256 
L 86.259147 49.40514 
L 87.559608 49.517123 
L 88.860069 49.445452 
L 90.16053 48.991443 
L 91.460991 48.380018 
L 92.761452 48.00861 
L 94.061913 47.937092 
" clip-path="url(#pf9eb7d3ff5)" style="fill: none; stroke: #4771e9; stroke-width: 1.2; stroke-linecap: square"/>
   </g>
   <g id="line2d_10">
    <path d="M 38.142085 52.289737 
L 39.442546 52.219351 
L 40.743007 52.266495 
L 42.043469 52.570891 
L 43.34393 53.112229 
L 44.644391 53.840883 
L 45.944852 54.692863 
L 47.245313 55.450243 
L 48.545774 55.686361 
L 49.846235 54.646954 
L 51.146696 51.360788 
L 52.447157 45.405596 
L 53.747619 37.636957 
L 55.04808 30.005539 
L 56.348541 24.472093 
L 57.649002 22.066539 
L 58.949463 22.821732 
L 60.249924 26.028542 
L 61.550385 30.451756 
L 62.850846 34.692752 
L 64.151308 37.828634 
L 65.451769 39.9617 
L 66.75223 41.823879 
L 68.052691 43.841015 
L 69.353152 45.906061 
L 70.653613 47.781918 
L 71.954074 49.295077 
L 73.254535 50.302453 
L 74.554997 50.794438 
L 75.855458 50.980951 
L 77.155919 51.073561 
L 78.45638 51.071689 
L 79.756841 50.976737 
L 81.057302 50.964026 
L 82.357763 51.049982 
L 83.658224 51.008928 
L 84.958686 50.759081 
L 86.259147 50.343556 
L 87.559608 49.735621 
L 88.860069 49.108878 
L 90.16053 48.857014 
L 91.460991 48.97314 
L 92.761452 48.995107 
L 94.061913 48.815226 
" clip-path="url(#pf9eb7d3ff5)" style="fill: none; stroke: #3e9bfe; stroke-width: 1.2; stroke-linecap: square"/>
   </g>
   <g id="line2d_11">
    <path d="M 38.142085 49.400477 
L 39.442546 49.795902 
L 40.743007 50.57717 
L 42.043469 51.557029 
L 43.34393 52.378138 
L 44.644391 52.84276 
L 45.944852 53.083555 
L 47.245313 53.188042 
L 48.545774 53.035654 
L 49.846235 52.702816 
L 51.146696 52.317241 
L 52.447157 51.396933 
L 53.747619 48.830725 
L 55.04808 43.624115 
L 56.348541 36.036418 
L 57.649002 28.173629 
L 58.949463 22.698245 
L 60.249924 20.805474 
L 61.550385 22.010037 
L 62.850846 25.226026 
L 64.151308 29.356902 
L 65.451769 33.530528 
L 66.75223 37.206385 
L 68.052691 40.026634 
L 69.353152 41.97168 
L 70.653613 43.552654 
L 71.954074 45.333083 
L 73.254535 47.226319 
L 74.554997 48.637092 
L 75.855458 49.371199 
L 77.155919 49.808459 
L 78.45638 50.213907 
L 79.756841 50.568598 
L 81.057302 50.783356 
L 82.357763 50.672421 
L 83.658224 50.251806 
L 84.958686 49.932827 
L 86.259147 49.843554 
L 87.559608 49.714874 
L 88.860069 49.56033 
L 90.16053 49.510246 
L 91.460991 49.543406 
L 92.761452 49.797428 
L 94.061913 50.180922 
" clip-path="url(#pf9eb7d3ff5)" style="fill: none; stroke: #22c5e2; stroke-width: 1.2; stroke-linecap: square"/>
   </g>
   <g id="line2d_12">
    <path d="M 38.142085 49.56978 
L 39.442546 49.643407 
L 40.743007 50.042106 
L 42.043469 50.648593 
L 43.34393 51.265999 
L 44.644391 52.001672 
L 45.944852 52.845754 
L 47.245313 53.567304 
L 48.545774 54.048967 
L 49.846235 54.287518 
L 51.146696 54.288164 
L 52.447157 54.111535 
L 53.747619 53.761771 
L 55.04808 52.881304 
L 56.348541 50.69597 
L 57.649002 46.379414 
L 58.949463 39.740856 
L 60.249924 31.963381 
L 61.550385 25.459881 
L 62.850846 22.353099 
L 64.151308 22.911469 
L 65.451769 25.675936 
L 66.75223 29.009305 
L 68.052691 32.169841 
L 69.353152 35.153618 
L 70.653613 38.056446 
L 71.954074 40.805528 
L 73.254535 43.280754 
L 74.554997 45.331813 
L 75.855458 46.86013 
L 77.155919 48.020121 
L 78.45638 49.018421 
L 79.756841 49.874911 
L 81.057302 50.666902 
L 82.357763 51.54197 
L 83.658224 52.24238 
L 84.958686 52.315572 
L 86.259147 52.012292 
L 87.559608 51.978445 
L 88.860069 52.103327 
L 90.16053 51.790051 
L 91.460991 50.986402 
L 92.761452 50.188488 
L 94.061913 49.777385 
" clip-path="url(#pf9eb7d3ff5)" style="fill: none; stroke: #1ae4b6; stroke-width: 1.2; stroke-linecap: square"/>
   </g>
   <g id="line2d_13">
    <path d="M 38.142085 48.493598 
L 39.442546 48.926595 
L 40.743007 49.547306 
L 42.043469 50.149341 
L 43.34393 50.688463 
L 44.644391 51.304067 
L 45.944852 52.12841 
L 47.245313 52.935584 
L 48.545774 53.284522 
L 49.846235 53.093823 
L 51.146696 52.733461 
L 52.447157 52.505838 
L 53.747619 52.395945 
L 55.04808 52.201445 
L 56.348541 51.705537 
L 57.649002 50.680462 
L 58.949463 48.465847 
L 60.249924 43.984824 
L 61.550385 37.215592 
L 62.850846 30.207353 
L 64.151308 25.464374 
L 65.451769 23.914246 
L 66.75223 24.910161 
L 68.052691 27.267944 
L 69.353152 30.002567 
L 70.653613 32.594819 
L 71.954074 34.937193 
L 73.254535 37.08453 
L 74.554997 39.174931 
L 75.855458 41.426076 
L 77.155919 43.752732 
L 78.45638 45.674334 
L 79.756841 46.898659 
L 81.057302 47.604916 
L 82.357763 48.191451 
L 83.658224 49.022973 
L 84.958686 50.106632 
L 86.259147 51.036028 
L 87.559608 51.550829 
L 88.860069 51.802091 
L 90.16053 51.925398 
L 91.460991 51.838446 
L 92.761452 51.541225 
L 94.061913 51.266978 
" clip-path="url(#pf9eb7d3ff5)" style="fill: none; stroke: #46f884; stroke-width: 1.2; stroke-linecap: square"/>
   </g>
   <g id="line2d_14">
    <path d="M 38.142085 46.343935 
L 39.442546 46.510812 
L 40.743007 47.18199 
L 42.043469 48.427901 
L 43.34393 49.840592 
L 44.644391 50.968266 
L 45.944852 51.667091 
L 47.245313 52.176047 
L 48.545774 52.797202 
L 49.846235 53.334418 
L 51.146696 53.242693 
L 52.447157 52.500774 
L 53.747619 51.873356 
L 55.04808 51.951831 
L 56.348541 52.416714 
L 57.649002 52.589406 
L 58.949463 52.15739 
L 60.249924 51.007116 
L 61.550385 48.582032 
L 62.850846 43.890779 
L 64.151308 36.863453 
L 65.451769 29.512505 
L 66.75223 24.571619 
L 68.052691 22.982065 
L 69.353152 23.779152 
L 70.653613 25.900096 
L 71.954074 28.743645 
L 73.254535 31.634608 
L 74.554997 34.017592 
L 75.855458 36.040432 
L 77.155919 38.349997 
L 78.45638 41.270133 
L 79.756841 44.367391 
L 81.057302 46.860967 
L 82.357763 48.39512 
L 83.658224 49.25268 
L 84.958686 49.790226 
L 86.259147 50.136581 
L 87.559608 50.497649 
L 88.860069 51.03729 
L 90.16053 51.477045 
L 91.460991 51.390351 
L 92.761452 50.799441 
L 94.061913 50.239846 
" clip-path="url(#pf9eb7d3ff5)" style="fill: none; stroke: #88ff4e; stroke-width: 1.2; stroke-linecap: square"/>
   </g>
   <g id="line2d_15">
    <path d="M 38.142085 49.858169 
L 39.442546 50.319391 
L 40.743007 50.91365 
L 42.043469 51.485757 
L 43.34393 52.041921 
L 44.644391 52.530055 
L 45.944852 52.870023 
L 47.245313 52.898694 
L 48.545774 52.589485 
L 49.846235 52.198802 
L 51.146696 51.84122 
L 52.447157 51.533197 
L 53.747619 51.473857 
L 55.04808 51.699899 
L 56.348541 51.963911 
L 57.649002 52.078756 
L 58.949463 52.060579 
L 60.249924 52.09617 
L 61.550385 52.275496 
L 62.850846 52.013256 
L 64.151308 49.98757 
L 65.451769 45.167808 
L 66.75223 38.01834 
L 68.052691 30.610883 
L 69.353152 25.272658 
L 70.653613 22.976432 
L 71.954074 23.292552 
L 73.254535 25.455911 
L 74.554997 28.634362 
L 75.855458 31.81025 
L 77.155919 34.432907 
L 78.45638 36.659032 
L 79.756841 38.701535 
L 81.057302 40.637174 
L 82.357763 42.598088 
L 83.658224 44.559693 
L 84.958686 46.276683 
L 86.259147 47.719394 
L 87.559608 49.16743 
L 88.860069 50.626054 
L 90.16053 51.706888 
L 91.460991 52.292679 
L 92.761452 52.641338 
L 94.061913 52.861438 
" clip-path="url(#pf9eb7d3ff5)" style="fill: none; stroke: #b9f635; stroke-width: 1.2; stroke-linecap: square"/>
   </g>
   <g id="line2d_16">
    <path d="M 38.142085 50.283345 
L 39.442546 49.929903 
L 40.743007 49.518094 
L 42.043469 49.407061 
L 43.34393 49.855922 
L 44.644391 50.798764 
L 45.944852 51.820733 
L 47.245313 52.544975 
L 48.545774 52.739447 
L 49.846235 52.211933 
L 51.146696 51.175758 
L 52.447157 50.362149 
L 53.747619 50.205828 
L 55.04808 50.403099 
L 56.348541 50.625923 
L 57.649002 50.911669 
L 58.949463 51.301542 
L 60.249924 51.820409 
L 61.550385 52.564944 
L 62.850846 53.331304 
L 64.151308 53.539322 
L 65.451769 52.626665 
L 66.75223 50.019618 
L 68.052691 45.129137 
L 69.353152 38.164788 
L 70.653613 30.710496 
L 71.954074 24.826132 
L 73.254535 21.623442 
L 74.554997 21.156467 
L 75.855458 22.950264 
L 77.155919 26.087719 
L 78.45638 29.629929 
L 79.756841 33.12376 
L 81.057302 36.461182 
L 82.357763 39.55578 
L 83.658224 42.348888 
L 84.958686 44.855769 
L 86.259147 46.985566 
L 87.559608 48.630522 
L 88.860069 49.877063 
L 90.16053 50.824749 
L 91.460991 51.456474 
L 92.761452 51.817772 
L 94.061913 52.00323 
" clip-path="url(#pf9eb7d3ff5)" style="fill: none; stroke: #e1dd37; stroke-width: 1.2; stroke-linecap: square"/>
   </g>
   <g id="line2d_17">
    <path d="M 38.142085 48.888604 
L 39.442546 48.681415 
L 40.743007 48.546091 
L 42.043469 48.782662 
L 43.34393 49.303358 
L 44.644391 49.69073 
L 45.944852 49.801135 
L 47.245313 49.886612 
L 48.545774 50.159161 
L 49.846235 50.621655 
L 51.146696 51.110131 
L 52.447157 51.342361 
L 53.747619 51.170007 
L 55.04808 50.842746 
L 56.348541 50.748982 
L 57.649002 50.948433 
L 58.949463 51.196286 
L 60.249924 51.300215 
L 61.550385 51.32722 
L 62.850846 51.439113 
L 64.151308 51.670951 
L 65.451769 52.009564 
L 66.75223 52.254082 
L 68.052691 51.698005 
L 69.353152 49.356873 
L 70.653613 44.694017 
L 71.954074 38.263754 
L 73.254535 31.541526 
L 74.554997 26.052298 
L 75.855458 22.76476 
L 77.155919 22.047213 
L 78.45638 23.719507 
L 79.756841 26.979886 
L 81.057302 30.719137 
L 82.357763 34.197936 
L 83.658224 37.33835 
L 84.958686 40.390393 
L 86.259147 43.353227 
L 87.559608 45.794508 
L 88.860069 47.384383 
L 90.16053 48.432096 
L 91.460991 49.427338 
L 92.761452 50.341527 
L 94.061913 50.870667 
" clip-path="url(#pf9eb7d3ff5)" style="fill: none; stroke: #faba39; stroke-width: 1.2; stroke-linecap: square"/>
   </g>
   <g id="line2d_18">
    <path d="M 38.142085 47.285272 
L 39.442546 47.517007 
L 40.743007 47.726599 
L 42.043469 47.978893 
L 43.34393 48.464893 
L 44.644391 49.056085 
L 45.944852 49.451112 
L 47.245313 49.437928 
L 48.545774 48.998947 
L 49.846235 48.532799 
L 51.146696 48.668747 
L 52.447157 49.495506 
L 53.747619 50.459975 
L 55.04808 51.143657 
L 56.348541 51.601166 
L 57.649002 51.946714 
L 58.949463 52.123001 
L 60.249924 52.089145 
L 61.550385 51.896057 
L 62.850846 51.680934 
L 64.151308 51.645721 
L 65.451769 51.89164 
L 66.75223 52.305986 
L 68.052691 52.721625 
L 69.353152 53.068406 
L 70.653613 52.919823 
L 71.954074 50.957994 
L 73.254535 45.715047 
L 74.554997 37.343942 
L 75.855458 28.252379 
L 77.155919 21.390445 
L 78.45638 18.231922 
L 79.756841 18.500395 
L 81.057302 20.963032 
L 82.357763 24.41713 
L 83.658224 28.310737 
L 84.958686 32.37636 
L 86.259147 36.211504 
L 87.559608 39.565328 
L 88.860069 42.461673 
L 90.16053 44.879648 
L 91.460991 46.6713 
L 92.761452 47.816702 
L 94.061913 48.40008 
" clip-path="url(#pf9eb7d3ff5)" style="fill: none; stroke: #fd8d27; stroke-width: 1.2; stroke-linecap: square"/>
   </g>
   <g id="line2d_19">
    <path d="M 38.142085 47.664186 
L 39.442546 48.160509 
L 40.743007 48.916224 
L 42.043469 49.706117 
L 43.34393 50.508719 
L 44.644391 51.324869 
L 45.944852 52.001419 
L 47.245313 52.347469 
L 48.545774 52.241442 
L 49.846235 51.651881 
L 51.146696 50.735053 
L 52.447157 49.927204 
L 53.747619 49.66085 
L 55.04808 49.846496 
L 56.348541 50.013197 
L 57.649002 50.06963 
L 58.949463 50.321927 
L 60.249924 50.801498 
L 61.550385 51.249196 
L 62.850846 51.569569 
L 64.151308 51.869081 
L 65.451769 52.258418 
L 66.75223 52.728094 
L 68.052691 53.106288 
L 69.353152 53.232984 
L 70.653613 53.125135 
L 71.954074 52.778971 
L 73.254535 51.735895 
L 74.554997 48.901522 
L 75.855458 43.373095 
L 77.155919 35.66822 
L 78.45638 27.609609 
L 79.756841 21.274244 
L 81.057302 18.25434 
L 82.357763 18.852924 
L 83.658224 21.841752 
L 84.958686 25.78532 
L 86.259147 30.112024 
L 87.559608 34.568539 
L 88.860069 38.640974 
L 90.16053 41.908127 
L 91.460991 44.405299 
L 92.761452 46.393668 
L 94.061913 47.687206 
" clip-path="url(#pf9eb7d3ff5)" style="fill: none; stroke: #f05b12; stroke-width: 1.2; stroke-linecap: square"/>
   </g>
   <g id="line2d_20">
    <path d="M 38.142085 50.114001 
L 39.442546 50.37961 
L 40.743007 50.662081 
L 42.043469 50.770421 
L 43.34393 50.590392 
L 44.644391 50.145322 
L 45.944852 49.802679 
L 47.245313 50.040817 
L 48.545774 50.928524 
L 49.846235 51.950978 
L 51.146696 52.388821 
L 52.447157 51.949137 
L 53.747619 51.032365 
L 55.04808 50.383211 
L 56.348541 50.422478 
L 57.649002 50.89446 
L 58.949463 51.282118 
L 60.249924 51.398079 
L 61.550385 51.43192 
L 62.850846 51.658572 
L 64.151308 52.12757 
L 65.451769 52.523061 
L 66.75223 52.509707 
L 68.052691 52.198182 
L 69.353152 52.033164 
L 70.653613 52.294003 
L 71.954074 52.786504 
L 73.254535 52.96948 
L 74.554997 52.466429 
L 75.855458 51.173821 
L 77.155919 48.542276 
L 78.45638 43.446828 
L 79.756841 35.551277 
L 81.057302 26.638867 
L 82.357763 19.917687 
L 83.658224 17.500755 
L 84.958686 18.946531 
L 86.259147 22.520158 
L 87.559608 26.972663 
L 88.860069 31.580764 
L 90.16053 35.611965 
L 91.460991 38.692716 
L 92.761452 40.910046 
L 94.061913 42.176072 
" clip-path="url(#pf9eb7d3ff5)" style="fill: none; stroke: #d63506; stroke-width: 1.2; stroke-linecap: square"/>
   </g>
   <g id="line2d_21">
    <path d="M 38.142085 49.284882 
L 39.442546 49.239794 
L 40.743007 49.2768 
L 42.043469 49.478272 
L 43.34393 49.784466 
L 44.644391 50.061897 
L 45.944852 50.25143 
L 47.245313 50.437786 
L 48.545774 50.69256 
L 49.846235 50.952638 
L 51.146696 51.11451 
L 52.447157 51.115791 
L 53.747619 50.918329 
L 55.04808 50.528111 
L 56.348541 50.068514 
L 57.649002 49.775047 
L 58.949463 49.79267 
L 60.249924 49.974213 
L 61.550385 50.117165 
L 62.850846 50.320588 
L 64.151308 50.794821 
L 65.451769 51.451897 
L 66.75223 51.958048 
L 68.052691 52.077268 
L 69.353152 51.861574 
L 70.653613 51.623806 
L 71.954074 51.582628 
L 73.254535 51.541088 
L 74.554997 51.293487 
L 75.855458 51.084954 
L 77.155919 51.14828 
L 78.45638 50.921925 
L 79.756841 49.07044 
L 81.057302 44.397252 
L 82.357763 36.90696 
L 83.658224 28.336365 
L 84.958686 21.50294 
L 86.259147 18.278156 
L 87.559608 18.289793 
L 88.860069 20.274528 
L 90.16053 23.64201 
L 91.460991 27.984185 
L 92.761452 32.203988 
L 94.061913 34.812147 
" clip-path="url(#pf9eb7d3ff5)" style="fill: none; stroke: #af1801; stroke-width: 1.2; stroke-linecap: square"/>
   </g>
   <g id="line2d_22">
    <path d="M 38.142085 46.298395 
L 39.442546 46.491655 
L 40.743007 46.917818 
L 42.043469 47.463469 
L 43.34393 47.990102 
L 44.644391 48.46201 
L 45.944852 48.945588 
L 47.245313 49.48474 
L 48.545774 49.850164 
L 49.846235 49.713872 
L 51.146696 49.214204 
L 52.447157 48.920674 
L 53.747619 49.091001 
L 55.04808 49.407924 
L 56.348541 49.548086 
L 57.649002 49.568795 
L 58.949463 49.589359 
L 60.249924 49.529198 
L 61.550385 49.366844 
L 62.850846 49.212813 
L 64.151308 49.096272 
L 65.451769 49.131185 
L 66.75223 49.647149 
L 68.052691 50.671732 
L 69.353152 51.650871 
L 70.653613 52.063204 
L 71.954074 51.991106 
L 73.254535 51.844955 
L 74.554997 51.80079 
L 75.855458 51.785008 
L 77.155919 51.701114 
L 78.45638 51.442405 
L 79.756841 50.920272 
L 81.057302 49.928574 
L 82.357763 47.513745 
L 83.658224 42.225576 
L 84.958686 34.142071 
L 86.259147 25.820516 
L 87.559608 20.159297 
L 88.860069 18.265674 
L 90.16053 19.637581 
L 91.460991 23.00402 
L 92.761452 26.694471 
L 94.061913 29.050605 
" clip-path="url(#pf9eb7d3ff5)" style="fill: none; stroke: #7a0403; stroke-width: 1.2; stroke-linecap: square"/>
   </g>
   <g id="patch_3">
    <path d="M 35.346094 57.308468 
L 35.346094 9.28957 
" style="fill: none; stroke: #000000; stroke-width: 0.8; stroke-linejoin: miter; stroke-linecap: square"/>
   </g>
   <g id="patch_4">
    <path d="M 35.346094 57.308468 
L 96.857905 57.308468 
" style="fill: none; stroke: #000000; stroke-width: 0.8; stroke-linejoin: miter; stroke-linecap: square"/>
   </g>
  </g>
 </g>
 <defs>
  <clipPath id="pf9eb7d3ff5">
   <rect x="35.346094" y="9.28957" width="61.511811" height="48.018898"/>
  </clipPath>
 </defs>
</svg>
