<?xml version="1.0" encoding="utf-8" standalone="no"?>
<!DOCTYPE svg PUBLIC "-//W3C//DTD SVG 1.1//EN"
  "http://www.w3.org/Graphics/SVG/1.1/DTD/svg11.dtd">
<svg xmlns:xlink="http://www.w3.org/1999/xlink" width="106.71198pt" height="91.944593pt" viewBox="0 0 106.71198 91.944593" xmlns="http://www.w3.org/2000/svg" version="1.1">
 <metadata>
  <rdf:RDF xmlns:dc="http://purl.org/dc/elements/1.1/" xmlns:cc="http://creativecommons.org/ns#" xmlns:rdf="http://www.w3.org/1999/02/22-rdf-syntax-ns#">
   <cc:Work>
    <dc:type rdf:resource="http://purl.org/dc/dcmitype/StillImage"/>
    <dc:date>2026-04-21T12:15:05.112757</dc:date>
    <dc:format>image/svg+xml</dc:format>
    <dc:creator>
     <cc:Agent>
      <dc:title>Matplotlib v3.10.7, https://matplotlib.org/</dc:title>
     </cc:Agent>
    </dc:creator>
   </cc:Work>
  </rdf:RDF>
 </metadata>
 <defs>
  <style type="text/css">*{stroke-linejoin: round; stroke-linecap: butt}</style>
 </defs>
 <g id="figure_1">
  <g id="patch_1">
   <path d="M 0 91.944593 
L 106.71198 91.944593 
L 106.71198 0 
L 0 0 
L 0 91.944593 
z
" style="fill: none"/>
  </g>
  <g id="axes_1">
   <g id="patch_2">
    <path d="M 35.346094 57.308468 
L 96.857905 57.308468 
L 96.857905 9.28957 
L 35.346094 9.28957 
L 35.346094 57.308468 
z
" style="fill: none"/>
   </g>
   <g id="FillBetweenPolyCollection_1">
    <path d="M 38.142085 49.627571 
L 38.142085 52.981293 
L 39.442546 53.173741 
L 40.743007 53.577879 
L 42.043469 53.440215 
L 43.34393 50.590494 
L 44.644391 44.280772 
L 45.944852 35.817741 
L 47.245313 27.310647 
L 48.545774 21.566313 
L 49.846235 20.019807 
L 51.146696 21.542535 
L 52.447157 25.343123 
L 53.747619 29.742924 
L 55.04808 34.175846 
L 56.348541 37.67269 
L 57.649002 40.850786 
L 58.949463 43.535254 
L 60.249924 45.954801 
L 61.550385 48.133168 
L 62.850846 49.612257 
L 64.151308 50.67157 
L 65.451769 51.442957 
L 66.75223 52.473747 
L 68.052691 53.159988 
L 69.353152 53.300043 
L 70.653613 53.106602 
L 71.954074 52.874502 
L 73.254535 52.977941 
L 74.554997 53.102828 
L 75.855458 53.070018 
L 77.155919 52.754915 
L 78.45638 52.260883 
L 79.756841 51.404671 
L 81.057302 50.334706 
L 82.357763 49.25969 
L 83.658224 49.526609 
L 84.958686 49.987931 
L 86.259147 50.550082 
L 87.559608 50.656381 
L 88.860069 50.337235 
L 90.16053 50.632608 
L 91.460991 50.806372 
L 92.761452 50.950925 
L 94.061913 50.755063 
L 94.061913 47.526357 
L 94.061913 47.526357 
L 92.761452 47.814368 
L 91.460991 47.766023 
L 90.16053 47.209195 
L 88.860069 47.334686 
L 87.559608 47.225558 
L 86.259147 46.954004 
L 84.958686 46.465587 
L 83.658224 45.969042 
L 82.357763 46.340475 
L 81.057302 46.913938 
L 79.756841 48.248021 
L 78.45638 49.248831 
L 77.155919 49.855272 
L 75.855458 50.287711 
L 74.554997 50.464041 
L 73.254535 50.173819 
L 71.954074 50.014775 
L 70.653613 50.329369 
L 69.353152 50.803119 
L 68.052691 50.505078 
L 66.75223 49.600329 
L 65.451769 48.820075 
L 64.151308 47.882996 
L 62.850846 46.688609 
L 61.550385 44.946196 
L 60.249924 43.064782 
L 58.949463 40.526154 
L 57.649002 37.332514 
L 56.348541 33.891995 
L 55.04808 29.789578 
L 53.747619 25.285688 
L 52.447157 20.280701 
L 51.146696 16.584083 
L 49.846235 14.993752 
L 48.545774 16.795856 
L 47.245313 22.339762 
L 45.944852 31.475925 
L 44.644391 41.168262 
L 43.34393 47.469585 
L 42.043469 50.124862 
L 40.743007 50.806045 
L 39.442546 50.290181 
L 38.142085 49.627571 
z
" clip-path="url(#p6102c7de8a)" style="fill: #30123b; fill-opacity: 0.3"/>
   </g>
   <g id="FillBetweenPolyCollection_2">
    <path d="M 38.142085 49.25553 
L 38.142085 52.233419 
L 39.442546 52.103491 
L 40.743007 52.574508 
L 42.043469 53.266582 
L 43.34393 54.342483 
L 44.644391 54.623737 
L 45.944852 52.608927 
L 47.245313 48.075152 
L 48.545774 41.005792 
L 49.846235 33.209067 
L 51.146696 27.03731 
L 52.447157 24.311558 
L 53.747619 24.042608 
L 55.04808 27.227259 
L 56.348541 30.902235 
L 57.649002 34.903809 
L 58.949463 38.656939 
L 60.249924 41.805199 
L 61.550385 44.206549 
L 62.850846 46.353544 
L 64.151308 48.185208 
L 65.451769 49.631823 
L 66.75223 50.786168 
L 68.052691 51.845036 
L 69.353152 52.751013 
L 70.653613 53.377699 
L 71.954074 54.252858 
L 73.254535 54.65678 
L 74.554997 54.733498 
L 75.855458 54.38501 
L 77.155919 53.348259 
L 78.45638 52.453409 
L 79.756841 51.71801 
L 81.057302 50.835109 
L 82.357763 49.945981 
L 83.658224 49.180205 
L 84.958686 48.730685 
L 86.259147 48.259187 
L 87.559608 48.298612 
L 88.860069 48.678822 
L 90.16053 49.234715 
L 91.460991 50.289246 
L 92.761452 50.773021 
L 94.061913 51.060028 
L 94.061913 47.716916 
L 94.061913 47.716916 
L 92.761452 47.665725 
L 91.460991 46.87671 
L 90.16053 45.923335 
L 88.860069 44.791314 
L 87.559608 44.480728 
L 86.259147 44.736814 
L 84.958686 45.13122 
L 83.658224 46.026142 
L 82.357763 46.834728 
L 81.057302 47.525413 
L 79.756841 48.292166 
L 78.45638 49.449095 
L 77.155919 50.482184 
L 75.855458 51.049235 
L 74.554997 51.791068 
L 73.254535 52.066197 
L 71.954074 51.511141 
L 70.653613 50.796125 
L 69.353152 49.862378 
L 68.052691 49.109105 
L 66.75223 48.017033 
L 65.451769 46.585732 
L 64.151308 45.047291 
L 62.850846 43.216131 
L 61.550385 40.896129 
L 60.249924 37.995798 
L 58.949463 34.735863 
L 57.649002 30.841822 
L 56.348541 26.406825 
L 55.04808 22.066136 
L 53.747619 19.783216 
L 52.447157 19.015995 
L 51.146696 22.360937 
L 49.846235 28.629351 
L 48.545774 36.856918 
L 47.245313 44.628526 
L 45.944852 49.717721 
L 44.644391 51.323619 
L 43.34393 51.167737 
L 42.043469 50.193877 
L 40.743007 49.139104 
L 39.442546 49.11984 
L 38.142085 49.25553 
z
" clip-path="url(#p6102c7de8a)" style="fill: #4143a7; fill-opacity: 0.3"/>
   </g>
   <g id="FillBetweenPolyCollection_3">
    <path d="M 38.142085 48.508217 
L 38.142085 51.553946 
L 39.442546 52.47174 
L 40.743007 53.70398 
L 42.043469 54.971204 
L 43.34393 55.996013 
L 44.644391 56.557484 
L 45.944852 56.02224 
L 47.245313 55.013801 
L 48.545774 52.063602 
L 49.846235 46.284255 
L 51.146696 38.370709 
L 52.447157 30.126379 
L 53.747619 24.396157 
L 55.04808 21.931389 
L 56.348541 23.464197 
L 57.649002 27.098036 
L 58.949463 31.831947 
L 60.249924 35.906325 
L 61.550385 39.041984 
L 62.850846 42.136863 
L 64.151308 44.542765 
L 65.451769 46.405414 
L 66.75223 47.977397 
L 68.052691 49.2554 
L 69.353152 50.613885 
L 70.653613 51.899395 
L 71.954074 53.02621 
L 73.254535 53.660041 
L 74.554997 53.680139 
L 75.855458 53.529484 
L 77.155919 53.041873 
L 78.45638 52.863094 
L 79.756841 52.403976 
L 81.057302 52.175239 
L 82.357763 51.968093 
L 83.658224 51.571638 
L 84.958686 50.926335 
L 86.259147 50.553624 
L 87.559608 50.355842 
L 88.860069 50.60408 
L 90.16053 50.908407 
L 91.460991 50.679429 
L 92.761452 50.967656 
L 94.061913 50.930411 
L 94.061913 47.622117 
L 94.061913 47.622117 
L 92.761452 47.311889 
L 91.460991 47.667134 
L 90.16053 47.499471 
L 88.860069 47.158092 
L 87.559608 46.697547 
L 86.259147 46.927329 
L 84.958686 47.941478 
L 83.658224 48.513337 
L 82.357763 48.768571 
L 81.057302 49.045128 
L 79.756841 49.410411 
L 78.45638 49.618412 
L 77.155919 50.13077 
L 75.855458 50.416491 
L 74.554997 50.934599 
L 73.254535 50.851956 
L 71.954074 50.08537 
L 70.653613 48.797886 
L 69.353152 47.441271 
L 68.052691 46.335207 
L 66.75223 45.027568 
L 65.451769 43.389579 
L 64.151308 41.155041 
L 62.850846 38.484408 
L 61.550385 35.498236 
L 60.249924 31.652283 
L 58.949463 27.7019 
L 57.649002 23.250367 
L 56.348541 18.555067 
L 55.04808 16.900578 
L 53.747619 19.279879 
L 52.447157 25.824003 
L 51.146696 34.314448 
L 49.846235 43.035462 
L 48.545774 49.173938 
L 47.245313 52.051809 
L 45.944852 52.989871 
L 44.644391 52.904666 
L 43.34393 52.926318 
L 42.043469 52.105641 
L 40.743007 50.592422 
L 39.442546 49.170071 
L 38.142085 48.508217 
z
" clip-path="url(#p6102c7de8a)" style="fill: #4771e9; fill-opacity: 0.3"/>
   </g>
   <g id="FillBetweenPolyCollection_4">
    <path d="M 38.142085 49.411757 
L 38.142085 52.483412 
L 39.442546 52.815785 
L 40.743007 52.922354 
L 42.043469 53.740114 
L 43.34393 54.564615 
L 44.644391 55.13333 
L 45.944852 55.072922 
L 47.245313 55.089607 
L 48.545774 55.036803 
L 49.846235 54.789292 
L 51.146696 52.701037 
L 52.447157 47.882304 
L 53.747619 41.032682 
L 55.04808 33.97198 
L 56.348541 29.009177 
L 57.649002 27.132585 
L 58.949463 28.272546 
L 60.249924 31.192726 
L 61.550385 34.761074 
L 62.850846 37.888647 
L 64.151308 40.036269 
L 65.451769 41.829432 
L 66.75223 43.30989 
L 68.052691 45.224177 
L 69.353152 47.184507 
L 70.653613 48.685369 
L 71.954074 49.817324 
L 73.254535 50.531962 
L 74.554997 51.410983 
L 75.855458 52.054059 
L 77.155919 52.552508 
L 78.45638 52.672453 
L 79.756841 52.343855 
L 81.057302 51.703179 
L 82.357763 50.763453 
L 83.658224 50.298941 
L 84.958686 50.373909 
L 86.259147 50.536403 
L 87.559608 51.096401 
L 88.860069 51.40172 
L 90.16053 51.367599 
L 91.460991 51.407883 
L 92.761452 51.34374 
L 94.061913 51.573454 
L 94.061913 48.11615 
L 94.061913 48.11615 
L 92.761452 48.276372 
L 91.460991 48.167962 
L 90.16053 48.183951 
L 88.860069 48.039462 
L 87.559608 47.976463 
L 86.259147 47.795715 
L 84.958686 47.156987 
L 83.658224 47.096719 
L 82.357763 47.610313 
L 81.057302 48.46399 
L 79.756841 49.471239 
L 78.45638 49.767784 
L 77.155919 49.500198 
L 75.855458 49.074787 
L 74.554997 48.45541 
L 73.254535 47.755105 
L 71.954074 46.669298 
L 70.653613 45.638534 
L 69.353152 44.091869 
L 68.052691 42.05829 
L 66.75223 39.992706 
L 65.451769 38.242422 
L 64.151308 36.758984 
L 62.850846 34.214224 
L 61.550385 30.877458 
L 60.249924 27.057443 
L 58.949463 23.603148 
L 57.649002 22.270059 
L 56.348541 24.255915 
L 55.04808 29.77902 
L 53.747619 37.41161 
L 52.447157 44.967014 
L 51.146696 49.910417 
L 49.846235 51.718822 
L 48.545774 51.795453 
L 47.245313 51.488698 
L 45.944852 51.857035 
L 44.644391 51.928861 
L 43.34393 51.392252 
L 42.043469 50.456506 
L 40.743007 50.018385 
L 39.442546 49.456338 
L 38.142085 49.411757 
z
" clip-path="url(#p6102c7de8a)" style="fill: #3e9bfe; fill-opacity: 0.3"/>
   </g>
   <g id="FillBetweenPolyCollection_5">
    <path d="M 38.142085 50.808649 
L 38.142085 53.634075 
L 39.442546 53.712687 
L 40.743007 53.989581 
L 42.043469 54.330194 
L 43.34393 54.782712 
L 44.644391 55.142201 
L 45.944852 55.455802 
L 47.245313 56.153616 
L 48.545774 56.331587 
L 49.846235 55.633906 
L 51.146696 54.363229 
L 52.447157 52.672301 
L 53.747619 49.797477 
L 55.04808 45.240151 
L 56.348541 38.750658 
L 57.649002 31.603413 
L 58.949463 26.873599 
L 60.249924 25.790552 
L 61.550385 27.592452 
L 62.850846 30.644112 
L 64.151308 33.2062 
L 65.451769 35.39344 
L 66.75223 37.560988 
L 68.052691 39.649605 
L 69.353152 41.857025 
L 70.653613 44.103566 
L 71.954074 46.579948 
L 73.254535 48.363079 
L 74.554997 50.008239 
L 75.855458 51.00382 
L 77.155919 51.697883 
L 78.45638 51.786171 
L 79.756841 51.704538 
L 81.057302 51.80192 
L 82.357763 51.850985 
L 83.658224 51.779212 
L 84.958686 52.031633 
L 86.259147 51.902957 
L 87.559608 51.533399 
L 88.860069 51.215308 
L 90.16053 51.128713 
L 91.460991 51.087435 
L 92.761452 51.28329 
L 94.061913 51.839258 
L 94.061913 48.334741 
L 94.061913 48.334741 
L 92.761452 48.530493 
L 91.460991 47.973221 
L 90.16053 47.526732 
L 88.860069 48.073476 
L 87.559608 48.83704 
L 86.259147 48.973778 
L 84.958686 48.74169 
L 83.658224 48.763898 
L 82.357763 48.482256 
L 81.057302 48.4393 
L 79.756841 48.731938 
L 78.45638 48.943787 
L 77.155919 48.792654 
L 75.855458 48.181868 
L 74.554997 46.785745 
L 73.254535 45.233592 
L 71.954074 43.121878 
L 70.653613 41.00465 
L 69.353152 38.360313 
L 68.052691 35.999757 
L 66.75223 33.936432 
L 65.451769 31.988153 
L 64.151308 29.622676 
L 62.850846 26.713393 
L 61.550385 23.734102 
L 60.249924 21.483209 
L 58.949463 22.301154 
L 57.649002 27.274194 
L 56.348541 34.755835 
L 55.04808 42.133377 
L 53.747619 46.971141 
L 52.447157 49.504834 
L 51.146696 51.420731 
L 49.846235 52.854532 
L 48.545774 53.404881 
L 47.245313 53.142124 
L 45.944852 52.709567 
L 44.644391 52.073946 
L 43.34393 51.542486 
L 42.043469 51.079765 
L 40.743007 50.823817 
L 39.442546 50.852204 
L 38.142085 50.808649 
z
" clip-path="url(#p6102c7de8a)" style="fill: #22c5e2; fill-opacity: 0.3"/>
   </g>
   <g id="FillBetweenPolyCollection_6">
    <path d="M 38.142085 46.937491 
L 38.142085 50.261878 
L 39.442546 51.001823 
L 40.743007 52.327872 
L 42.043469 53.487179 
L 43.34393 54.290855 
L 44.644391 54.901001 
L 45.944852 54.555846 
L 47.245313 54.303423 
L 48.545774 53.539552 
L 49.846235 53.227591 
L 51.146696 53.399771 
L 52.447157 53.555573 
L 53.747619 53.445772 
L 55.04808 52.547773 
L 56.348541 50.079356 
L 57.649002 45.366 
L 58.949463 38.901057 
L 60.249924 32.172326 
L 61.550385 28.181501 
L 62.850846 27.376284 
L 64.151308 28.64932 
L 65.451769 30.977541 
L 66.75223 33.949431 
L 68.052691 36.905842 
L 69.353152 40.183584 
L 70.653613 42.535563 
L 71.954074 43.991448 
L 73.254535 45.472011 
L 74.554997 47.057888 
L 75.855458 48.639846 
L 77.155919 49.618132 
L 78.45638 50.284059 
L 79.756841 50.914659 
L 81.057302 51.609857 
L 82.357763 51.783345 
L 83.658224 52.13234 
L 84.958686 51.913327 
L 86.259147 52.310655 
L 87.559608 52.669938 
L 88.860069 52.985023 
L 90.16053 52.473415 
L 91.460991 51.45801 
L 92.761452 51.058881 
L 94.061913 50.582329 
L 94.061913 47.781129 
L 94.061913 47.781129 
L 92.761452 47.595993 
L 91.460991 48.391972 
L 90.16053 49.278042 
L 88.860069 49.911014 
L 87.559608 49.673277 
L 86.259147 48.808532 
L 84.958686 48.795689 
L 83.658224 48.868519 
L 82.357763 49.098909 
L 81.057302 48.259979 
L 79.756841 47.559069 
L 78.45638 47.10793 
L 77.155919 46.717169 
L 75.855458 45.551746 
L 74.554997 43.79649 
L 73.254535 42.102463 
L 71.954074 40.923195 
L 70.653613 39.194327 
L 69.353152 36.469087 
L 68.052691 33.075618 
L 66.75223 29.480432 
L 65.451769 26.938532 
L 64.151308 24.477266 
L 62.850846 22.573632 
L 61.550385 23.318272 
L 60.249924 27.994511 
L 58.949463 35.204482 
L 57.649002 42.580786 
L 56.348541 47.332043 
L 55.04808 49.60675 
L 53.747619 50.490552 
L 52.447157 50.624461 
L 51.146696 50.396362 
L 49.846235 50.310052 
L 48.545774 50.402248 
L 47.245313 50.806764 
L 45.944852 51.780148 
L 44.644391 51.649472 
L 43.34393 51.225902 
L 42.043469 50.255394 
L 40.743007 49.177882 
L 39.442546 48.01624 
L 38.142085 46.937491 
z
" clip-path="url(#p6102c7de8a)" style="fill: #1ae4b6; fill-opacity: 0.3"/>
   </g>
   <g id="FillBetweenPolyCollection_7">
    <path d="M 38.142085 49.288338 
L 38.142085 52.371962 
L 39.442546 52.398148 
L 40.743007 52.664919 
L 42.043469 52.714466 
L 43.34393 53.334181 
L 44.644391 53.880613 
L 45.944852 54.802471 
L 47.245313 55.30208 
L 48.545774 55.68375 
L 49.846235 55.892039 
L 51.146696 56.130045 
L 52.447157 56.110594 
L 53.747619 54.935801 
L 55.04808 54.179036 
L 56.348541 53.566111 
L 57.649002 52.577603 
L 58.949463 50.908523 
L 60.249924 47.028099 
L 61.550385 41.528528 
L 62.850846 35.335057 
L 64.151308 30.265711 
L 65.451769 28.386854 
L 66.75223 28.927322 
L 68.052691 31.137986 
L 69.353152 34.306554 
L 70.653613 36.729182 
L 71.954074 39.306046 
L 73.254535 41.599764 
L 74.554997 43.508408 
L 75.855458 45.324864 
L 77.155919 47.24939 
L 78.45638 48.500059 
L 79.756841 49.439254 
L 81.057302 50.531065 
L 82.357763 51.666744 
L 83.658224 52.842361 
L 84.958686 53.929779 
L 86.259147 54.516451 
L 87.559608 54.419696 
L 88.860069 54.500924 
L 90.16053 54.330314 
L 91.460991 54.590374 
L 92.761452 54.121552 
L 94.061913 53.561845 
L 94.061913 50.704977 
L 94.061913 50.704977 
L 92.761452 50.725357 
L 91.460991 51.094887 
L 90.16053 51.732535 
L 88.860069 51.292071 
L 87.559608 51.139824 
L 86.259147 51.089735 
L 84.958686 51.085247 
L 83.658224 50.155005 
L 82.357763 48.432724 
L 81.057302 46.975711 
L 79.756841 46.213409 
L 78.45638 45.342714 
L 77.155919 43.969646 
L 75.855458 42.333296 
L 74.554997 40.100478 
L 73.254535 37.808846 
L 71.954074 35.568196 
L 70.653613 33.020271 
L 69.353152 29.84933 
L 68.052691 27.274786 
L 66.75223 24.622904 
L 65.451769 23.58862 
L 64.151308 25.920094 
L 62.850846 31.101732 
L 61.550385 38.180213 
L 60.249924 44.407781 
L 58.949463 47.996668 
L 57.649002 49.827448 
L 56.348541 50.230385 
L 55.04808 50.901493 
L 53.747619 52.099734 
L 52.447157 52.774795 
L 51.146696 53.48636 
L 49.846235 53.255516 
L 48.545774 52.616607 
L 47.245313 52.228109 
L 45.944852 51.523756 
L 44.644391 50.642309 
L 43.34393 49.604214 
L 42.043469 49.458828 
L 40.743007 49.263977 
L 39.442546 49.373451 
L 38.142085 49.288338 
z
" clip-path="url(#p6102c7de8a)" style="fill: #46f884; fill-opacity: 0.3"/>
   </g>
   <g id="FillBetweenPolyCollection_8">
    <path d="M 38.142085 47.027579 
L 38.142085 50.260991 
L 39.442546 50.508229 
L 40.743007 51.342845 
L 42.043469 51.970054 
L 43.34393 52.984694 
L 44.644391 53.50065 
L 45.944852 53.910985 
L 47.245313 53.476186 
L 48.545774 52.931625 
L 49.846235 53.018221 
L 51.146696 53.046904 
L 52.447157 53.841897 
L 53.747619 54.25722 
L 55.04808 54.254627 
L 56.348541 53.614095 
L 57.649002 53.126092 
L 58.949463 52.706854 
L 60.249924 51.981861 
L 61.550385 49.778665 
L 62.850846 45.700534 
L 64.151308 39.820481 
L 65.451769 33.550064 
L 66.75223 29.0607 
L 68.052691 27.084949 
L 69.353152 27.328971 
L 70.653613 28.691102 
L 71.954074 30.930794 
L 73.254535 33.810596 
L 74.554997 36.509247 
L 75.855458 39.183157 
L 77.155919 41.243104 
L 78.45638 43.119513 
L 79.756841 45.008831 
L 81.057302 46.599252 
L 82.357763 48.586225 
L 83.658224 50.318362 
L 84.958686 51.74317 
L 86.259147 52.167722 
L 87.559608 52.634929 
L 88.860069 52.843117 
L 90.16053 53.145809 
L 91.460991 52.885113 
L 92.761452 52.180319 
L 94.061913 51.552599 
L 94.061913 48.31959 
L 94.061913 48.31959 
L 92.761452 49.209277 
L 91.460991 49.980105 
L 90.16053 49.9374 
L 88.860069 49.606014 
L 87.559608 49.346864 
L 86.259147 49.335342 
L 84.958686 48.23851 
L 83.658224 46.793725 
L 82.357763 44.93588 
L 81.057302 43.277939 
L 79.756841 41.313189 
L 78.45638 39.635569 
L 77.155919 37.751875 
L 75.855458 35.422484 
L 74.554997 32.722801 
L 73.254535 29.430378 
L 71.954074 26.705899 
L 70.653613 24.45857 
L 69.353152 22.810165 
L 68.052691 22.592226 
L 66.75223 24.549201 
L 65.451769 29.383203 
L 64.151308 36.134238 
L 62.850846 42.747877 
L 61.550385 47.117121 
L 60.249924 49.045802 
L 58.949463 49.935975 
L 57.649002 50.384087 
L 56.348541 50.883346 
L 55.04808 51.213324 
L 53.747619 51.464365 
L 52.447157 50.928384 
L 51.146696 50.048512 
L 49.846235 49.062153 
L 48.545774 49.649965 
L 47.245313 50.36904 
L 45.944852 50.551077 
L 44.644391 50.385878 
L 43.34393 49.512666 
L 42.043469 48.9276 
L 40.743007 48.144683 
L 39.442546 47.728401 
L 38.142085 47.027579 
z
" clip-path="url(#p6102c7de8a)" style="fill: #88ff4e; fill-opacity: 0.3"/>
   </g>
   <g id="FillBetweenPolyCollection_9">
    <path d="M 38.142085 47.456624 
L 38.142085 50.741517 
L 39.442546 51.355561 
L 40.743007 52.010858 
L 42.043469 52.034293 
L 43.34393 51.475011 
L 44.644391 51.792652 
L 45.944852 52.462638 
L 47.245313 52.941212 
L 48.545774 52.948883 
L 49.846235 52.843965 
L 51.146696 52.547412 
L 52.447157 52.385626 
L 53.747619 52.965023 
L 55.04808 53.575476 
L 56.348541 54.071265 
L 57.649002 54.228751 
L 58.949463 53.193631 
L 60.249924 52.21569 
L 61.550385 51.581775 
L 62.850846 51.462185 
L 64.151308 50.403792 
L 65.451769 47.038028 
L 66.75223 42.113517 
L 68.052691 36.169065 
L 69.353152 31.018914 
L 70.653613 27.233021 
L 71.954074 25.622187 
L 73.254535 26.27455 
L 74.554997 28.654894 
L 75.855458 31.534443 
L 77.155919 33.997483 
L 78.45638 36.307471 
L 79.756841 38.547038 
L 81.057302 41.437479 
L 82.357763 43.776574 
L 83.658224 45.802895 
L 84.958686 47.312845 
L 86.259147 49.031735 
L 87.559608 50.663068 
L 88.860069 52.292182 
L 90.16053 53.519194 
L 91.460991 54.364122 
L 92.761452 54.770182 
L 94.061913 54.873574 
L 94.061913 51.576203 
L 94.061913 51.576203 
L 92.761452 51.428001 
L 91.460991 51.101595 
L 90.16053 50.334015 
L 88.860069 49.043511 
L 87.559608 47.406608 
L 86.259147 45.384571 
L 84.958686 43.801849 
L 83.658224 42.304531 
L 82.357763 40.344318 
L 81.057302 37.179277 
L 79.756841 34.356006 
L 78.45638 31.935629 
L 77.155919 30.045458 
L 75.855458 27.376461 
L 74.554997 24.16815 
L 73.254535 21.551699 
L 71.954074 20.89556 
L 70.653613 22.604358 
L 69.353152 26.183601 
L 68.052691 31.727165 
L 66.75223 38.257904 
L 65.451769 44.308641 
L 64.151308 47.49728 
L 62.850846 48.552588 
L 61.550385 48.678216 
L 60.249924 49.097393 
L 58.949463 50.356775 
L 57.649002 51.087743 
L 56.348541 51.300802 
L 55.04808 50.567546 
L 53.747619 49.894318 
L 52.447157 49.755626 
L 51.146696 49.321889 
L 49.846235 49.232822 
L 48.545774 49.676984 
L 47.245313 49.598358 
L 45.944852 48.875392 
L 44.644391 48.34212 
L 43.34393 48.550346 
L 42.043469 48.542699 
L 40.743007 48.570066 
L 39.442546 48.130059 
L 38.142085 47.456624 
z
" clip-path="url(#p6102c7de8a)" style="fill: #b9f635; fill-opacity: 0.3"/>
   </g>
   <g id="FillBetweenPolyCollection_10">
    <path d="M 38.142085 44.376565 
L 38.142085 47.616672 
L 39.442546 48.244284 
L 40.743007 49.256896 
L 42.043469 49.619046 
L 43.34393 49.682895 
L 44.644391 49.844916 
L 45.944852 50.233392 
L 47.245313 50.507811 
L 48.545774 51.030253 
L 49.846235 51.529568 
L 51.146696 51.794567 
L 52.447157 51.967212 
L 53.747619 52.254406 
L 55.04808 52.344992 
L 56.348541 52.618144 
L 57.649002 52.481787 
L 58.949463 52.649324 
L 60.249924 52.387714 
L 61.550385 52.477191 
L 62.850846 52.754844 
L 64.151308 53.028853 
L 65.451769 52.703063 
L 66.75223 50.421968 
L 68.052691 46.02514 
L 69.353152 39.493678 
L 70.653613 32.596068 
L 71.954074 27.73712 
L 73.254535 25.275002 
L 74.554997 24.922551 
L 75.855458 25.345951 
L 77.155919 27.343321 
L 78.45638 30.039759 
L 79.756841 33.944606 
L 81.057302 38.230292 
L 82.357763 41.664789 
L 83.658224 43.406501 
L 84.958686 45.127943 
L 86.259147 46.043311 
L 87.559608 47.664857 
L 88.860069 48.964593 
L 90.16053 49.938485 
L 91.460991 51.273392 
L 92.761452 51.917199 
L 94.061913 52.342738 
L 94.061913 49.312239 
L 94.061913 49.312239 
L 92.761452 48.804022 
L 91.460991 47.663935 
L 90.16053 46.762925 
L 88.860069 45.424147 
L 87.559608 44.165096 
L 86.259147 42.780728 
L 84.958686 40.72513 
L 83.658224 39.613804 
L 82.357763 37.245622 
L 81.057302 34.039725 
L 79.756841 29.949678 
L 78.45638 25.715313 
L 77.155919 22.234751 
L 75.855458 20.792164 
L 74.554997 20.009774 
L 73.254535 20.50075 
L 71.954074 22.833637 
L 70.653613 28.457693 
L 69.353152 35.840461 
L 68.052691 42.885604 
L 66.75223 47.799206 
L 65.451769 49.722481 
L 64.151308 50.036209 
L 62.850846 49.68064 
L 61.550385 49.518435 
L 60.249924 49.614582 
L 58.949463 49.473236 
L 57.649002 49.663671 
L 56.348541 49.452837 
L 55.04808 49.512398 
L 53.747619 49.266229 
L 52.447157 49.147684 
L 51.146696 48.722033 
L 49.846235 48.13633 
L 48.545774 47.663489 
L 47.245313 47.195341 
L 45.944852 46.549642 
L 44.644391 46.20858 
L 43.34393 45.95875 
L 42.043469 45.816129 
L 40.743007 45.532369 
L 39.442546 45.103715 
L 38.142085 44.376565 
z
" clip-path="url(#p6102c7de8a)" style="fill: #e1dd37; fill-opacity: 0.3"/>
   </g>
   <g id="FillBetweenPolyCollection_11">
    <path d="M 38.142085 47.399885 
L 38.142085 50.424973 
L 39.442546 50.332641 
L 40.743007 50.566448 
L 42.043469 51.027332 
L 43.34393 50.911357 
L 44.644391 50.828975 
L 45.944852 50.346263 
L 47.245313 50.640897 
L 48.545774 51.655275 
L 49.846235 52.116247 
L 51.146696 52.611139 
L 52.447157 52.809343 
L 53.747619 52.464774 
L 55.04808 52.150372 
L 56.348541 51.451249 
L 57.649002 51.244161 
L 58.949463 51.672911 
L 60.249924 52.768813 
L 61.550385 53.534109 
L 62.850846 53.864341 
L 64.151308 53.717007 
L 65.451769 53.661565 
L 66.75223 54.053439 
L 68.052691 53.437265 
L 69.353152 51.49478 
L 70.653613 47.013571 
L 71.954074 40.054859 
L 73.254535 32.361172 
L 74.554997 25.668492 
L 75.855458 21.890165 
L 77.155919 20.71142 
L 78.45638 21.491012 
L 79.756841 24.451993 
L 81.057302 27.780235 
L 82.357763 31.948091 
L 83.658224 35.911648 
L 84.958686 39.575014 
L 86.259147 42.505425 
L 87.559608 45.240962 
L 88.860069 47.01685 
L 90.16053 48.188752 
L 91.460991 49.309028 
L 92.761452 49.934477 
L 94.061913 50.257293 
L 94.061913 46.956113 
L 94.061913 46.956113 
L 92.761452 46.696671 
L 91.460991 46.024958 
L 90.16053 44.993331 
L 88.860069 43.091209 
L 87.559608 40.886218 
L 86.259147 38.728017 
L 84.958686 35.649886 
L 83.658224 31.90446 
L 82.357763 27.39164 
L 81.057302 23.186962 
L 79.756841 19.343142 
L 78.45638 16.968494 
L 77.155919 15.466084 
L 75.855458 16.78849 
L 74.554997 21.075209 
L 73.254535 27.582505 
L 71.954074 36.060394 
L 70.653613 43.791843 
L 69.353152 48.774835 
L 68.052691 50.948926 
L 66.75223 51.137227 
L 65.451769 51.068099 
L 64.151308 50.849449 
L 62.850846 51.072947 
L 61.550385 50.936438 
L 60.249924 49.613149 
L 58.949463 48.384974 
L 57.649002 48.006758 
L 56.348541 48.533787 
L 55.04808 48.967843 
L 53.747619 49.408035 
L 52.447157 49.344711 
L 51.146696 49.329907 
L 49.846235 48.810647 
L 48.545774 47.454318 
L 47.245313 46.840069 
L 45.944852 46.823753 
L 44.644391 47.151448 
L 43.34393 47.681226 
L 42.043469 47.21102 
L 40.743007 47.019312 
L 39.442546 47.18385 
L 38.142085 47.399885 
z
" clip-path="url(#p6102c7de8a)" style="fill: #faba39; fill-opacity: 0.3"/>
   </g>
   <g id="FillBetweenPolyCollection_12">
    <path d="M 38.142085 47.816803 
L 38.142085 50.914062 
L 39.442546 50.846707 
L 40.743007 50.823724 
L 42.043469 51.496694 
L 43.34393 52.54416 
L 44.644391 53.615471 
L 45.944852 54.230871 
L 47.245313 54.14564 
L 48.545774 54.095219 
L 49.846235 53.491178 
L 51.146696 53.648617 
L 52.447157 53.658972 
L 53.747619 53.510717 
L 55.04808 53.307284 
L 56.348541 52.947809 
L 57.649002 52.821126 
L 58.949463 52.717486 
L 60.249924 52.61611 
L 61.550385 53.136923 
L 62.850846 53.483094 
L 64.151308 54.093058 
L 65.451769 54.252903 
L 66.75223 54.445413 
L 68.052691 54.646024 
L 69.353152 55.117446 
L 70.653613 54.761722 
L 71.954074 52.22198 
L 73.254535 47.275377 
L 74.554997 39.654675 
L 75.855458 30.836532 
L 77.155919 24.23727 
L 78.45638 20.329803 
L 79.756841 19.741131 
L 81.057302 21.606499 
L 82.357763 24.589939 
L 83.658224 28.085204 
L 84.958686 32.232652 
L 86.259147 37.073755 
L 87.559608 41.072337 
L 88.860069 44.512878 
L 90.16053 46.88122 
L 91.460991 48.54839 
L 92.761452 50.130291 
L 94.061913 51.317558 
L 94.061913 48.040045 
L 94.061913 48.040045 
L 92.761452 46.977724 
L 91.460991 45.180675 
L 90.16053 43.179072 
L 88.860069 41.009847 
L 87.559608 37.758588 
L 86.259147 32.778027 
L 84.958686 27.944829 
L 83.658224 23.503342 
L 82.357763 19.966988 
L 81.057302 17.154085 
L 79.756841 15.088994 
L 78.45638 14.883513 
L 77.155919 18.508615 
L 75.855458 26.725368 
L 74.554997 36.040855 
L 73.254535 44.325935 
L 71.954074 49.724721 
L 70.653613 51.948978 
L 69.353152 52.558492 
L 68.052691 52.281592 
L 66.75223 51.693132 
L 65.451769 51.603894 
L 64.151308 51.409694 
L 62.850846 51.043397 
L 61.550385 50.087673 
L 60.249924 49.797541 
L 58.949463 49.745774 
L 57.649002 50.073108 
L 56.348541 50.285509 
L 55.04808 50.32711 
L 53.747619 50.622935 
L 52.447157 50.678913 
L 51.146696 50.539169 
L 49.846235 50.692581 
L 48.545774 50.656146 
L 47.245313 51.327455 
L 45.944852 51.075939 
L 44.644391 50.198697 
L 43.34393 49.087839 
L 42.043469 48.251993 
L 40.743007 47.916976 
L 39.442546 47.719626 
L 38.142085 47.816803 
z
" clip-path="url(#p6102c7de8a)" style="fill: #fd8d27; fill-opacity: 0.3"/>
   </g>
   <g id="FillBetweenPolyCollection_13">
    <path d="M 38.142085 46.021237 
L 38.142085 49.021742 
L 39.442546 49.256697 
L 40.743007 50.130616 
L 42.043469 51.294783 
L 43.34393 52.627988 
L 44.644391 53.297421 
L 45.944852 53.533256 
L 47.245313 52.931365 
L 48.545774 52.507858 
L 49.846235 52.2459 
L 51.146696 52.162663 
L 52.447157 52.309844 
L 53.747619 52.185167 
L 55.04808 52.023097 
L 56.348541 51.493016 
L 57.649002 50.983785 
L 58.949463 50.896415 
L 60.249924 51.177399 
L 61.550385 51.991801 
L 62.850846 52.675083 
L 64.151308 53.287515 
L 65.451769 53.807657 
L 66.75223 53.797453 
L 68.052691 54.095958 
L 69.353152 54.681928 
L 70.653613 54.87846 
L 71.954074 54.75848 
L 73.254535 53.701275 
L 74.554997 50.792358 
L 75.855458 45.098794 
L 77.155919 37.092584 
L 78.45638 27.956624 
L 79.756841 21.288611 
L 81.057302 18.249145 
L 82.357763 18.648468 
L 83.658224 21.573409 
L 84.958686 26.044249 
L 86.259147 30.729626 
L 87.559608 35.809195 
L 88.860069 39.654105 
L 90.16053 43.003449 
L 91.460991 45.798652 
L 92.761452 48.03349 
L 94.061913 48.918714 
L 94.061913 45.65086 
L 94.061913 45.65086 
L 92.761452 44.426382 
L 91.460991 42.41434 
L 90.16053 39.337247 
L 88.860069 35.778528 
L 87.559608 31.505142 
L 86.259147 26.891173 
L 84.958686 21.075195 
L 83.658224 16.301187 
L 82.357763 13.365381 
L 81.057302 12.995379 
L 79.756841 16.217192 
L 78.45638 23.572166 
L 77.155919 33.037235 
L 75.855458 42.260627 
L 74.554997 48.22533 
L 73.254535 51.197383 
L 71.954074 52.17063 
L 70.653613 52.072494 
L 69.353152 51.584889 
L 68.052691 51.493159 
L 66.75223 51.252021 
L 65.451769 50.757092 
L 64.151308 50.61074 
L 62.850846 50.015564 
L 61.550385 49.086467 
L 60.249924 48.506062 
L 58.949463 48.017362 
L 57.649002 47.980554 
L 56.348541 48.308296 
L 55.04808 48.782425 
L 53.747619 49.158839 
L 52.447157 49.116618 
L 51.146696 49.106781 
L 49.846235 48.888966 
L 48.545774 49.055768 
L 47.245313 49.697616 
L 45.944852 49.980669 
L 44.644391 50.084704 
L 43.34393 49.221029 
L 42.043469 47.86238 
L 40.743007 46.403082 
L 39.442546 45.961704 
L 38.142085 46.021237 
z
" clip-path="url(#p6102c7de8a)" style="fill: #f05b12; fill-opacity: 0.3"/>
   </g>
   <g id="FillBetweenPolyCollection_14">
    <path d="M 38.142085 45.014458 
L 38.142085 48.369791 
L 39.442546 48.589441 
L 40.743007 49.051939 
L 42.043469 49.526852 
L 43.34393 49.586637 
L 44.644391 49.732886 
L 45.944852 49.889254 
L 47.245313 50.272985 
L 48.545774 51.10057 
L 49.846235 51.477342 
L 51.146696 51.506287 
L 52.447157 51.441463 
L 53.747619 51.141669 
L 55.04808 50.826534 
L 56.348541 50.486976 
L 57.649002 50.374368 
L 58.949463 50.794169 
L 60.249924 51.200454 
L 61.550385 51.827501 
L 62.850846 52.394203 
L 64.151308 52.488691 
L 65.451769 52.368671 
L 66.75223 52.518617 
L 68.052691 52.94576 
L 69.353152 53.525177 
L 70.653613 53.765094 
L 71.954074 54.260883 
L 73.254535 54.368603 
L 74.554997 54.293577 
L 75.855458 53.700675 
L 77.155919 51.050947 
L 78.45638 45.232653 
L 79.756841 36.162196 
L 81.057302 26.971606 
L 82.357763 20.021765 
L 83.658224 17.535803 
L 84.958686 18.530725 
L 86.259147 22.011736 
L 87.559608 26.742041 
L 88.860069 31.15147 
L 90.16053 35.36551 
L 91.460991 38.837751 
L 92.761452 41.006867 
L 94.061913 41.917932 
L 94.061913 38.18128 
L 94.061913 38.18128 
L 92.761452 37.171959 
L 91.460991 34.98993 
L 90.16053 31.415727 
L 88.860069 26.58884 
L 87.559608 21.252485 
L 86.259147 16.80231 
L 84.958686 13.258463 
L 83.658224 11.865349 
L 82.357763 14.65694 
L 81.057302 21.876387 
L 79.756841 32.342781 
L 78.45638 41.708005 
L 77.155919 48.09622 
L 75.855458 50.885305 
L 74.554997 51.47059 
L 73.254535 51.10231 
L 71.954074 50.882514 
L 70.653613 51.131458 
L 69.353152 50.770626 
L 68.052691 50.210856 
L 66.75223 49.617457 
L 65.451769 49.560163 
L 64.151308 49.635968 
L 62.850846 49.460806 
L 61.550385 49.006949 
L 60.249924 48.19033 
L 58.949463 47.329559 
L 57.649002 47.236975 
L 56.348541 47.481535 
L 55.04808 47.880038 
L 53.747619 48.199537 
L 52.447157 48.252192 
L 51.146696 48.124412 
L 49.846235 47.640275 
L 48.545774 47.145776 
L 47.245313 46.876842 
L 45.944852 46.351759 
L 44.644391 46.198544 
L 43.34393 46.268628 
L 42.043469 45.840059 
L 40.743007 45.478813 
L 39.442546 45.203389 
L 38.142085 45.014458 
z
" clip-path="url(#p6102c7de8a)" style="fill: #d63506; fill-opacity: 0.3"/>
   </g>
   <g id="FillBetweenPolyCollection_15">
    <path d="M 38.142085 47.486688 
L 38.142085 50.629567 
L 39.442546 50.415208 
L 40.743007 49.781752 
L 42.043469 49.251297 
L 43.34393 49.037 
L 44.644391 49.323332 
L 45.944852 49.898419 
L 47.245313 51.002402 
L 48.545774 51.437141 
L 49.846235 52.142108 
L 51.146696 52.444811 
L 52.447157 52.195761 
L 53.747619 51.646153 
L 55.04808 51.189272 
L 56.348541 50.767723 
L 57.649002 50.855563 
L 58.949463 50.942213 
L 60.249924 51.430558 
L 61.550385 51.632844 
L 62.850846 52.236098 
L 64.151308 52.811061 
L 65.451769 53.137001 
L 66.75223 53.46551 
L 68.052691 53.188754 
L 69.353152 53.018317 
L 70.653613 53.257025 
L 71.954074 53.872904 
L 73.254535 54.359606 
L 74.554997 54.323336 
L 75.855458 53.879733 
L 77.155919 52.774271 
L 78.45638 51.434786 
L 79.756841 49.05295 
L 81.057302 44.093269 
L 82.357763 36.277922 
L 83.658224 26.809503 
L 84.958686 19.793811 
L 86.259147 17.058633 
L 87.559608 18.983713 
L 88.860069 22.90188 
L 90.16053 28.045399 
L 91.460991 32.557168 
L 92.761452 36.561606 
L 94.061913 38.725992 
L 94.061913 34.852099 
L 94.061913 34.852099 
L 92.761452 32.426113 
L 91.460991 28.319428 
L 90.16053 23.140816 
L 88.860069 18.388239 
L 87.559608 13.463217 
L 86.259147 11.259762 
L 84.958686 13.891066 
L 83.658224 22.204007 
L 82.357763 32.282461 
L 81.057302 40.922884 
L 79.756841 45.901557 
L 78.45638 48.358004 
L 77.155919 49.859326 
L 75.855458 51.055404 
L 74.554997 51.861051 
L 73.254535 51.537004 
L 71.954074 50.858508 
L 70.653613 50.437695 
L 69.353152 50.258117 
L 68.052691 50.243265 
L 66.75223 50.288177 
L 65.451769 50.500592 
L 64.151308 50.027753 
L 62.850846 49.495389 
L 61.550385 48.989348 
L 60.249924 48.177861 
L 58.949463 47.999207 
L 57.649002 47.742779 
L 56.348541 47.65822 
L 55.04808 47.69038 
L 53.747619 48.56164 
L 52.447157 49.28411 
L 51.146696 49.237908 
L 49.846235 48.757042 
L 48.545774 48.23663 
L 47.245313 47.124688 
L 45.944852 46.431762 
L 44.644391 45.593988 
L 43.34393 45.579511 
L 42.043469 46.069003 
L 40.743007 46.578133 
L 39.442546 46.9643 
L 38.142085 47.486688 
z
" clip-path="url(#p6102c7de8a)" style="fill: #af1801; fill-opacity: 0.3"/>
   </g>
   <g id="FillBetweenPolyCollection_16">
    <path d="M 38.142085 45.694289 
L 38.142085 49.098656 
L 39.442546 49.010306 
L 40.743007 48.953124 
L 42.043469 49.299316 
L 43.34393 49.795536 
L 44.644391 50.56798 
L 45.944852 51.083476 
L 47.245313 51.514936 
L 48.545774 51.699572 
L 49.846235 51.468515 
L 51.146696 51.079059 
L 52.447157 50.953146 
L 53.747619 50.913796 
L 55.04808 50.84586 
L 56.348541 50.848501 
L 57.649002 50.881264 
L 58.949463 50.664932 
L 60.249924 50.646337 
L 61.550385 50.888765 
L 62.850846 51.171697 
L 64.151308 51.918014 
L 65.451769 52.219207 
L 66.75223 52.704542 
L 68.052691 52.828643 
L 69.353152 52.772483 
L 70.653613 52.620278 
L 71.954074 52.722856 
L 73.254535 53.075033 
L 74.554997 53.853132 
L 75.855458 54.367356 
L 77.155919 54.646408 
L 78.45638 53.938923 
L 79.756841 53.161354 
L 81.057302 51.604844 
L 82.357763 48.948235 
L 83.658224 43.824003 
L 84.958686 36.22676 
L 86.259147 27.664248 
L 87.559608 21.722211 
L 88.860069 20.074599 
L 90.16053 21.698888 
L 91.460991 24.658513 
L 92.761452 27.35648 
L 94.061913 29.143386 
L 94.061913 25.105302 
L 94.061913 25.105302 
L 92.761452 23.361091 
L 91.460991 20.155109 
L 90.16053 16.761631 
L 88.860069 14.79548 
L 87.559608 16.492385 
L 86.259147 22.797717 
L 84.958686 31.939352 
L 83.658224 40.578553 
L 82.357763 45.927551 
L 81.057302 48.741234 
L 79.756841 50.178693 
L 78.45638 51.284052 
L 77.155919 51.541953 
L 75.855458 51.685125 
L 74.554997 51.062486 
L 73.254535 50.417812 
L 71.954074 49.864112 
L 70.653613 49.824419 
L 69.353152 50.000738 
L 68.052691 50.149722 
L 66.75223 49.960479 
L 65.451769 49.734606 
L 64.151308 49.05631 
L 62.850846 48.613745 
L 61.550385 47.912359 
L 60.249924 47.780642 
L 58.949463 47.825811 
L 57.649002 47.723245 
L 56.348541 47.782734 
L 55.04808 47.683676 
L 53.747619 47.484376 
L 52.447157 47.609928 
L 51.146696 48.066288 
L 49.846235 48.372832 
L 48.545774 48.440112 
L 47.245313 48.265833 
L 45.944852 47.906351 
L 44.644391 47.314106 
L 43.34393 46.615882 
L 42.043469 45.828686 
L 40.743007 45.727821 
L 39.442546 45.754193 
L 38.142085 45.694289 
z
" clip-path="url(#p6102c7de8a)" style="fill: #7a0403; fill-opacity: 0.3"/>
   </g>
   <g id="matplotlib.axis_1">
    <g id="xtick_1">
     <g id="line2d_1">
      <defs>
       <path id="m89dcab76d8" d="M 0 0 
L 0 -3 
" style="stroke: #000000; stroke-width: 0.5"/>
      </defs>
      <g>
       <use xlink:href="#m89dcab76d8" x="43.99416" y="57.308468" style="stroke: #000000; stroke-width: 0.5"/>
      </g>
     </g>
     <g id="text_1">
      <text style="font-size: 5.5px; font-family: 'DejaVu Sans', 'Bitstream Vera Sans', 'Computer Modern Sans Serif', 'Lucida Grande', 'Verdana', 'Geneva', 'Lucid', 'Arial', 'Helvetica', 'Avant Garde', sans-serif; text-anchor: middle" x="43.99416" y="64.987609" transform="rotate(-0 43.99416 64.987609)">0</text>
     </g>
    </g>
    <g id="xtick_2">
     <g id="line2d_2">
      <g>
       <use xlink:href="#m89dcab76d8" x="70.003383" y="57.308468" style="stroke: #000000; stroke-width: 0.5"/>
      </g>
     </g>
     <g id="text_2">
      <text style="font-size: 5.5px; font-family: 'DejaVu Sans', 'Bitstream Vera Sans', 'Computer Modern Sans Serif', 'Lucida Grande', 'Verdana', 'Geneva', 'Lucid', 'Arial', 'Helvetica', 'Avant Garde', sans-serif; text-anchor: middle" x="70.003383" y="64.987609" transform="rotate(-0 70.003383 64.987609)">20</text>
     </g>
    </g>
    <g id="xtick_3">
     <g id="line2d_3">
      <g>
       <use xlink:href="#m89dcab76d8" x="96.012605" y="57.308468" style="stroke: #000000; stroke-width: 0.5"/>
      </g>
     </g>
     <g id="text_3">
      <text style="font-size: 5.5px; font-family: 'DejaVu Sans', 'Bitstream Vera Sans', 'Computer Modern Sans Serif', 'Lucida Grande', 'Verdana', 'Geneva', 'Lucid', 'Arial', 'Helvetica', 'Avant Garde', sans-serif; text-anchor: middle" x="96.012605" y="64.987609" transform="rotate(-0 96.012605 64.987609)">40</text>
     </g>
    </g>
    <g id="text_4">
     <text style="font-size: 7px; font-family: 'DejaVu Sans', 'Bitstream Vera Sans', 'Computer Modern Sans Serif', 'Lucida Grande', 'Verdana', 'Geneva', 'Lucid', 'Arial', 'Helvetica', 'Avant Garde', sans-serif" transform="translate(48.283171 75.450343)">Time from</text>
     <text style="font-size: 7px; font-family: 'DejaVu Sans', 'Bitstream Vera Sans', 'Computer Modern Sans Serif', 'Lucida Grande', 'Verdana', 'Geneva', 'Lucid', 'Arial', 'Helvetica', 'Avant Garde', sans-serif" transform="translate(27.142624 83.288812)">transmitter firing (ms)</text>
    </g>
   </g>
   <g id="matplotlib.axis_2">
    <g id="ytick_1">
     <g id="line2d_4">
      <defs>
       <path id="m801857cb06" d="M 0 0 
L 3 0 
" style="stroke: #000000; stroke-width: 0.5"/>
      </defs>
      <g>
       <use xlink:href="#m801857cb06" x="35.346094" y="55.021854" style="stroke: #000000; stroke-width: 0.5"/>
      </g>
     </g>
     <g id="text_5">
      <text style="font-size: 5.5px; font-family: 'DejaVu Sans', 'Bitstream Vera Sans', 'Computer Modern Sans Serif', 'Lucida Grande', 'Verdana', 'Geneva', 'Lucid', 'Arial', 'Helvetica', 'Avant Garde', sans-serif; text-anchor: end" x="31.846094" y="57.111424" transform="rotate(-0 31.846094 57.111424)">0.00</text>
     </g>
    </g>
    <g id="ytick_2">
     <g id="line2d_5">
      <g>
       <use xlink:href="#m801857cb06" x="35.346094" y="32.155712" style="stroke: #000000; stroke-width: 0.5"/>
      </g>
     </g>
     <g id="text_6">
      <text style="font-size: 5.5px; font-family: 'DejaVu Sans', 'Bitstream Vera Sans', 'Computer Modern Sans Serif', 'Lucida Grande', 'Verdana', 'Geneva', 'Lucid', 'Arial', 'Helvetica', 'Avant Garde', sans-serif; text-anchor: end" x="31.846094" y="34.245282" transform="rotate(-0 31.846094 34.245282)">0.01</text>
     </g>
    </g>
    <g id="ytick_3">
     <g id="line2d_6">
      <g>
       <use xlink:href="#m801857cb06" x="35.346094" y="9.28957" style="stroke: #000000; stroke-width: 0.5"/>
      </g>
     </g>
     <g id="text_7">
      <text style="font-size: 5.5px; font-family: 'DejaVu Sans', 'Bitstream Vera Sans', 'Computer Modern Sans Serif', 'Lucida Grande', 'Verdana', 'Geneva', 'Lucid', 'Arial', 'Helvetica', 'Avant Garde', sans-serif; text-anchor: end" x="31.846094" y="11.379141" transform="rotate(-0 31.846094 11.379141)">0.02</text>
     </g>
    </g>
    <g id="text_8">
     <!-- $\Delta p_{F} = p_{F} - p_{F}^{base}$ -->
     <g transform="translate(13.64 60.074019) rotate(-90)">
      <text>
       <tspan x="0" y="-0.601562" style="font-size: 7px; font-family: 'DejaVu Sans'">Δ</tspan>
       <tspan x="13.605566" y="-0.601562" style="font-size: 7px; font-family: 'DejaVu Sans'">=</tspan>
       <tspan x="29.651562" y="-0.601562" style="font-size: 7px; font-family: 'DejaVu Sans'">−</tspan>
       <tspan x="4.788574" y="-0.601562" style="font-style: oblique; font-size: 7px; font-family: 'DejaVu Sans'">p</tspan>
       <tspan x="20.83457" y="-0.601562" style="font-style: oblique; font-size: 7px; font-family: 'DejaVu Sans'">p</tspan>
       <tspan x="36.880566" y="-0.601562" style="font-style: oblique; font-size: 7px; font-family: 'DejaVu Sans'">p</tspan>
       <tspan x="9.231934" y="0.546875" style="font-style: oblique; font-size: 4.9px; font-family: 'DejaVu Sans'">F</tspan>
       <tspan x="25.27793" y="0.546875" style="font-style: oblique; font-size: 4.9px; font-family: 'DejaVu Sans'">F</tspan>
       <tspan x="41.323926" y="1.3125" style="font-style: oblique; font-size: 4.9px; font-family: 'DejaVu Sans'">F</tspan>
       <tspan x="41.649681" y="-3.28125" style="font-style: oblique; font-size: 4.9px; font-family: 'DejaVu Sans'">b</tspan>
       <tspan x="44.760033" y="-3.28125" style="font-style: oblique; font-size: 4.9px; font-family: 'DejaVu Sans'">a</tspan>
       <tspan x="47.762718" y="-3.28125" style="font-style: oblique; font-size: 4.9px; font-family: 'DejaVu Sans'">s</tspan>
       <tspan x="50.315599" y="-3.28125" style="font-style: oblique; font-size: 4.9px; font-family: 'DejaVu Sans'">e</tspan>
      </text>
     </g>
    </g>
   </g>
   <g id="line2d_7">
    <path d="M 38.142085 51.304432 
L 39.442546 51.731961 
L 40.743007 52.191962 
L 42.043469 51.782538 
L 43.34393 49.030039 
L 44.644391 42.724517 
L 45.944852 33.646833 
L 47.245313 24.825205 
L 48.545774 19.181085 
L 49.846235 17.50678 
L 51.146696 19.063309 
L 52.447157 22.811912 
L 53.747619 27.514306 
L 55.04808 31.982712 
L 56.348541 35.782343 
L 57.649002 39.09165 
L 58.949463 42.030704 
L 60.249924 44.509792 
L 61.550385 46.539682 
L 62.850846 48.150433 
L 64.151308 49.277283 
L 65.451769 50.131516 
L 66.75223 51.037038 
L 68.052691 51.832533 
L 69.353152 52.051581 
L 70.653613 51.717985 
L 71.954074 51.444639 
L 73.254535 51.57588 
L 74.554997 51.783435 
L 75.855458 51.678864 
L 77.155919 51.305093 
L 78.45638 50.754857 
L 79.756841 49.826346 
L 81.057302 48.624322 
L 82.357763 47.800082 
L 83.658224 47.747826 
L 84.958686 48.226759 
L 86.259147 48.752043 
L 87.559608 48.94097 
L 88.860069 48.83596 
L 90.16053 48.920902 
L 91.460991 49.286197 
L 92.761452 49.382647 
L 94.061913 49.14071 
" clip-path="url(#p6102c7de8a)" style="fill: none; stroke: #30123b; stroke-width: 1.2; stroke-linecap: square"/>
   </g>
   <g id="line2d_8">
    <path d="M 38.142085 50.744474 
L 39.442546 50.611665 
L 40.743007 50.856806 
L 42.043469 51.73023 
L 43.34393 52.75511 
L 44.644391 52.973678 
L 45.944852 51.163324 
L 47.245313 46.351839 
L 48.545774 38.931355 
L 49.846235 30.919209 
L 51.146696 24.699124 
L 52.447157 21.663776 
L 53.747619 21.912912 
L 55.04808 24.646698 
L 56.348541 28.65453 
L 57.649002 32.872815 
L 58.949463 36.696401 
L 60.249924 39.900499 
L 61.550385 42.551339 
L 62.850846 44.784837 
L 64.151308 46.616249 
L 65.451769 48.108777 
L 66.75223 49.401601 
L 68.052691 50.47707 
L 69.353152 51.306696 
L 70.653613 52.086912 
L 71.954074 52.882 
L 73.254535 53.361489 
L 74.554997 53.262283 
L 75.855458 52.717123 
L 77.155919 51.915221 
L 78.45638 50.951252 
L 79.756841 50.005088 
L 81.057302 49.180261 
L 82.357763 48.390354 
L 83.658224 47.603174 
L 84.958686 46.930953 
L 86.259147 46.498001 
L 87.559608 46.38967 
L 88.860069 46.735068 
L 90.16053 47.579025 
L 91.460991 48.582978 
L 92.761452 49.219373 
L 94.061913 49.388472 
" clip-path="url(#p6102c7de8a)" style="fill: none; stroke: #4143a7; stroke-width: 1.2; stroke-linecap: square"/>
   </g>
   <g id="line2d_9">
    <path d="M 38.142085 50.031081 
L 39.442546 50.820906 
L 40.743007 52.148201 
L 42.043469 53.538423 
L 43.34393 54.461165 
L 44.644391 54.731075 
L 45.944852 54.506055 
L 47.245313 53.532805 
L 48.545774 50.61877 
L 49.846235 44.659858 
L 51.146696 36.342578 
L 52.447157 27.975191 
L 53.747619 21.838018 
L 55.04808 19.415984 
L 56.348541 21.009632 
L 57.649002 25.174201 
L 58.949463 29.766923 
L 60.249924 33.779304 
L 61.550385 37.27011 
L 62.850846 40.310635 
L 64.151308 42.848903 
L 65.451769 44.897496 
L 66.75223 46.502482 
L 68.052691 47.795303 
L 69.353152 49.027578 
L 70.653613 50.34864 
L 71.954074 51.55579 
L 73.254535 52.255999 
L 74.554997 52.307369 
L 75.855458 51.972988 
L 77.155919 51.586322 
L 78.45638 51.240753 
L 79.756841 50.907194 
L 81.057302 50.610183 
L 82.357763 50.368332 
L 83.658224 50.042487 
L 84.958686 49.433906 
L 86.259147 48.740476 
L 87.559608 48.526694 
L 88.860069 48.881086 
L 90.16053 49.203939 
L 91.460991 49.173281 
L 92.761452 49.139773 
L 94.061913 49.276264 
" clip-path="url(#p6102c7de8a)" style="fill: none; stroke: #4771e9; stroke-width: 1.2; stroke-linecap: square"/>
   </g>
   <g id="line2d_10">
    <path d="M 38.142085 50.947584 
L 39.442546 51.136062 
L 40.743007 51.47037 
L 42.043469 52.09831 
L 43.34393 52.978433 
L 44.644391 53.531096 
L 45.944852 53.464979 
L 47.245313 53.289152 
L 48.545774 53.416128 
L 49.846235 53.254057 
L 51.146696 51.305727 
L 52.447157 46.424659 
L 53.747619 39.222146 
L 55.04808 31.8755 
L 56.348541 26.632546 
L 57.649002 24.701322 
L 58.949463 25.937847 
L 60.249924 29.125085 
L 61.550385 32.819266 
L 62.850846 36.051435 
L 64.151308 38.397627 
L 65.451769 40.035927 
L 66.75223 41.651298 
L 68.052691 43.641233 
L 69.353152 45.638188 
L 70.653613 47.161951 
L 71.954074 48.243311 
L 73.254535 49.143533 
L 74.554997 49.933196 
L 75.855458 50.564423 
L 77.155919 51.026353 
L 78.45638 51.220119 
L 79.756841 50.907547 
L 81.057302 50.083584 
L 82.357763 49.186883 
L 83.658224 48.69783 
L 84.958686 48.765448 
L 86.259147 49.166059 
L 87.559608 49.536432 
L 88.860069 49.720591 
L 90.16053 49.775775 
L 91.460991 49.787923 
L 92.761452 49.810056 
L 94.061913 49.844802 
" clip-path="url(#p6102c7de8a)" style="fill: none; stroke: #3e9bfe; stroke-width: 1.2; stroke-linecap: square"/>
   </g>
   <g id="line2d_11">
    <path d="M 38.142085 52.221362 
L 39.442546 52.282446 
L 40.743007 52.406699 
L 42.043469 52.704979 
L 43.34393 53.162599 
L 44.644391 53.608073 
L 45.944852 54.082684 
L 47.245313 54.64787 
L 48.545774 54.868234 
L 49.846235 54.244219 
L 51.146696 52.89198 
L 52.447157 51.088567 
L 53.747619 48.384309 
L 55.04808 43.686764 
L 56.348541 36.753246 
L 57.649002 29.438803 
L 58.949463 24.587376 
L 60.249924 23.636881 
L 61.550385 25.663277 
L 62.850846 28.678753 
L 64.151308 31.414438 
L 65.451769 33.690797 
L 66.75223 35.74871 
L 68.052691 37.824681 
L 69.353152 40.108669 
L 70.653613 42.554108 
L 71.954074 44.850913 
L 73.254535 46.798335 
L 74.554997 48.396992 
L 75.855458 49.592844 
L 77.155919 50.245268 
L 78.45638 50.364979 
L 79.756841 50.218238 
L 81.057302 50.12061 
L 82.357763 50.16662 
L 83.658224 50.271555 
L 84.958686 50.386662 
L 86.259147 50.438367 
L 87.559608 50.18522 
L 88.860069 49.644392 
L 90.16053 49.327722 
L 91.460991 49.530328 
L 92.761452 49.906892 
L 94.061913 50.087 
" clip-path="url(#p6102c7de8a)" style="fill: none; stroke: #22c5e2; stroke-width: 1.2; stroke-linecap: square"/>
   </g>
   <g id="line2d_12">
    <path d="M 38.142085 48.599684 
L 39.442546 49.509031 
L 40.743007 50.752877 
L 42.043469 51.871287 
L 43.34393 52.758378 
L 44.644391 53.275236 
L 45.944852 53.167997 
L 47.245313 52.555093 
L 48.545774 51.9709 
L 49.846235 51.768822 
L 51.146696 51.898066 
L 52.447157 52.090017 
L 53.747619 51.968162 
L 55.04808 51.077262 
L 56.348541 48.7057 
L 57.649002 43.973393 
L 58.949463 37.05277 
L 60.249924 30.083418 
L 61.550385 25.749887 
L 62.850846 24.974958 
L 64.151308 26.563293 
L 65.451769 28.958037 
L 66.75223 31.714932 
L 68.052691 34.99073 
L 69.353152 38.326336 
L 70.653613 40.864945 
L 71.954074 42.457321 
L 73.254535 43.787237 
L 74.554997 45.427189 
L 75.855458 47.095796 
L 77.155919 48.16765 
L 78.45638 48.695995 
L 79.756841 49.236864 
L 81.057302 49.934918 
L 82.357763 50.441127 
L 83.658224 50.500429 
L 84.958686 50.354508 
L 86.259147 50.559594 
L 87.559608 51.171608 
L 88.860069 51.448018 
L 90.16053 50.875728 
L 91.460991 49.924991 
L 92.761452 49.327437 
L 94.061913 49.181729 
" clip-path="url(#p6102c7de8a)" style="fill: none; stroke: #1ae4b6; stroke-width: 1.2; stroke-linecap: square"/>
   </g>
   <g id="line2d_13">
    <path d="M 38.142085 50.83015 
L 39.442546 50.885799 
L 40.743007 50.964448 
L 42.043469 51.086647 
L 43.34393 51.469198 
L 44.644391 52.261461 
L 45.944852 53.163113 
L 47.245313 53.765094 
L 48.545774 54.150178 
L 49.846235 54.573778 
L 51.146696 54.808202 
L 52.447157 54.442694 
L 53.747619 53.517768 
L 55.04808 52.540264 
L 56.348541 51.898248 
L 57.649002 51.202525 
L 58.949463 49.452595 
L 60.249924 45.71794 
L 61.550385 39.854371 
L 62.850846 33.218395 
L 64.151308 28.092903 
L 65.451769 25.987737 
L 66.75223 26.775113 
L 68.052691 29.206386 
L 69.353152 32.077942 
L 70.653613 34.874727 
L 71.954074 37.437121 
L 73.254535 39.704305 
L 74.554997 41.804443 
L 75.855458 43.82908 
L 77.155919 45.609518 
L 78.45638 46.921386 
L 79.756841 47.826331 
L 81.057302 48.753388 
L 82.357763 50.049734 
L 83.658224 51.498683 
L 84.958686 52.507513 
L 86.259147 52.803093 
L 87.559608 52.77976 
L 88.860069 52.896498 
L 90.16053 53.031425 
L 91.460991 52.84263 
L 92.761452 52.423455 
L 94.061913 52.133411 
" clip-path="url(#p6102c7de8a)" style="fill: none; stroke: #46f884; stroke-width: 1.2; stroke-linecap: square"/>
   </g>
   <g id="line2d_14">
    <path d="M 38.142085 48.644285 
L 39.442546 49.118315 
L 40.743007 49.743764 
L 42.043469 50.448827 
L 43.34393 51.24868 
L 44.644391 51.943264 
L 45.944852 52.231031 
L 47.245313 51.922613 
L 48.545774 51.290795 
L 49.846235 51.040187 
L 51.146696 51.547708 
L 52.447157 52.385141 
L 53.747619 52.860792 
L 55.04808 52.733975 
L 56.348541 52.248721 
L 57.649002 51.755089 
L 58.949463 51.321415 
L 60.249924 50.513831 
L 61.550385 48.447893 
L 62.850846 44.224206 
L 64.151308 37.97736 
L 65.451769 31.466634 
L 66.75223 26.80495 
L 68.052691 24.838588 
L 69.353152 25.069568 
L 70.653613 26.574836 
L 71.954074 28.818346 
L 73.254535 31.620487 
L 74.554997 34.616024 
L 75.855458 37.30282 
L 77.155919 39.497489 
L 78.45638 41.377541 
L 79.756841 43.16101 
L 81.057302 44.938596 
L 82.357763 46.761053 
L 83.658224 48.556044 
L 84.958686 49.99084 
L 86.259147 50.751532 
L 87.559608 50.990897 
L 88.860069 51.224565 
L 90.16053 51.541604 
L 91.460991 51.432609 
L 92.761452 50.694798 
L 94.061913 49.936095 
" clip-path="url(#p6102c7de8a)" style="fill: none; stroke: #88ff4e; stroke-width: 1.2; stroke-linecap: square"/>
   </g>
   <g id="line2d_15">
    <path d="M 38.142085 49.099071 
L 39.442546 49.74281 
L 40.743007 50.290462 
L 42.043469 50.288496 
L 43.34393 50.012678 
L 44.644391 50.067386 
L 45.944852 50.669015 
L 47.245313 51.269785 
L 48.545774 51.312933 
L 49.846235 51.038393 
L 51.146696 50.934651 
L 52.447157 51.070626 
L 53.747619 51.42967 
L 55.04808 52.071511 
L 56.348541 52.686033 
L 57.649002 52.658247 
L 58.949463 51.775203 
L 60.249924 50.656542 
L 61.550385 50.129996 
L 62.850846 50.007386 
L 64.151308 48.950536 
L 65.451769 45.673335 
L 66.75223 40.18571 
L 68.052691 33.948115 
L 69.353152 28.601257 
L 70.653613 24.91869 
L 71.954074 23.258874 
L 73.254535 23.913125 
L 74.554997 26.411522 
L 75.855458 29.455452 
L 77.155919 32.021471 
L 78.45638 34.12155 
L 79.756841 36.451522 
L 81.057302 39.308378 
L 82.357763 42.060446 
L 83.658224 44.053713 
L 84.958686 45.557347 
L 86.259147 47.208153 
L 87.559608 49.034838 
L 88.860069 50.667846 
L 90.16053 51.926605 
L 91.460991 52.732859 
L 92.761452 53.099091 
L 94.061913 53.224889 
" clip-path="url(#p6102c7de8a)" style="fill: none; stroke: #b9f635; stroke-width: 1.2; stroke-linecap: square"/>
   </g>
   <g id="line2d_16">
    <path d="M 38.142085 45.996619 
L 39.442546 46.674 
L 40.743007 47.394632 
L 42.043469 47.717588 
L 43.34393 47.820823 
L 44.644391 48.026748 
L 45.944852 48.391517 
L 47.245313 48.851576 
L 48.545774 49.346871 
L 49.846235 49.832949 
L 51.146696 50.2583 
L 52.447157 50.557448 
L 53.747619 50.760317 
L 55.04808 50.928695 
L 56.348541 51.035491 
L 57.649002 51.072729 
L 58.949463 51.06128 
L 60.249924 51.001148 
L 61.550385 50.997813 
L 62.850846 51.217742 
L 64.151308 51.532531 
L 65.451769 51.212772 
L 66.75223 49.110587 
L 68.052691 44.455372 
L 69.353152 37.66707 
L 70.653613 30.52688 
L 71.954074 25.285379 
L 73.254535 22.887876 
L 74.554997 22.466163 
L 75.855458 23.069057 
L 77.155919 24.789036 
L 78.45638 27.877536 
L 79.756841 31.947142 
L 81.057302 36.135009 
L 82.357763 39.455206 
L 83.658224 41.510152 
L 84.958686 42.926536 
L 86.259147 44.412019 
L 87.559608 45.914977 
L 88.860069 47.19437 
L 90.16053 48.350705 
L 91.460991 49.468664 
L 92.761452 50.360611 
L 94.061913 50.827488 
" clip-path="url(#p6102c7de8a)" style="fill: none; stroke: #e1dd37; stroke-width: 1.2; stroke-linecap: square"/>
   </g>
   <g id="line2d_17">
    <path d="M 38.142085 48.912429 
L 39.442546 48.758245 
L 40.743007 48.79288 
L 42.043469 49.119176 
L 43.34393 49.296292 
L 44.644391 48.990212 
L 45.944852 48.585008 
L 47.245313 48.740483 
L 48.545774 49.554796 
L 49.846235 50.463447 
L 51.146696 50.970523 
L 52.447157 51.077027 
L 53.747619 50.936404 
L 55.04808 50.559108 
L 56.348541 49.992518 
L 57.649002 49.62546 
L 58.949463 50.028942 
L 60.249924 51.190981 
L 61.550385 52.235273 
L 62.850846 52.468644 
L 64.151308 52.283228 
L 65.451769 52.364832 
L 66.75223 52.595333 
L 68.052691 52.193095 
L 69.353152 50.134807 
L 70.653613 45.402707 
L 71.954074 38.057626 
L 73.254535 29.971839 
L 74.554997 23.371851 
L 75.855458 19.339327 
L 77.155919 18.088752 
L 78.45638 19.229753 
L 79.756841 21.897568 
L 81.057302 25.483598 
L 82.357763 29.669865 
L 83.658224 33.908054 
L 84.958686 37.61245 
L 86.259147 40.616721 
L 87.559608 43.06359 
L 88.860069 45.05403 
L 90.16053 46.591041 
L 91.460991 47.666993 
L 92.761452 48.315574 
L 94.061913 48.606703 
" clip-path="url(#p6102c7de8a)" style="fill: none; stroke: #faba39; stroke-width: 1.2; stroke-linecap: square"/>
   </g>
   <g id="line2d_18">
    <path d="M 38.142085 49.365432 
L 39.442546 49.283166 
L 40.743007 49.37035 
L 42.043469 49.874343 
L 43.34393 50.816 
L 44.644391 51.907084 
L 45.944852 52.653405 
L 47.245313 52.736548 
L 48.545774 52.375683 
L 49.846235 52.09188 
L 51.146696 52.093893 
L 52.447157 52.168943 
L 53.747619 52.066826 
L 55.04808 51.817197 
L 56.348541 51.616659 
L 57.649002 51.447117 
L 58.949463 51.23163 
L 60.249924 51.206825 
L 61.550385 51.612298 
L 62.850846 52.263246 
L 64.151308 52.751376 
L 65.451769 52.928398 
L 66.75223 53.069273 
L 68.052691 53.463808 
L 69.353152 53.837969 
L 70.653613 53.35535 
L 71.954074 50.97335 
L 73.254535 45.800656 
L 74.554997 37.847765 
L 75.855458 28.78095 
L 77.155919 21.372942 
L 78.45638 17.606658 
L 79.756841 17.415062 
L 81.057302 19.380292 
L 82.357763 22.278464 
L 83.658224 25.794273 
L 84.958686 30.088741 
L 86.259147 34.925891 
L 87.559608 39.415462 
L 88.860069 42.761363 
L 90.16053 45.030146 
L 91.460991 46.864533 
L 92.761452 48.554008 
L 94.061913 49.678801 
" clip-path="url(#p6102c7de8a)" style="fill: none; stroke: #fd8d27; stroke-width: 1.2; stroke-linecap: square"/>
   </g>
   <g id="line2d_19">
    <path d="M 38.142085 47.521489 
L 39.442546 47.6092 
L 40.743007 48.266849 
L 42.043469 49.578582 
L 43.34393 50.924508 
L 44.644391 51.691062 
L 45.944852 51.756963 
L 47.245313 51.314491 
L 48.545774 50.781813 
L 49.846235 50.567433 
L 51.146696 50.634722 
L 52.447157 50.713231 
L 53.747619 50.672003 
L 55.04808 50.402761 
L 56.348541 49.900656 
L 57.649002 49.48217 
L 58.949463 49.456888 
L 60.249924 49.84173 
L 61.550385 50.539134 
L 62.850846 51.345323 
L 64.151308 51.949127 
L 65.451769 52.282375 
L 66.75223 52.524737 
L 68.052691 52.794559 
L 69.353152 53.133409 
L 70.653613 53.475477 
L 71.954074 53.464555 
L 73.254535 52.449329 
L 74.554997 49.508844 
L 75.855458 43.679711 
L 77.155919 35.06491 
L 78.45638 25.764395 
L 79.756841 18.752901 
L 81.057302 15.622262 
L 82.357763 16.006925 
L 83.658224 18.937298 
L 84.958686 23.559722 
L 86.259147 28.8104 
L 87.559608 33.657168 
L 88.860069 37.716316 
L 90.16053 41.170348 
L 91.460991 44.106496 
L 92.761452 46.229936 
L 94.061913 47.284787 
" clip-path="url(#p6102c7de8a)" style="fill: none; stroke: #f05b12; stroke-width: 1.2; stroke-linecap: square"/>
   </g>
   <g id="line2d_20">
    <path d="M 38.142085 46.692124 
L 39.442546 46.896415 
L 40.743007 47.265376 
L 42.043469 47.683456 
L 43.34393 47.927633 
L 44.644391 47.965715 
L 45.944852 48.120507 
L 47.245313 48.574913 
L 48.545774 49.123173 
L 49.846235 49.558808 
L 51.146696 49.815349 
L 52.447157 49.846828 
L 53.747619 49.670603 
L 55.04808 49.353286 
L 56.348541 48.984256 
L 57.649002 48.805671 
L 58.949463 49.061864 
L 60.249924 49.695392 
L 61.550385 50.417225 
L 62.850846 50.927505 
L 64.151308 51.06233 
L 65.451769 50.964417 
L 66.75223 51.068037 
L 68.052691 51.578308 
L 69.353152 52.147901 
L 70.653613 52.448276 
L 71.954074 52.571699 
L 73.254535 52.735457 
L 74.554997 52.882083 
L 75.855458 52.29299 
L 77.155919 49.573584 
L 78.45638 43.470329 
L 79.756841 34.252488 
L 81.057302 24.423996 
L 82.357763 17.339352 
L 83.658224 14.700576 
L 84.958686 15.894594 
L 86.259147 19.407023 
L 87.559608 23.997263 
L 88.860069 28.870155 
L 90.16053 33.390619 
L 91.460991 36.91384 
L 92.761452 39.089413 
L 94.061913 40.049606 
" clip-path="url(#p6102c7de8a)" style="fill: none; stroke: #d63506; stroke-width: 1.2; stroke-linecap: square"/>
   </g>
   <g id="line2d_21">
    <path d="M 38.142085 49.058128 
L 39.442546 48.689754 
L 40.743007 48.179943 
L 42.043469 47.66015 
L 43.34393 47.308256 
L 44.644391 47.45866 
L 45.944852 48.165091 
L 47.245313 49.063545 
L 48.545774 49.836886 
L 49.846235 50.449575 
L 51.146696 50.84136 
L 52.447157 50.739935 
L 53.747619 50.103897 
L 55.04808 49.439826 
L 56.348541 49.212971 
L 57.649002 49.299171 
L 58.949463 49.47071 
L 60.249924 49.80421 
L 61.550385 50.311096 
L 62.850846 50.865743 
L 64.151308 51.419407 
L 65.451769 51.818796 
L 66.75223 51.876844 
L 68.052691 51.71601 
L 69.353152 51.638217 
L 70.653613 51.84736 
L 71.954074 52.365706 
L 73.254535 52.948305 
L 74.554997 53.092194 
L 75.855458 52.467568 
L 77.155919 51.316798 
L 78.45638 49.896395 
L 79.756841 47.477253 
L 81.057302 42.508077 
L 82.357763 34.280191 
L 83.658224 24.506755 
L 84.958686 16.842438 
L 86.259147 14.159198 
L 87.559608 16.223465 
L 88.860069 20.64506 
L 90.16053 25.593108 
L 91.460991 30.438298 
L 92.761452 34.49386 
L 94.061913 36.789045 
" clip-path="url(#p6102c7de8a)" style="fill: none; stroke: #af1801; stroke-width: 1.2; stroke-linecap: square"/>
   </g>
   <g id="line2d_22">
    <path d="M 38.142085 47.396472 
L 39.442546 47.38225 
L 40.743007 47.340472 
L 42.043469 47.564001 
L 43.34393 48.205709 
L 44.644391 48.941043 
L 45.944852 49.494913 
L 47.245313 49.890384 
L 48.545774 50.069842 
L 49.846235 49.920673 
L 51.146696 49.572673 
L 52.447157 49.281537 
L 53.747619 49.199086 
L 55.04808 49.264768 
L 56.348541 49.315618 
L 57.649002 49.302255 
L 58.949463 49.245371 
L 60.249924 49.21349 
L 61.550385 49.400562 
L 62.850846 49.892721 
L 64.151308 50.487162 
L 65.451769 50.976907 
L 66.75223 51.33251 
L 68.052691 51.489183 
L 69.353152 51.386611 
L 70.653613 51.222348 
L 71.954074 51.293484 
L 73.254535 51.746422 
L 74.554997 52.457809 
L 75.855458 53.02624 
L 77.155919 53.094181 
L 78.45638 52.611488 
L 79.756841 51.670024 
L 81.057302 50.173039 
L 82.357763 47.437893 
L 83.658224 42.201278 
L 84.958686 34.083056 
L 86.259147 25.230982 
L 87.559608 19.107298 
L 88.860069 17.43504 
L 90.16053 19.230259 
L 91.460991 22.406811 
L 92.761452 25.358786 
L 94.061913 27.124344 
" clip-path="url(#p6102c7de8a)" style="fill: none; stroke: #7a0403; stroke-width: 1.2; stroke-linecap: square"/>
   </g>
   <g id="patch_3">
    <path d="M 35.346094 57.308468 
L 35.346094 9.28957 
" style="fill: none; stroke: #000000; stroke-width: 0.8; stroke-linejoin: miter; stroke-linecap: square"/>
   </g>
   <g id="patch_4">
    <path d="M 35.346094 57.308468 
L 96.857905 57.308468 
" style="fill: none; stroke: #000000; stroke-width: 0.8; stroke-linejoin: miter; stroke-linecap: square"/>
   </g>
  </g>
 </g>
 <defs>
  <clipPath id="p6102c7de8a">
   <rect x="35.346094" y="9.28957" width="61.511811" height="48.018898"/>
  </clipPath>
 </defs>
</svg>
